<svg width="447" height="495" viewBox="0 0 447 495" fill="none" xmlns="http://www.w3.org/2000/svg">
<path d="M421.621 0.378906H196.561C190.027 0.381558 183.763 2.97873 179.144 7.59933C174.525 12.2199 171.931 18.4857 171.931 25.0189V215.489C171.928 222.023 169.331 228.289 164.711 232.909C160.091 237.529 153.825 240.126 147.291 240.129H26.1107C19.5775 240.129 13.3117 242.724 8.69113 247.342C4.07052 251.961 1.47335 258.226 1.4707 264.759V469.839C1.4707 476.374 4.0667 482.641 8.68759 487.262C13.3085 491.883 19.5758 494.479 26.1107 494.479H276.461C282.996 494.479 289.263 491.883 293.884 487.262C298.505 482.641 301.101 476.374 301.101 469.839V95.6389C301.101 89.104 303.697 82.8367 308.318 78.2158C312.939 73.5949 319.206 70.9989 325.741 70.9989H421.621C428.151 70.9989 434.414 68.4053 439.033 63.7885C443.652 59.1716 446.248 52.9095 446.251 46.3789V25.0589C446.256 21.8206 445.623 18.613 444.388 15.6196C443.152 12.6262 441.339 9.90561 439.051 7.61346C436.764 5.32132 434.047 3.50256 431.056 2.2612C428.065 1.01984 424.859 0.380216 421.621 0.378906ZM269.471 3.37891C285.471 3.37891 301.471 4.03891 317.411 4.70891C301.431 4.07891 285.451 3.37891 269.471 3.37891Z" fill="#D8E5A5"/>
<path d="M301.781 119.769C301.631 111.139 301.251 102.989 300.641 97.2991C300.641 97.0191 300.541 96.6991 300.501 96.3591C299.631 99.0091 298.501 98.2191 299.891 93.7491C296.891 95.6891 296.341 93.9491 298.281 85.6991C294.821 92.0791 293.511 92.4891 293.281 77.2291C291.131 91.5491 290.091 90.2291 287.871 78.2291C288.001 84.8991 286.971 80.9191 285.811 75.1591C285.811 82.8491 285.501 86.5391 284.191 85.3791C284.191 87.9691 283.191 85.7191 281.701 81.4991C282.941 89.0491 282.381 88.7491 280.801 83.9391C281.611 88.3691 280.891 88.0591 279.801 86.7891C279.581 87.4891 278.961 87.2291 279.281 85.5991C277.831 86.7591 277.281 86.5491 278.581 81.8091C276.431 85.4991 276.081 84.6591 277.581 77.6891C275.191 84.3191 274.661 84.7991 276.281 73.8591C273.831 83.9091 273.521 82.5491 274.651 70.5791C272.921 82.3291 272.651 83.4691 273.651 69.2291C272.091 83.2291 271.871 81.8291 272.301 67.9791C271.301 81.6191 270.871 82.7891 270.301 67.2891C269.871 82.8891 269.301 81.8191 267.601 68.4191C268.051 81.4191 267.391 82.0291 264.701 72.7391C264.921 74.1991 265.081 75.3591 265.221 76.3691C265.941 79.7891 266.081 80.8391 265.661 79.6991C265.661 80.3291 265.661 80.4191 265.411 80.0191C265.301 80.1591 265.071 79.8391 264.731 79.0791C264.851 80.5391 264.671 80.9991 264.241 80.7491C264.151 80.9591 263.991 80.9391 263.771 80.7491C264.521 81.7491 264.181 81.5291 263.201 80.1391C263.011 79.8891 262.791 79.5891 262.561 79.2291C262.241 79.9491 261.911 80.0891 261.811 79.7891C261.611 79.2491 262.131 77.3391 263.431 73.5091C262.051 75.9791 260.931 77.5091 260.071 77.8791C258.371 78.5991 257.731 74.5191 257.531 62.6391C257.215 66.5823 256.661 70.5028 255.871 74.3791C255.311 76.4391 254.741 76.7091 254.041 75.3291C253.341 73.9491 252.461 71.0491 251.341 66.6291C251.991 71.9391 252.241 74.9991 252.641 74.6291C252.731 74.4091 252.831 74.2191 252.931 73.9391C252.901 74.1918 252.801 74.431 252.641 74.6291C251.941 76.2291 251.351 76.3191 250.831 74.6291C250.831 74.7091 250.771 74.7191 250.741 74.7891C249.741 77.3691 249.321 74.9591 249.221 66.6291C249.281 79.0791 248.471 78.9791 248.051 65.8091C247.101 74.3491 246.491 77.1491 245.761 74.2091C245.551 75.2091 245.241 75.6591 244.821 75.5491C244.743 75.5416 244.668 75.5177 244.601 75.4791C244.563 75.5746 244.501 75.6584 244.42 75.722C244.339 75.7855 244.243 75.8265 244.142 75.8408C244.04 75.855 243.936 75.842 243.841 75.803C243.746 75.7641 243.663 75.7006 243.601 75.6191C243.121 76.2191 242.431 75.0191 241.451 72.4091C241.351 72.1391 241.231 71.8291 241.121 71.5091C241.011 71.1891 240.811 70.7491 240.651 70.3191C240.801 74.8891 240.271 74.2291 239.651 70.9291C239.651 70.5591 239.501 68.7991 239.351 66.5191C239.201 64.2391 239.061 61.4291 238.941 58.0691C237.421 78.2891 236.181 78.3091 231.361 67.1691C231.431 67.5891 231.491 67.9591 231.551 68.3391C235.071 77.5791 235.141 78.0391 231.841 70.2391C232.571 73.8591 232.651 75.8891 232.251 76.9391C232.152 77.2587 231.934 77.5276 231.641 77.6891C231.596 77.7799 231.523 77.8536 231.433 77.8987C231.343 77.9439 231.24 77.9581 231.141 77.9391C230.751 78.1591 230.141 77.7191 230.061 76.0191C230.171 77.6091 230.381 78.0891 230.521 78.1291L230.671 77.9991C230.671 78.0991 230.581 78.1391 230.521 78.1291C230.121 78.4091 229.661 78.1291 230.071 76.1991C229.011 77.6891 228.351 78.1991 228.401 77.0491C228.35 77.0693 228.295 77.0743 228.242 77.0637C228.189 77.053 228.14 77.0271 228.101 76.9891C227.711 77.2091 227.381 77.0691 227.101 76.4291C226.241 77.2891 226.021 76.0591 226.511 71.8791C226.511 70.2491 226.511 68.1991 226.511 65.6291C224.421 78.9591 224.221 79.0191 226.111 64.9191C223.191 79.1791 222.371 79.2891 221.441 61.2891C220.931 67.4091 220.441 71.5191 221.001 72.9491C220.401 74.1191 219.921 75.0191 219.621 75.6191C220.05 75.4612 220.467 75.2741 220.871 75.0591L219.981 75.9491L220.441 75.7091C218.091 77.4491 216.441 78.6291 215.241 79.4391C214.041 80.2491 213.321 80.6791 214.241 78.2791C212.241 81.1791 212.021 81.2791 213.881 76.8791C211.491 81.3791 211.221 81.4391 213.381 74.9491C210.211 81.6991 209.471 81.8891 211.091 68.4591C208.531 77.3091 206.901 80.7591 204.581 79.3591C204.581 79.3591 204.511 79.3591 204.481 79.3591C204.375 79.5175 204.217 79.6341 204.035 79.6888C203.852 79.7436 203.656 79.733 203.481 79.6591C203.401 80.0291 203.241 80.1291 202.981 79.9591C202.821 80.5791 202.531 80.7391 202.071 80.3491C201.321 79.6991 200.171 77.7591 198.581 74.7591C200.331 79.4591 201.121 81.8091 201.131 81.7591C200.991 82.1791 200.691 82.0491 200.241 81.3191C200.208 81.4447 200.168 81.5683 200.121 81.6891C199.541 83.4691 198.901 83.1891 198.231 79.9991C197.901 82.7691 197.771 83.3391 197.731 81.9091C196.851 85.7391 196.471 84.5591 196.591 76.9091C195.221 86.9091 194.591 87.1191 193.781 76.2991C193.421 87.6591 192.781 87.9291 190.951 78.4191C191.291 83.4191 191.301 86.0391 190.951 86.5591C190.601 87.0791 189.891 85.5591 188.851 82.1591C189.192 84.14 189.34 86.1495 189.291 88.1591C189.001 88.6091 188.581 88.2991 188.531 86.9391C188.407 87.2034 188.297 87.4737 188.201 87.7491C188.156 88.0966 188.23 88.4491 188.411 88.7491H188.491H188.411C188.44 88.7899 188.477 88.824 188.521 88.8491L188.671 88.7791L188.541 88.8491C188.606 88.8887 188.679 88.9136 188.755 88.9222C188.831 88.9309 188.908 88.923 188.981 88.8991C188.561 89.1691 188.241 89.2491 188.081 89.0991C187.719 89.341 187.296 89.4761 186.861 89.4891C186.551 89.5691 186.371 89.4891 186.381 89.1891C186.315 89.1295 186.261 89.0584 186.221 88.9791C186.105 89.003 185.985 88.9808 185.886 88.9172C185.787 88.8537 185.717 88.7538 185.691 88.6391C185.482 88.2982 185.364 87.9088 185.351 87.5091C184.071 90.0991 184.051 89.9191 185.351 86.7691C185.409 85.091 185.593 83.4196 185.901 81.7691C181.831 91.9891 180.731 92.6791 180.081 73.7691C178.521 94.0991 177.411 94.8491 171.971 85.4291C172.603 87.8183 173.055 90.2519 173.321 92.7091C174.811 94.9991 174.821 95.2691 173.381 93.7091C173.435 94.5603 173.334 95.4144 173.081 96.2291C173.022 96.6281 172.841 96.9988 172.561 97.2891C172.54 97.3808 172.513 97.4709 172.481 97.5591C172.481 97.8891 168.221 86.6991 166.891 97.3491C167.711 107.349 167.171 117.349 167.551 127.349C168.361 148.539 174.441 170.739 172.211 191.929C171.753 196.957 170.206 201.825 167.676 206.195C165.146 210.564 161.694 214.329 157.561 217.229C143.561 228.849 126.481 241.839 108.291 243.869C107.291 248.869 106.601 247.419 109.551 247.559C163.241 250.129 237.551 235.749 301.421 226.999C302.611 199.999 300.051 175.749 301.421 148.649C301.831 140.439 301.941 129.819 301.771 119.849" fill="#6DFC6D"/>
<path d="M301.43 428.219C301.43 453.519 302.04 460.849 297.5 478.789C297.369 479.291 297.178 479.774 296.93 480.229C296.93 480.229 296.93 480.229 296.93 480.289C296.526 481.024 295.974 481.666 295.309 482.177C294.645 482.687 293.881 483.054 293.067 483.254C292.253 483.454 291.407 483.483 290.581 483.34C289.755 483.196 288.968 482.883 288.27 482.419L4.14997 294.169C3.39379 293.668 2.75963 293.003 2.29411 292.225C1.82859 291.446 1.54354 290.573 1.45997 289.669C0.0199717 273.799 0.459976 257.499 6.11998 249.769C7.99998 246.389 11.55 244.079 14.6 241.839C17.1071 240.558 19.779 239.63 22.54 239.079C28.13 238.729 36 237.129 42.41 237.129C45.13 237.129 55.86 236.639 59.41 236.699C60.49 236.559 61.48 236.469 62.16 236.449C78.0607 235.952 93.8163 233.26 108.98 228.449C114.31 226.449 119.64 225.789 124.3 223.789C157.98 210.959 163.85 173.519 166.58 138.279C166.58 137.929 166.58 137.929 166.58 137.229C166.85 134.559 166.64 131.689 167.82 129.229C170.38 123.959 173.4 122.229 177.2 124.739L297.12 204.209C298.72 205.259 301.94 207.209 302.03 209.099C303.22 233.239 300.24 256.099 301.36 280.349C302.03 286.349 299.36 301.649 300.7 307.649C301.36 336.939 297.92 345.459 301.36 372.889C301.36 373.139 301.36 381.969 301.36 382.209C301.36 392.419 300.78 403.399 300.7 413.609C300.72 413.875 300.72 414.143 300.7 414.409C300.29 417.149 302.08 425.949 301.43 428.219Z" fill="#A8E0A1"/>
</svg>
