<svg width="286" height="352" viewBox="0 0 286 352" fill="none" xmlns="http://www.w3.org/2000/svg">
<path d="M245.82 317.889H41.82C36.5917 317.892 31.4141 316.864 26.5831 314.865C21.752 312.866 17.3621 309.935 13.6642 306.239C9.96633 302.543 7.03289 298.155 5.03151 293.324C3.03012 288.494 2 283.317 2 278.089V74.0891C2 63.5334 6.1932 53.4102 13.6572 45.9462C21.1211 38.4823 31.2444 34.2891 41.8 34.2891H245.83C256.386 34.2891 266.509 38.4823 273.973 45.9462C281.437 53.4102 285.63 63.5334 285.63 74.0891V278.089C285.63 283.316 284.6 288.493 282.599 293.322C280.599 298.152 277.666 302.54 273.969 306.235C270.272 309.931 265.884 312.863 261.054 314.862C256.224 316.862 251.047 317.89 245.82 317.889Z" fill="#D8E5A5"/>
<path d="M51.3594 165.529C51.4148 165.616 51.4649 165.706 51.5094 165.799C51.8194 165.889 51.7994 165.869 51.3594 165.529Z" fill="#6DFC6D"/>
<path d="M71.9997 153.609C71.8908 153.584 71.7838 153.55 71.6797 153.509C71.6797 153.509 71.6797 153.569 71.6797 153.599C72.3297 153.989 72.3797 153.989 71.9997 153.609Z" fill="#6DFC6D"/>
<path d="M79.4199 152.089C79.4689 152.068 79.5107 152.034 79.5399 151.989L79.4199 152.089Z" fill="#6DFC6D"/>
<path d="M84.4598 151.299H84.5198L84.0898 151.359L84.4598 151.299Z" fill="#6DFC6D"/>
<path d="M85.6607 150.299L84.7207 150.019C85.5707 150.499 85.8407 150.779 85.7207 150.969C85.8208 150.942 85.9155 150.898 86.0007 150.839C86.0907 150.719 86.0007 150.549 85.6607 150.299Z" fill="#6DFC6D"/>
<path d="M86.0009 150.839C85.9131 150.9 85.8148 150.944 85.7109 150.969C85.8177 150.953 85.918 150.908 86.0009 150.839Z" fill="#6DFC6D"/>
<path d="M85.6606 151.039C85.1514 151.243 84.609 151.351 84.0605 151.359C85.0805 151.259 85.6906 151.179 85.6606 151.039Z" fill="#6DFC6D"/>
<path d="M86.1611 150.299L84.8711 149.799C85.1437 149.95 85.4075 150.117 85.6611 150.299L86.1911 150.459L86.1611 150.299Z" fill="#6DFC6D"/>
<path d="M85.1694 151.079L84.6895 151.129L85.1694 151.079Z" fill="#6DFC6D"/>
<path d="M85.1695 151.089H84.6895C84.6895 151.159 84.6195 151.199 84.5195 151.239C84.9095 151.229 85.1395 151.169 85.1695 151.089Z" fill="#6DFC6D"/>
<path d="M85.5199 151.039L85.1699 151.099L85.5199 151.039Z" fill="#6DFC6D"/>
<path d="M94.3306 149.379C94.1468 149.468 93.9725 149.575 93.8105 149.699H93.9106C94.0279 149.565 94.1707 149.457 94.3306 149.379Z" fill="#6DFC6D"/>
<path d="M84.3398 150.669L84.5998 150.759C85.2398 150.839 85.3598 150.859 84.3398 150.669Z" fill="#6DFC6D"/>
<path d="M84.4395 150.569C85.1495 150.779 85.4394 150.919 85.5194 151.019H85.6395C85.2676 150.802 84.8619 150.65 84.4395 150.569Z" fill="#6DFC6D"/>
<path d="M84.6089 150.759L84.1289 150.689C84.5589 150.859 84.6989 151.019 84.6889 151.129L85.1689 151.079C85.1889 150.999 84.9989 150.899 84.6089 150.759Z" fill="#6DFC6D"/>
<path d="M50.0996 166.769L50.4496 166.999H50.9996C50.7696 166.959 50.4896 166.879 50.0996 166.769Z" fill="#6DFC6D"/>
<path d="M71.3203 153.379L71.6603 153.579C71.6641 153.549 71.6641 153.519 71.6603 153.489L71.3203 153.379Z" fill="#6DFC6D"/>
<path d="M71.4297 153.169C71.5097 153.289 71.5697 153.409 71.6297 153.509C71.7338 153.55 71.8408 153.583 71.9497 153.609L71.4297 153.169Z" fill="#6DFC6D"/>
<path d="M93.9106 149.719H93.8105H93.9706C93.9614 149.725 93.9511 149.727 93.9406 149.727C93.93 149.727 93.9197 149.725 93.9106 149.719Z" fill="#6DFC6D"/>
<path d="M94.3599 149.659L93.9199 149.709L94.3599 149.659Z" fill="#6DFC6D"/>
<path d="M93.7695 149.779C93.7695 149.779 93.8695 149.839 94.0495 149.779H93.9295H93.7695Z" fill="#6DFC6D"/>
<path d="M93.4605 149.379C93.5867 149.233 93.7238 149.095 93.8705 148.969L93.1605 149.419C93.1548 149.456 93.1548 149.493 93.1605 149.529L93.4605 149.379Z" fill="#6DFC6D"/>
<path d="M93.3711 149.689C93.4666 149.738 93.5751 149.755 93.6811 149.739C93.576 149.736 93.4718 149.719 93.3711 149.689Z" fill="#6DFC6D"/>
<path d="M93.3702 149.689C93.4662 149.705 93.5642 149.705 93.6602 149.689C93.5402 149.599 93.6602 149.409 94.0002 149.049L93.4602 149.339C93.3302 149.529 93.3102 149.639 93.3702 149.689Z" fill="#6DFC6D"/>
<path d="M153.091 0.438965C133.701 1.21896 114.201 2.49897 94.5107 5.12897C65.5107 9.12897 37.5107 10.129 8.51068 17.129C-22.2193 25.099 -49.9993 37.599 -75.9993 53.379C-110.599 164.169 -54.6193 344.959 -4.99932 351.519C19.6107 354.769 52.8707 316.459 62.2507 281.599C69.5507 254.439 58.2507 244.769 58.9207 191.049C59.4607 149.709 59.7207 129.049 70.9207 111.139C92.1807 77.139 125.711 82.769 145.501 43.889C149.961 35.129 159.411 16.549 153.501 1.27896C153.351 0.998961 153.211 0.718965 153.091 0.438965Z" fill="#A8E0A1"/>
<path d="M31.4703 290.269C35.9503 287.029 37.9003 282.509 36.6303 279.949C35.0103 276.699 28.2503 276.669 24.1703 279.099C19.7803 281.729 18.7003 287.099 17.6003 292.609C16.7875 295.821 16.6277 299.164 17.1303 302.439C17.6403 305.379 18.7003 311.379 24.0003 314.539C29.0603 317.539 34.5303 315.879 35.5203 315.539C40.6903 313.959 46.6603 309.099 45.5203 305.319C44.7103 302.559 40.2503 300.789 34.9403 300.819C36.0074 300.663 37.007 300.203 37.8193 299.494C38.6316 298.784 39.2221 297.856 39.5203 296.819C40.1803 294.009 37.9103 291.489 35.7803 290.539C34.4133 289.974 32.8972 289.879 31.4703 290.269Z" fill="#00FFA9"/>
<path d="M22.0906 296.619H-3.85938V299.219H22.0906V296.619Z" fill="#754C24"/>
<path d="M22.7389 302.669C25.0088 302.669 26.8489 300.444 26.8489 297.699C26.8489 294.954 25.0088 292.729 22.7389 292.729C20.469 292.729 18.6289 294.954 18.6289 297.699C18.6289 300.444 20.469 302.669 22.7389 302.669Z" fill="#00FFA9"/>
<path d="M29.5194 248.269C33.9894 245.029 35.9394 240.509 34.6694 237.949C33.0494 234.699 26.2894 234.669 22.2094 237.099C17.8194 239.729 16.7494 245.099 15.6394 250.609C14.8265 253.821 14.6667 257.164 15.1694 260.439C15.6894 263.359 16.7494 269.389 22.0294 272.539C27.0294 275.539 32.5494 273.879 33.5494 273.539C38.7094 271.959 44.6794 267.099 43.5494 263.309C42.7294 260.559 38.2694 258.789 32.9594 258.819C34.0278 258.664 35.029 258.204 35.843 257.495C36.6569 256.785 37.2494 255.856 37.5494 254.819C38.1994 251.999 35.9294 249.489 33.7994 248.539C32.4431 247.973 30.9361 247.878 29.5194 248.269Z" fill="#00FFA9"/>
<path d="M20.1395 254.609H-5.81055V257.209H20.1395V254.609Z" fill="#754C24"/>
<path d="M20.7897 260.669C23.0596 260.669 24.8997 258.444 24.8997 255.699C24.8997 252.954 23.0596 250.729 20.7897 250.729C18.5198 250.729 16.6797 252.954 16.6797 255.699C16.6797 258.444 18.5198 260.669 20.7897 260.669Z" fill="#00FFA9"/>
<path d="M30.2897 206.259C34.7597 203.019 36.7097 198.499 35.4397 195.939C33.8197 192.689 27.0597 192.659 22.9797 195.089C18.5997 197.719 17.5197 203.089 16.4097 208.599C15.5959 211.811 15.4394 215.155 15.9497 218.429C16.4597 221.359 17.5197 227.379 22.7997 230.529C27.8497 233.529 33.3297 231.869 34.3197 231.529C39.4797 229.949 45.4497 225.089 44.3197 221.309C43.5097 218.549 39.0497 216.779 33.7297 216.809C34.7982 216.654 35.7993 216.194 36.6133 215.484C37.4273 214.775 38.0197 213.846 38.3197 212.809C38.9697 209.999 36.6997 207.479 34.5697 206.529C33.2122 205.968 31.707 205.873 30.2897 206.259Z" fill="#00FFA9"/>
<path d="M20.9109 212.609H-5.03906V215.209H20.9109V212.609Z" fill="#754C24"/>
<path d="M21.5709 218.659C23.8408 218.659 25.6809 216.434 25.6809 213.689C25.6809 210.944 23.8408 208.719 21.5709 208.719C19.3011 208.719 17.4609 210.944 17.4609 213.689C17.4609 216.434 19.3011 218.659 21.5709 218.659Z" fill="#00FFA9"/>
<path d="M28.3309 164.259C32.8109 161.019 34.7609 156.499 33.4909 153.939C31.8709 150.689 25.1009 150.659 21.0309 153.089C16.6409 155.719 15.5609 161.089 14.4609 166.599C13.6465 169.811 13.49 173.155 14.0009 176.429C14.5109 179.349 15.5709 185.379 20.8509 188.529C25.9009 191.529 31.3809 189.869 32.3709 189.529C37.5409 187.949 43.5009 183.089 42.3709 179.299C41.5609 176.549 37.1009 174.779 31.7809 174.809C32.8498 174.655 33.8515 174.195 34.6657 173.486C35.4799 172.776 36.072 171.847 36.3709 170.809C37.0209 167.989 34.7509 165.479 32.6209 164.529C31.2616 163.96 29.7507 163.865 28.3309 164.259Z" fill="#00FFA9"/>
<path d="M18.95 170.609H-7V173.209H18.95V170.609Z" fill="#754C24"/>
<path d="M19.61 176.659C21.8799 176.659 23.72 174.434 23.72 171.689C23.72 168.944 21.8799 166.719 19.61 166.719C17.3401 166.719 15.5 168.944 15.5 171.689C15.5 174.434 17.3401 176.659 19.61 176.659Z" fill="#00FFA9"/>
<path d="M29.5501 122.379C34.0201 119.149 35.9801 114.629 34.7001 112.059C33.0901 108.809 26.3201 108.789 22.2501 111.219C17.8601 113.839 16.7801 119.219 15.6701 124.719C14.8608 127.935 14.7044 131.281 15.2101 134.559C15.7201 137.479 16.7801 143.499 22.0601 146.649C27.1101 149.649 32.5901 147.989 33.5801 147.649C38.7501 146.059 44.7101 141.199 43.5801 137.419C42.7701 134.659 38.3101 132.899 32.9901 132.919C34.059 132.765 35.0607 132.305 35.8749 131.596C36.6891 130.886 37.2812 129.957 37.5801 128.919C38.2301 126.099 35.9601 123.579 33.8301 122.639C32.4723 122.078 30.9658 121.986 29.5501 122.379Z" fill="#00FFA9"/>
<path d="M20.1707 128.769H-5.7793V131.369H20.1707V128.769Z" fill="#754C24"/>
<path d="M20.8307 134.819C23.1006 134.819 24.9407 132.594 24.9407 129.849C24.9407 127.104 23.1006 124.879 20.8307 124.879C18.5608 124.879 16.7207 127.104 16.7207 129.849C16.7207 132.594 18.5608 134.819 20.8307 134.819Z" fill="#00FFA9"/>
<path d="M27.5908 80.379C32.0708 77.139 34.0208 72.6191 32.7508 70.0491C31.1308 66.8091 24.3608 66.779 20.2908 69.209C15.9008 71.829 14.8208 77.209 13.7208 82.709C12.9033 85.924 12.7435 89.2709 13.2508 92.5491C13.7608 95.4691 14.8208 101.549 20.1008 104.649C25.1608 107.649 30.6308 105.979 31.6208 105.649C36.7908 104.059 42.7508 99.1991 41.6208 95.4191C40.8108 92.6591 36.3508 90.899 31.0308 90.929C32.0997 90.7749 33.1014 90.3154 33.9156 89.6059C34.7298 88.8963 35.3219 87.9668 35.6208 86.929C36.2808 84.109 34.0008 81.589 31.8708 80.649C30.5132 80.0881 29.008 79.9932 27.5908 80.379Z" fill="#00FFA9"/>
<path d="M18.2098 86.759H-7.74023V89.359H18.2098V86.759Z" fill="#754C24"/>
<path d="M18.8698 92.819C21.1396 92.819 22.9798 90.5937 22.9798 87.8489C22.9798 85.104 21.1396 82.8789 18.8698 82.8789C16.5999 82.8789 14.7598 85.104 14.7598 87.8489C14.7598 90.5937 16.5999 92.819 18.8698 92.819Z" fill="#00FFA9"/>
<path d="M28.3706 38.3793C32.8506 35.1493 34.8006 30.6293 33.5306 28.0593C31.9106 24.8093 25.1406 24.7893 21.0706 27.2193C16.6806 29.8393 15.6006 35.2193 14.5006 40.7193C13.6686 43.9417 13.4985 47.2994 14.0006 50.5893C14.5106 53.5093 15.5706 59.5293 20.8506 62.6793C25.8506 65.6793 31.3806 64.0193 32.3706 63.6793C37.5406 62.0893 43.5006 57.2293 42.3706 53.4493C41.5606 50.6893 37.1006 48.9293 31.7806 48.9493C32.85 48.7963 33.8523 48.3373 34.6667 47.6276C35.4811 46.9179 36.0729 45.9877 36.3706 44.9493C37.0206 42.1293 34.7506 39.6093 32.6206 38.6693C31.2751 38.1048 29.7803 38.0028 28.3706 38.3793Z" fill="#00FFA9"/>
<path d="M18.9891 44.759H-6.96094V47.359H18.9891V44.759Z" fill="#754C24"/>
<path d="M19.6393 50.8092C21.9092 50.8092 23.7493 48.5841 23.7493 45.8392C23.7493 43.0944 21.9092 40.8691 19.6393 40.8691C17.3694 40.8691 15.5293 43.0944 15.5293 45.8392C15.5293 48.5841 17.3694 50.8092 19.6393 50.8092Z" fill="#00FFA9"/>
</svg>
