<svg width="108" height="69" viewBox="0 0 108 69" fill="none" xmlns="http://www.w3.org/2000/svg">
<path d="M36.6995 67.1891C41.0995 62.1891 31.1195 60.1891 32.1195 54.1891C31.7095 52.4591 31.0595 50.1091 32.1895 47.6291C32.7344 46.5605 33.5004 45.62 34.4366 44.87C35.3728 44.1201 36.4577 43.5777 37.6195 43.2791C39.4775 42.7405 41.4653 42.8678 43.2395 43.6391C46.0895 44.9591 47.1495 47.6391 47.7695 49.2491C48.2195 50.4291 49.3995 53.4291 48.2895 56.5091C47.7595 58.8391 43.7695 60.1691 45.0995 63.5091C47.0995 68.1691 53.7495 67.5091 56.5995 63.2391C58.2725 61.6992 59.5312 59.7631 60.2595 57.6091C61.0195 55.2791 60.8995 53.1291 60.6195 48.9091C60.3295 44.4191 59.7495 42.4891 60.6195 42.0291C61.4895 41.5691 62.8795 42.5991 63.6995 43.6591C64.1395 44.2291 65.0395 45.6591 64.4295 50.7191C63.8595 55.4191 62.9095 55.6191 63.3395 57.6091C63.4695 58.1891 63.7995 59.2791 67.6895 63.6091C69.3595 65.4491 70.8195 66.9291 71.8595 67.9491C74.1685 68.715 76.6724 68.6514 78.9395 67.7691C80.3895 66.1891 83.0495 67.5191 82.3895 62.8591C81.7195 60.8591 79.7195 60.1991 78.1995 59.0791C77.4214 58.1663 76.9739 57.0177 76.9295 55.8191C76.4505 51.9672 76.4505 48.0709 76.9295 44.2191C77.3295 40.3291 77.5795 39.4991 78.1995 38.6091C79.3303 37.1128 80.9222 36.0305 82.7295 35.5291C84.2955 35.004 85.9735 34.9073 87.5895 35.2491C89.9008 35.68 92.2402 35.944 94.5895 36.0391C98.9795 36.2291 109.639 36.2291 107.109 28.5191C106.715 27.5977 106.122 26.7744 105.374 26.1073C104.626 25.4403 103.74 24.9459 102.779 24.6591C102.419 23.9891 101.939 23.0491 101.329 21.9391C99.9195 19.3991 99.5595 18.9991 99.1495 18.6791C98.0461 17.9007 96.6848 17.5782 95.3495 17.7791C95.8595 13.8891 95.1995 12.5891 94.4395 12.1591C93.6795 11.7291 92.7495 12.3191 90.0895 12.6991C88.6565 12.9751 87.1903 13.0358 85.7395 12.8791C82.9795 12.4391 82.8595 10.7691 79.0395 8.87908C77.3198 7.91123 75.4 7.35342 73.4295 7.24908C72.0495 7.24908 71.7795 7.48908 67.6295 8.51908C62.6295 9.76908 61.6295 9.68908 61.1095 9.60908C59.4095 9.34908 58.7795 8.68908 56.0295 7.06908C53.5919 5.6129 51.048 4.34262 48.4195 3.26908C45.9595 2.26908 44.1595 2.09908 38.0995 1.63908C33.5595 1.28908 30.1695 1.02908 27.7895 0.879078C20.4095 0.249078 13.0895 2.24907 8.16946 7.96907C6.94684 9.24153 5.84852 10.6278 4.88946 12.1091C3.07969 14.8745 1.81376 17.9596 1.15946 21.1991C0.373931 24.5334 0.373931 28.0047 1.15946 31.3391C1.52946 32.7491 1.99946 33.8791 2.96946 37.4991C3.76946 40.4491 4.15946 41.9391 4.05946 42.9291C3.76946 45.8091 2.05946 46.0791 1.33946 49.6391C0.965235 51.2476 0.965235 52.9206 1.33946 54.5291C1.91946 56.8291 2.83946 56.7291 4.23946 59.7791C4.30784 61.2599 4.74097 62.701 5.50035 63.9742C6.25973 65.2474 7.32186 66.3132 8.59235 67.0771C9.86284 67.841 11.3024 68.2792 12.783 68.3528C14.2636 68.4264 15.7395 68.1332 17.0795 67.4991C21.7395 65.4991 17.0795 60.1791 14.9295 57.7891C13.9295 55.4491 15.2195 52.7291 16.3795 50.3591C17.2695 48.5191 17.7595 47.5091 18.5495 47.4691C19.3395 47.4291 20.3995 48.4691 21.1695 50.0491C22.0479 51.8397 22.4443 53.8285 22.3195 55.8191C18.4095 62.1691 25.7395 68.1691 32.3195 68.4891C33.1 68.6571 33.9102 68.6261 34.6756 68.3989C35.441 68.1718 36.137 67.7557 36.6995 67.1891Z" fill="#F9C6CA"/>
<path d="M92.1703 25.299C91.6603 23.809 93.3503 21.629 95.1703 21.729C95.708 21.7714 96.2191 21.9799 96.633 22.3257C97.0469 22.6715 97.343 23.1375 97.4803 23.659C97.5752 24.0195 97.5752 24.3985 97.4803 24.759C97.3993 25.0558 97.2818 25.3413 97.1303 25.609C96.918 25.9427 96.6388 26.2287 96.3103 26.449C95.9643 26.6505 95.5814 26.7807 95.1842 26.8319C94.787 26.8831 94.3837 26.8542 93.9978 26.7471C93.612 26.6399 93.2515 26.4565 92.9376 26.2079C92.6238 25.9592 92.3629 25.6501 92.1703 25.299Z" fill="white"/>
<path d="M95.8804 26.569C95.4663 26.3337 95.1267 25.9868 94.9004 25.5677C94.6741 25.1486 94.5701 24.6744 94.6004 24.1991C94.547 23.7293 94.6243 23.2538 94.8236 22.8251C95.023 22.3964 95.3368 22.0309 95.7304 21.769C96.2705 21.914 96.745 22.2387 97.0759 22.6895C97.4067 23.1403 97.5741 23.6904 97.5504 24.249C97.5504 24.249 97.5504 24.379 97.5504 24.399C97.5568 24.4989 97.5568 24.5992 97.5504 24.6991C97.5004 24.9788 97.3913 25.2447 97.2304 25.479C97.0372 25.7815 96.7937 26.0486 96.5104 26.269C96.4204 26.339 96.2804 26.399 96.2104 26.459C96.1063 26.5113 95.9951 26.5483 95.8804 26.569Z" fill="black" stroke="black" stroke-miterlimit="10"/>
</svg>
