<svg xmlns="http://www.w3.org/2000/svg" viewBox="0 0 1331.06 1304.28"><defs><style>.cls-1{fill:#f9c6ca;}.cls-2{fill:#fff;}</style></defs><g id="Layer_2" data-name="Layer 2"><g id="Layer_4" data-name="Layer 4"><path class="cls-1" d="M1007,135.73c-7.67-17.67-22.52-34.8-23.23-64.59S997,16.43,1009.11,0c5.7,0,38.84.76,63.91,27.73,29.17,31.39,22.52,71.53,21.7,76a262.57,262.57,0,0,1,43.41-3.62c92.19,0,193.93,49,192.93,92.85-.41,18-18,30.86-30.15,39.79-67.68,49.63-164.82,7-174.84,2.41-5.67,16.6-14.58,43.58-24.11,77.17-64.92,228.82-61.12,420.27-57.33,610.6,1.07,54.17,4,116.94,13.74,192.43,5.35,41.23,11.31,75.13,15.71,98.18a86.64,86.64,0,0,1,39.27,23.56c23.59,24.94,23.71,55.86,23.57,62.83L1025,1303.83a361.39,361.39,0,0,0-11.78-60.87c-7.25-25.47-38.26-134.4-141.38-200.29-66-42.18-129.05-45.91-182.61-49.08-85.59-5.07-217.71,9.77-239.56,68.72-1.9,5.13-10.9,32-7.85,66.76,1,11.26,2,23.09,7.85,37.31,6.74,16.42,14.15,22.11,43.2,58.91,17.67,22.39,20.28,27.06,19.64,33.38-1.87,18.31-28.9,29.2-39.28,33.38-13.22,5.33-60.74,24.47-102.1-3.93-26.88-18.45-41.48-50.32-41.24-78.54.31-34.75,23-46.19,19.64-74.62-3.17-27-27.06-46.49-47.13-58.9A97.69,97.69,0,0,0,269,1107.47c-17.55,27.25-24.56,69.71-5.89,90.33,9.73,10.75,17.79,6,29.45,19.63,15.75,18.41,14,42.19,13.75,45.17-.62,7-1.9,21.59-11.78,31.41-26.1,26-88.25-4.89-98.18-9.81-19.86-9.85-41-20.34-47.13-41.24-5.3-18.07,5.69-26.57,0-47.13-6-21.82-20.64-20.2-31.41-41.23-19.84-38.7,5.93-90.39,9.81-98.18,12.17-24.4,20.5-23.68,25.53-41.24,10.22-35.69-15.24-70.16-25.53-88.36-20.23-35.77-32-97.37,9.82-210.1-12-1.44-62.11-8.84-100.14-53C5.18,626.38.85,585.09,0,571.41l29.64,36.8C26.11,603.94,3,575,10.22,536.66c4.52-23.89,18.5-39.11,24.53-45,.8,22.26,7.41,37.35,12.27,46,17,30.33,48.67,45.6,66.44,54.18,21.87,10.56,30,9.76,42.93,21.46,14.35,13,21.08,29.15,24.53,40.89a337.92,337.92,0,0,1,62.35-51.11C362.66,527.23,519,535.63,633.73,589.81a416.72,416.72,0,0,1,94,61.33,43.83,43.83,0,0,0,18,8.35c4.2.84,18.21,2.94,39-9.74,44.39-27.11,66.8-75.15,66.8-75.15,49.18-105.41,80.72-160.5,116.9-244.93C1009.32,234.24,1027.13,182,1007,135.73Z"/><path class="cls-2" d="M1164.33,186.06c-8.78,1.57-15.73-1.61-21.65-4.33-5.4-2.47-12.13-5.55-17.19-13-1.78-2.61-7.38-10.84-5.38-20.85,2.27-11.4,12.79-17,16.78-19.16,1.88-1,17.61-9.08,34.37-1.33,2.43,1.12,19.87,9.52,20.74,26,.69,13.19-9.76,22.42-12.46,24.8A30.92,30.92,0,0,1,1164.33,186.06Z"/><path d="M1188.73,167.05c1.4-2.89,3.66-7.53,3.27-13.67-.77-12.06-11.12-19.84-14.72-22.55-2.15-1.61-3.22-2.42-4.33-2.58-6.25-.9-19.25,7.34-25.28,19.34-6.57,13.06-5.72,30.24-.15,36.26,4.2,4.54,12.84,2.93,17.56,2.05C1180.7,183,1187.72,169.13,1188.73,167.05Z"/></g></g></svg>