<?xml version="1.0" encoding="utf-8"?>
<!-- Generator: Adobe Illustrator 25.0.1, SVG Export Plug-In . SVG Version: 6.00 Build 0)  -->
<svg version="1.1" id="Layer_1" xmlns="http://www.w3.org/2000/svg" xmlns:xlink="http://www.w3.org/1999/xlink" x="0px" y="0px"
	 viewBox="0 0 1806.9 1694" style="enable-background:new 0 0 1806.9 1694;" xml:space="preserve">
<style type="text/css">
	.st0{fill:#F9C6CA;}
	.st1{fill:#FFFFFF;}
	.st2{stroke:#000000;stroke-width:10;stroke-miterlimit:10;}
</style>
<g id="Layer_1_1_">
	<g id="Layer_2_1_">
		<g id="Layer_2-2">
			<path class="st0" d="M4,374.8c3.9-19.2,14.6-31.5,20-37.4c19.7-22,44.8-28.1,54.8-29.9c0.3-15.5,3.7-30.7,10-44.9
				c4.2-9.3,21.4-47.9,59.8-57.3c11.5-2.7,23.4-2.7,34.9,0c-2.8-5.6-12.7-27.2-5-52.3c4.2-13.8,16.5-38,34.9-39.9
				c16.1-1.6,20.6,15.6,47.4,22.4c12.6,3.2,22,2.1,39.9,0c11.7-1.4,37-4.6,64.8-17.4c46.3-21.4,42.2-43.1,79.7-57.3
				c28.7-10.8,55.1-7.3,72.3-5c39.3,5.3,44.7,19.2,94.7,29.9c28.5,6.1,44.3,9.5,64.8,5c29.1-6.4,37-22,69.8-39.9
				c23.5-12.8,41.9-16.9,77.3-24.9c160.2-36.2,284-25,284-25c174.7,15.9,297.2,85.8,329,104.7c48.3,28.8,157.6,101.2,246.8,236.8
				c0,0,112.2,170.5,124.6,363.9c18.7,292-218.4,613.4-598.2,785.1c15.8,12.8,28.6,29,37.4,47.4c33.8,71.2-9.7,145.9-14.9,154.5
				c-18.7-3-48.4-10.8-77.3-32.4c-66.6-49.9-71.7-131.3-72.3-144.6c-20.2,10.5-42.2,17.3-64.8,19.9c-95.2,11-166.5-57-179.5-69.8
				c11.8-19.8,32-45.8,64.8-62.3c64.5-32.5,151.1-14.6,219.3,44.9c14.4-16.6,27.7-34.1,39.9-52.3c87.3-131.1,91.4-267.4,92.2-311.6
				c1.1-63,3.7-211-99.7-346.4c-71.5-93.8-160.6-138-206.9-157c-19.7,13.9-50,40-69.8,82.2c-11.7,25-29.6,63.2-15,97.2
				c10.6,24.7,27.6,22.3,42.4,52.3c3.8,7.7,22.2,45.1,5,74.8c-17.7,30.5-61,32-74.8,32.4c-36.7,1.2-64.2-14.8-72.3-19.9
				c-77.8-49.2-79.7-172.2-79.8-189.4c-0.2-84.4,34.9-139.2,15-152c-11.8-7.6-36.4,3.8-49.8,19.9c-14,16.9-15,38-5,132.1
				c7.4,69.1,11.1,87.7-2.5,107.2c-12,17.1-21.6,12.4-47.3,37.4c-30.1,29.2-24.4,42.8-47.4,62.3c-35.1,29.7-82.2,26.3-94.7,24.9
				c-19.2-2.1-63.2-7-77.3-39.9c-13.6-31.8,11.3-65.7,12.5-67.3c15.4-20.3,34.8-21.7,49.9-29.9c37.3-20.4,38.5-77.4,34.9-147
				c-2.6-50.6,2.2-112.5-32.4-149.5c-8-8.5-39.4-42.1-87.2-49.9c-31.9-5.1-41.4,6.1-97.2,15c-66.9,10.7-117.4,4.8-144.6,0
				c-41.9-7.4-78.9-14.5-97.2-44.9C7.1,418.2-0.6,397.8,4,374.8z"/>
		</g>
	</g>
</g>
<g id="Layer_2_2_">
	<path class="st1" d="M210.9,291.3c-4.6-23.6-44.3-41-67.8-25.3c-7.9,4.6-12.6,11-15.8,19c-3.1,7.9-3.1,17.3-1.5,25.3
		c1.5,6.4,4.6,11,7.9,15.8c3.1,3.1,7.9,6.4,11,9.4c4.6,3.1,11,4.6,17.3,4.6s12.6-1.5,19-3.1c6.4-3.1,11-6.4,15.8-11
		c4.6-4.6,7.9-9.4,9.4-15.8C209.4,303.9,210.9,297.6,210.9,291.3z"/>
	<path class="st2" d="M172.1,339.2c3.1-6.4,6.4-14.1,6.4-22c0-8-3.1-14.1-6.4-20.5c-3.1-6.4-7.9-12.6-14.1-17.3
		c-6.4-4.6-12.6-6.4-20.5-7.9c-6.4,6.4-11,14.1-11,23.6c-1.5,9.4,1.5,17.3,6.4,25.3l1.5,1.5c1.5,1.5,1.5,1.5,3.1,3.1
		c3.1,3.1,6.4,6.4,11,7.9c4.6,3.1,11,4.6,15.8,4.6h6.4C169,339.2,170.5,339.2,172.1,339.2z"/>
</g>
</svg>
