<svg width="221" height="117" viewBox="0 0 221 117" fill="none" xmlns="http://www.w3.org/2000/svg">
<path d="M20.4103 93.839C35.6403 84.619 48.4103 60.979 45.1203 41.979C42.2402 25.6189 28.8202 20.979 30.8403 11.979C32.9702 2.51895 49.6003 0.148982 58.3403 0.258982C74.8403 0.468982 87.9502 9.82897 94.0602 14.309C111.23 26.879 113.54 37.609 122.68 36.839C132.99 35.949 134.68 21.839 144.99 21.669C152.99 21.529 159.3 29.769 167.57 40.529C180.69 57.599 178.86 65.139 186.89 69.529C200.28 76.879 214.22 60.819 219.14 67.709C222.63 72.569 218.41 84.389 214.74 94.709C212.04 102.279 208.84 112.249 206.52 116.149C144.17 116.979 81.9503 113.649 19.6003 114.469C10.0703 110.929 -0.109733 106.329 0.200267 102.469C0.510267 98.609 10.2003 100.019 20.4103 93.839Z" fill="#FF0020"/>
<path d="M148.81 116.459C148.61 110.889 148.03 101.459 147.29 92.1688C146.03 76.5088 144.29 71.9688 141.29 68.1688C136.58 62.1688 130.46 60.2488 119.29 56.8488C104.83 52.4388 92.2302 48.5888 86.6602 54.1888C80.1802 60.6988 90.3302 72.8588 86.6602 84.8188C83.4102 95.3988 69.1302 106.439 23.4102 110.819C27.3635 112.319 31.2668 113.756 35.1201 115.129C73.0001 118.939 110.92 115.439 148.81 116.459Z" fill="black"/>
</svg>
