<svg width="172" height="292" viewBox="0 0 172 292" fill="none" xmlns="http://www.w3.org/2000/svg">
<path d="M25.1602 207.009V85.1588C25.1602 69.3546 31.4384 54.1976 42.6136 43.0223C53.7889 31.847 68.9459 25.5688 84.7501 25.5688H100C115.804 25.5688 130.961 31.847 142.137 43.0223C153.312 54.1976 159.59 69.3546 159.59 85.1588V207.009C159.59 222.813 153.312 237.97 142.137 249.145C130.961 260.321 115.804 266.599 100 266.599H84.7802C76.9522 266.603 69.2001 265.064 61.9668 262.071C54.7335 259.078 48.1609 254.69 42.6243 249.156C37.0876 243.622 32.6955 237.052 29.699 229.82C26.7024 222.588 25.1602 214.837 25.1602 207.009V207.009Z" stroke="#F7EFE2" stroke-width="50" stroke-miterlimit="10"/>
<path d="M32.5898 193.689V99.1388C32.5898 91.3134 34.1312 83.5645 37.1259 76.3347C40.1205 69.1049 44.5099 62.5358 50.0433 57.0023C55.5768 51.4689 62.1459 47.0795 69.3757 44.0848C76.6055 41.0902 84.3545 39.5488 92.1799 39.5488C100.005 39.5488 107.754 41.0902 114.984 44.0848C122.214 47.0795 128.783 51.4689 134.316 57.0023C139.85 62.5358 144.239 69.1049 147.234 76.3347C150.229 83.5645 151.77 91.3134 151.77 99.1388V193.689C151.771 201.515 150.231 209.265 147.237 216.496C144.243 223.727 139.854 230.297 134.32 235.832C128.786 241.366 122.217 245.757 114.986 248.752C107.756 251.747 100.006 253.289 92.1799 253.289C84.3536 253.289 76.6039 251.747 69.3734 248.752C62.143 245.757 55.5734 241.366 50.0398 235.832C44.5062 230.297 40.1171 223.727 37.123 216.496C34.129 209.265 32.5885 201.515 32.5898 193.689V193.689Z" stroke="#00FFA9" stroke-width="50" stroke-miterlimit="10"/>
</svg>
