<svg width="299" height="108" viewBox="0 0 299 108" fill="none" xmlns="http://www.w3.org/2000/svg">
<path d="M0.790225 62.6488C3.84023 52.2988 15.8702 51.1388 21.7302 38.9988C34.8402 11.8888 48.7302 29.3888 51.5602 17.3088C53.0402 11.0288 54.9902 7.80879 58.2202 4.90879C65.3502 -1.5212 85.7902 7.64879 112.56 12.7988C120.27 14.2788 131.99 17.3088 167.36 13.0088C177.25 11.8088 180.51 6.13879 192.42 3.38879C199.84 1.66879 220.42 -3.08121 227.93 5.91879C232.36 11.1988 228.36 16.5088 231.59 22.6288C235.66 30.3588 253.91 21.7188 265.3 21.8288C271.73 21.8888 282.06 28.3388 287.44 31.7688C306.15 43.7088 298.67 86.8188 280.15 102.159C272.96 108.109 262.74 109.809 223.23 102.659C170.37 93.0988 165.82 85.9088 140.23 82.3988C73.7202 73.2988 34.3802 112.189 10.7302 90.4988C3.72023 84.1088 -2.05977 72.2688 0.790225 62.6488Z" fill="white"/>
<path d="M223.02 33.9392C232.006 33.9392 239.29 27.1608 239.29 18.7992C239.29 10.4376 232.006 3.65918 223.02 3.65918C214.034 3.65918 206.75 10.4376 206.75 18.7992C206.75 27.1608 214.034 33.9392 223.02 33.9392Z" fill="#0097DD"/>
<path d="M214.87 20.499C214.96 26.319 223.58 31.7491 229.68 29.069C231.495 28.2344 233.005 26.8566 234.003 25.1261C235.001 23.3956 235.437 21.3979 235.25 19.409C235.124 18.0294 234.649 16.7044 233.87 15.559C233.215 14.6349 232.442 13.801 231.57 13.079C230.421 12.1836 229.09 11.552 227.67 11.2291C221.52 9.86905 214.8 15.299 214.87 20.499Z" fill="white"/>
<path d="M226.101 11.3089C223.981 13.1589 223.311 17.1489 224.661 21.1889C226.011 25.2289 228.881 27.9389 231.661 28.1889C234.661 25.4789 237.001 21.1289 234.851 17.1889C234.851 17.1189 234.641 16.7389 234.621 16.6789C234.455 16.3321 234.265 15.9978 234.051 15.6789C233.541 14.7674 232.833 13.9816 231.981 13.3789C230.924 12.572 229.737 11.9529 228.471 11.5489C228.081 11.4389 227.531 11.3889 227.181 11.2689C226.82 11.2361 226.457 11.2496 226.101 11.3089Z" fill="black" stroke="black" stroke-miterlimit="10"/>
<path d="M258.719 33.9392C267.705 33.9392 274.989 27.1608 274.989 18.7992C274.989 10.4376 267.705 3.65918 258.719 3.65918C249.734 3.65918 242.449 10.4376 242.449 18.7992C242.449 27.1608 249.734 33.9392 258.719 33.9392Z" fill="#0097DD"/>
<path d="M250.62 20.9991C250.7 26.8191 259.32 32.2391 265.42 29.5691C267.235 28.7345 268.746 27.3567 269.743 25.6262C270.741 23.8957 271.177 21.8979 270.99 19.9091C270.866 18.529 270.391 17.2037 269.61 16.0591C268.959 15.1353 268.189 14.3015 267.32 13.5791C266.166 12.6843 264.832 12.0498 263.41 11.7191C257.27 10.3791 250.54 15.7891 250.62 20.9991Z" fill="white"/>
<path d="M261.84 11.8092C259.73 13.6492 259.05 17.6493 260.4 21.6893C261.75 25.7293 264.62 28.4393 267.4 28.6893C270.4 25.9693 272.73 21.6293 270.58 17.6893C270.494 17.524 270.417 17.3537 270.35 17.1793C270.183 16.8336 269.992 16.4996 269.78 16.1793C269.267 15.273 268.56 14.491 267.71 13.8893C266.655 13.0803 265.468 12.461 264.2 12.0592C263.82 11.9392 263.26 11.8892 262.92 11.7792C262.561 11.7387 262.197 11.7488 261.84 11.8092Z" fill="black" stroke="black" stroke-miterlimit="10"/>
<path d="M219.4 38.459C223.483 41.3389 228.111 43.3535 233 44.379C246.84 47.209 258 40.839 261 38.959C260.026 40.638 258.806 42.1616 257.38 43.479C250.01 50.249 237.74 50.479 228.91 46.189C225.202 44.3564 221.952 41.7148 219.4 38.459Z" fill="#FF0020"/>
<path d="M168.06 42.629L167.75 42.519C167.75 42.519 167.75 42.579 167.75 42.609C168.45 43.009 168.5 43.009 168.06 42.629Z" fill="#6DFC6D"/>
<path d="M175.551 41.119C175.593 41.0918 175.63 41.058 175.661 41.019C175.619 41.0469 175.582 41.0806 175.551 41.119Z" fill="#6DFC6D"/>
<path d="M167.449 42.3789L167.789 42.5789C167.789 42.5789 167.789 42.5189 167.789 42.4889L167.449 42.3789Z" fill="#6DFC6D"/>
<path d="M167.551 42.1792L167.751 42.5192L168.061 42.6292L167.551 42.1792Z" fill="#6DFC6D"/>
<path d="M171.56 28.379C178.56 34.529 185.42 41.199 193.65 45.719C195.07 46.499 196.23 44.269 194.81 43.489C186.81 39.079 180.11 32.489 173.28 26.489C172.05 25.429 170.34 27.269 171.56 28.339V28.379Z" fill="#FF00BD" stroke="#FF00BD" stroke-width="0.5" stroke-miterlimit="10"/>
<path d="M193.999 45.879L202.159 55.259C202.403 55.487 202.728 55.6087 203.062 55.5974C203.396 55.5862 203.711 55.4429 203.939 55.199C204.16 54.9515 204.277 54.6285 204.266 54.297C204.255 53.9656 204.116 53.6511 203.879 53.419C201.149 50.289 198.439 47.159 195.719 44.029C195.475 43.8011 195.151 43.6794 194.817 43.6907C194.483 43.7019 194.168 43.8452 193.939 44.089C193.716 44.3371 193.597 44.6623 193.608 44.9962C193.619 45.33 193.76 45.6465 193.999 45.879Z" fill="#FF00BD" stroke="#FF00BD" stroke-width="0.5" stroke-miterlimit="10"/>
<path d="M195.52 46.8293C199.76 48.601 204.305 49.5283 208.9 49.5592C210.52 49.5592 210.39 47.0593 208.78 47.0493C204.626 47.0257 200.516 46.1936 196.68 44.5993C196.381 44.4555 196.039 44.4313 195.723 44.5317C195.407 44.6321 195.141 44.8494 194.98 45.1393C194.832 45.4357 194.805 45.7784 194.906 46.0942C195.007 46.4099 195.227 46.6738 195.52 46.8293Z" fill="#FF00BD" stroke="#FF00BD" stroke-width="0.5" stroke-miterlimit="10"/>
<path d="M196.421 45.5391C200.089 44.7756 203.703 43.7734 207.241 42.5391C207.405 42.495 207.559 42.4181 207.693 42.313C207.827 42.2079 207.938 42.0767 208.02 41.9274C208.101 41.7781 208.152 41.6138 208.169 41.4444C208.185 41.2749 208.167 41.1039 208.116 40.9416C208.064 40.7794 207.981 40.6292 207.87 40.5001C207.759 40.3711 207.623 40.2659 207.47 40.1909C207.317 40.1159 207.151 40.0726 206.981 40.0637C206.811 40.0548 206.64 40.0805 206.481 40.1391C202.945 41.378 199.33 42.3803 195.661 43.1391C195.345 43.2402 195.082 43.4618 194.928 43.7557C194.775 44.0496 194.743 44.3921 194.841 44.7091C194.946 45.0244 195.17 45.2868 195.464 45.4414C195.758 45.5961 196.101 45.6311 196.421 45.5391Z" fill="#FF00BD" stroke="#FF00BD" stroke-width="0.5" stroke-miterlimit="10"/>
</svg>
