<svg width="81" height="72" viewBox="0 0 81 72" fill="none" xmlns="http://www.w3.org/2000/svg">
<path d="M80.0695 19.259C78.5437 18.1545 77.0751 16.9729 75.6695 15.719C67.4195 8.28903 68.0195 4.44903 61.5495 1.71903C48.0795 -3.88097 31.2895 6.83903 22.4495 18.659C7.95954 38.059 12.6396 63.429 13.3996 67.279L62.1995 68.5191C62.9995 50.4591 65.6895 31.239 80.0695 19.259Z" fill="#0097DD"/>
<path d="M56.43 16.539C55.15 13.729 58.04 9.16904 61.57 9.04904C62.6325 9.03489 63.6732 9.35169 64.5476 9.95553C65.422 10.5594 66.0869 11.4203 66.45 12.419C66.7005 13.1064 66.7727 13.8461 66.6599 14.569C66.5572 15.1594 66.3791 15.7341 66.13 16.279C65.7807 16.9729 65.2821 17.5808 64.67 18.059C62 20.129 57.58 19.059 56.43 16.539Z" fill="white"/>
<path d="M63.9108 18.379C62.4708 17.979 61.2408 16.209 60.9708 13.969C60.7008 11.729 61.4508 9.76899 62.7208 8.96899C64.7908 9.58899 66.8908 11.139 66.7208 13.509V13.809C66.7361 14.0087 66.7361 14.2093 66.7208 14.409C66.6799 14.9602 66.5196 15.496 66.2509 15.979C65.9263 16.6072 65.4967 17.1754 64.9808 17.659C64.8208 17.799 64.5709 17.949 64.4309 18.089C64.2645 18.1976 64.0907 18.2945 63.9108 18.379Z" fill="black" stroke="black" stroke-miterlimit="10"/>
<path d="M0.477811 69.1003C0.473741 67.5454 0.475167 65.9927 0.67474 64.4474C0.844557 63.1326 1.07616 61.8192 1.35836 60.527C1.45381 60.0899 1.53206 59.1187 1.84666 58.7782C2.02052 58.59 2.44944 58.5352 2.66345 58.4323C3.84273 57.865 4.97395 57.2415 6.19695 56.7796C7.1387 56.4239 9.11046 55.7895 10.13 56.2799C10.2141 56.3204 10.5241 58.5186 10.5561 58.7782C10.662 59.6379 11.1962 60.6719 11.5416 61.4495C11.8542 62.1531 11.9987 62.5182 12.1453 61.5264C12.4905 59.1912 14.009 57.0151 15.9019 55.7713C16.5083 55.3728 15.3973 56.8635 17.2059 58.4323C17.5182 58.8332 19.5875 61.6638 20.2955 61.2381C20.5131 61.1072 20.4982 60.526 20.5441 60.306C20.791 59.1222 21.1987 58.0222 21.6716 56.9237C22.2598 55.5573 23.9756 54.1852 24.4504 52.1481C24.4802 51.9483 24.4802 52.4944 24.699 52.5517C24.8962 53.1917 25.3166 53.7025 25.7378 54.1852C26.4775 55.0329 27.3565 56.1609 28.4101 56.5682C28.9674 56.7836 29.3518 56.1979 29.5263 55.7713C30.0412 54.5121 30.8803 53.3261 31.6329 52.2154C32.5539 50.856 31.5447 50.856 32.7071 53.0513C33.5182 54.5831 34.752 55.8468 35.8056 57.1928C36.3494 57.8874 36.9645 58.7744 37.6967 59.2587C38.0261 59.4765 38.1075 59.1885 38.1938 58.8743C38.5931 57.4208 39.1953 56.0556 39.8274 54.7041C39.9413 54.4605 41.8981 50.5717 42.26 51.1872C42.5194 51.6283 42.6118 52.2348 42.8637 52.7054C43.5899 54.0618 44.4585 55.333 45.4739 56.4529C45.6824 56.6828 47.2458 58.5174 47.7201 57.8462C49.2243 55.7172 50.5997 53.5426 52.3012 51.562C52.3662 51.4864 53.517 50.094 53.6596 50.284C53.909 50.6162 53.6951 51.9597 53.6951 52.3595V56.77C53.6951 57.4062 54.0858 56.8665 54.139 57.0678C54.2927 57.65 53.8189 58.9004 54.5208 59.1049C55.9803 59.5302 56.4638 58.2846 57.5305 57.2216C59.748 55.0117 62.063 52.7991 64.0825 50.3705C64.4103 49.9763 64.7358 49.5332 64.9105 49.0379C64.9797 48.141 65.0414 47.6413 65.0414 48.3046C65.0414 48.5608 64.9926 48.8051 64.9105 49.0379C64.8619 49.6684 64.8096 50.4952 64.7724 51.2522C65.6544 51.5592 67.6695 54.4137 68.2997 54.7809C69.397 55.4205 68.8767 58.4652 68.8767 59.6238C68.8767 59.8411 68.9876 61.7762 68.7702 61.7762C68.3012 61.7762 67.7118 61.4219 67.3142 61.1997C66.1749 60.5628 66.4796 61.3176 66.4796 62.5065V67.0418C66.4796 67.9623 66.5564 68.9434 66.2399 69.8188C65.9939 70.4993 65.2602 70.2836 64.6862 70.2704C64.1772 70.2587 63.7423 70.105 63.2657 69.9245C62.3902 69.5928 61.4815 69.5838 60.5668 69.4921C58.7212 69.3071 56.7917 69.2531 54.938 69.2327C53.2309 69.2138 51.9463 69.2305 50.3391 69.8284C46.937 71.0942 43.34 70.5059 39.7919 70.6259C35.4224 70.7737 31.0555 71.0718 26.6877 71.3082C23.5025 71.4805 20.3452 72 17.1615 72C14.0648 72 11.2454 71.5119 8.27444 70.8277C6.63091 70.4493 4.9184 70.138 3.23165 70.0974C2.66918 70.0839 2.21617 69.7071 1.66909 69.4825C1.39124 69.3684 0.871427 69.2747 0.477811 69.1003Z" fill="#6DFC6D"/>
</svg>
