<svg xmlns="http://www.w3.org/2000/svg" viewBox="0 0 75.84 90.5"><defs><style>.cls-1{fill:#00ffa9;}.cls-2{fill:#fff;}.cls-3{stroke:#000;stroke-miterlimit:10;}</style></defs><g id="Layer_2" data-name="Layer 2"><g id="Layer_1-2" data-name="Layer 1"><path class="cls-1" d="M72.48,81.26c.61-1.1,5.75-10.68,2-15.16C73,64.36,70.76,64,63.92,63.89c-5-.08-11.86,0-20.14.59l.09-15.19a56.61,56.61,0,0,0,18.76-17.6A43.52,43.52,0,0,0,69.8,14.92,41.56,41.56,0,0,0,69.8,0c-12.66,3.54-37.17,12.42-58,35.1A163,163,0,0,0,0,49.12C23.7,58.93,48.67,70.55,63.94,90.5A27.64,27.64,0,0,0,72.48,81.26Z"/><path class="cls-2" d="M45.11,17.4c1,2.93,6.22,4.29,8.87,2a5.15,5.15,0,0,0,1.27-5.79,4.3,4.3,0,0,0-1.32-1.72A7.31,7.31,0,0,0,52.37,11a5.53,5.53,0,0,0-2.28-.31C46.77,11,44.24,14.79,45.11,17.4Z"/><path class="cls-3" d="M49.31,10.94c-.77,1.28-.47,3.41.86,5.23s3.23,2.74,4.67,2.42c1.09-1.86,1.56-4.43-.16-6.06l-.2-.22c-.16-.21-.27-.23-.44-.41a4,4,0,0,0-1.42-.82,6.14,6.14,0,0,0-2.07-.36c-.21,0-.5.06-.69.06A3.19,3.19,0,0,0,49.31,10.94Z"/></g></g></svg>