<svg width="124" height="63" viewBox="0 0 124 63" fill="none" xmlns="http://www.w3.org/2000/svg">
<path d="M1.4707 16.249V61.379C2.8707 61.379 4.27078 61.379 5.67078 61.379V16.249" fill="black"/>
<path d="M1.4707 16.249V61.379C2.8707 61.379 4.27078 61.379 5.67078 61.379V16.249" stroke="black" stroke-miterlimit="10"/>
<path d="M9.31055 13.8691V61.3792C10.7105 61.3792 12.1105 61.3791 13.5005 61.4291V13.8691" fill="black"/>
<path d="M9.31055 13.8691V61.3792C10.7105 61.3792 12.1105 61.3791 13.5005 61.4291V13.8691" stroke="black" stroke-miterlimit="10"/>
<path d="M17.1504 11.499V61.499L21.3503 61.609V11.499" fill="black"/>
<path d="M17.1504 11.499V61.499L21.3503 61.609V11.499" stroke="black" stroke-miterlimit="10"/>
<path d="M25 9.10889V61.7589L29.1899 61.9189V9.10889" fill="black"/>
<path d="M25 9.10889V61.7589L29.1899 61.9189V9.10889" stroke="black" stroke-miterlimit="10"/>
<path d="M32.8301 6.73926V62.0793L37.0302 62.2693V6.73926" fill="black"/>
<path d="M32.8301 6.73926V62.0793L37.0302 62.2693V6.73926" stroke="black" stroke-miterlimit="10"/>
<path d="M40.6699 4.37891V62.2489C42.0699 62.1689 43.4699 62.1189 44.8599 62.0789V4.37891" fill="black"/>
<path d="M40.6699 4.37891V62.2489C42.0699 62.1689 43.4699 62.1189 44.8599 62.0789V4.37891" stroke="black" stroke-miterlimit="10"/>
<path d="M48.5098 1.979V61.979C49.9098 61.979 51.3097 61.979 52.7097 61.979V1.979" fill="black"/>
<path d="M48.5098 1.979V61.979C49.9098 61.979 51.3097 61.979 52.7097 61.979V1.979" stroke="black" stroke-miterlimit="10"/>
<path d="M56.3496 1.12891V62.1289L60.5497 62.2489V0.898926" fill="black"/>
<path d="M56.3496 1.12891V62.1289L60.5497 62.2489V0.898926" stroke="black" stroke-miterlimit="10"/>
<path d="M123.27 16.249V61.379C121.87 61.379 120.47 61.379 119.07 61.379V16.249" fill="black"/>
<path d="M123.27 16.249V61.379C121.87 61.379 120.47 61.379 119.07 61.379V16.249" stroke="black" stroke-miterlimit="10"/>
<path d="M115.421 13.8691V61.3792C114.031 61.3792 112.63 61.3791 111.23 61.4291V13.8691" fill="black"/>
<path d="M115.421 13.8691V61.3792C114.031 61.3792 112.63 61.3791 111.23 61.4291V13.8691" stroke="black" stroke-miterlimit="10"/>
<path d="M107.591 11.499V61.499L103.391 61.609V11.499" fill="black"/>
<path d="M107.591 11.499V61.499L103.391 61.609V11.499" stroke="black" stroke-miterlimit="10"/>
<path d="M99.7407 9.10889V61.7589L95.5508 61.9189V9.10889" fill="black"/>
<path d="M99.7407 9.10889V61.7589L95.5508 61.9189V9.10889" stroke="black" stroke-miterlimit="10"/>
<path d="M91.911 6.73926V62.0793L87.7109 62.2693V6.73926" fill="black"/>
<path d="M91.911 6.73926V62.0793L87.7109 62.2693V6.73926" stroke="black" stroke-miterlimit="10"/>
<path d="M79.8809 4.37891V62.2889H84.0708V4.37891" fill="black"/>
<path d="M79.8809 4.37891V62.2889H84.0708V4.37891" stroke="black" stroke-miterlimit="10"/>
<path d="M72 1.979V62.499C73.4 62.499 74.8 62.499 76.2 62.429V1.979" fill="black"/>
<path d="M72 1.979V62.499C73.4 62.499 74.8 62.499 76.2 62.429V1.979" stroke="black" stroke-miterlimit="10"/>
<path d="M64.1895 0.748901V62.3789C65.5895 62.3789 66.9895 62.4389 68.3895 62.4589V0.648926" fill="black"/>
<path d="M64.1895 0.748901V62.3789C65.5895 62.3789 66.9895 62.4389 68.3895 62.4589V0.648926" stroke="black" stroke-miterlimit="10"/>
</svg>
