<svg width="99" height="51" viewBox="0 0 99 51" fill="none" xmlns="http://www.w3.org/2000/svg">
<path d="M1.30078 13.0591V49.0591C2.41078 49.0591 3.53077 49.0591 4.65077 49.0591V13.0591H1.30078Z" fill="black" stroke="black" stroke-miterlimit="10"/>
<path d="M7.56055 11.1592V49.0292H10.9005V11.1592H7.56055Z" fill="black" stroke="black" stroke-miterlimit="10"/>
<path d="M13.8008 9.26904V49.139L17.1408 49.229V9.229L13.8008 9.26904Z" fill="black" stroke="black" stroke-miterlimit="10"/>
<path d="M20.0508 7.37891V49.3789L23.3908 49.5089V7.37891H20.0508Z" fill="black" stroke="black" stroke-miterlimit="10"/>
<path d="M26.3008 5.46924V49.5792L29.6408 49.7192V5.46924H26.3008Z" fill="black" stroke="black" stroke-miterlimit="10"/>
<path d="M32.5391 3.56909V49.6891C33.6591 49.6291 34.7691 49.5791 35.8891 49.5591V3.55908L32.5391 3.56909Z" fill="black" stroke="black" stroke-miterlimit="10"/>
<path d="M38.8008 49.5392C39.9108 49.5392 41.0308 49.5392 42.1408 49.5392V1.6792H38.8008V49.5392Z" fill="black" stroke="black" stroke-miterlimit="10"/>
<path d="M45 49.6389L48.34 49.7388V0.818848L45 0.99884V49.6389Z" fill="black" stroke="black" stroke-miterlimit="10"/>
<path d="M98.3693 13.0591V49.0591H95.0293V13.0591H98.3693Z" fill="black" stroke="black" stroke-miterlimit="10"/>
<path d="M92.1193 11.1592V49.0292H88.7793V11.1592H92.1193Z" fill="black" stroke="black" stroke-miterlimit="10"/>
<path d="M85.8693 9.26904V49.139L82.5293 49.229V9.229L85.8693 9.26904Z" fill="black" stroke="black" stroke-miterlimit="10"/>
<path d="M79.6293 7.37891V49.3789L76.2793 49.5089V7.37891H79.6293Z" fill="black" stroke="black" stroke-miterlimit="10"/>
<path d="M73.3693 5.46924V49.5792L70.0293 49.7192V5.46924H73.3693Z" fill="black" stroke="black" stroke-miterlimit="10"/>
<path d="M67.1291 49.7189V3.56885H63.7891V49.7189H67.1291Z" fill="black" stroke="black" stroke-miterlimit="10"/>
<path d="M57.5391 49.9092C58.6491 49.9092 59.7691 49.9092 60.8791 49.9092V1.6792H57.5391V49.9092Z" fill="black" stroke="black" stroke-miterlimit="10"/>
<path d="M51.2891 49.8192C52.3991 49.8192 53.5191 49.8792 54.6291 49.8992V0.619141C53.5191 0.619141 52.3991 0.619158 51.2891 0.699158V49.8192Z" fill="black" stroke="black" stroke-miterlimit="10"/>
</svg>
