<svg width="99" height="52" viewBox="0 0 99 52" fill="none" xmlns="http://www.w3.org/2000/svg">
<path d="M0.740234 13.6689V49.669H4.08026V13.6689H0.740234Z" fill="black" stroke="black" stroke-miterlimit="10"/>
<path d="M7 11.769V49.6391H10.34V11.769H7Z" fill="black" stroke="black" stroke-miterlimit="10"/>
<path d="M13.2305 9.8791V49.7491L16.5805 49.8391V9.83911L13.2305 9.8791Z" fill="black" stroke="black" stroke-miterlimit="10"/>
<path d="M19.4805 7.979V49.979L22.8205 50.109V7.96899H19.4805V7.979Z" fill="black" stroke="black" stroke-miterlimit="10"/>
<path d="M25.7207 6.0791V50.1891L29.0707 50.3291V6.0791H25.7207Z" fill="black" stroke="black" stroke-miterlimit="10"/>
<path d="M32 4.17896V50.299C33.11 50.239 34.23 50.189 35.34 50.169V4.16895L32 4.17896Z" fill="black" stroke="black" stroke-miterlimit="10"/>
<path d="M38.2207 50.149C39.3307 50.149 40.4507 50.149 41.5607 50.149V2.28906H38.2207V50.149Z" fill="black" stroke="black" stroke-miterlimit="10"/>
<path d="M44.4707 50.2492L47.8207 50.3492V1.4292L44.4707 1.60919V50.2492Z" fill="black" stroke="black" stroke-miterlimit="10"/>
<path d="M97.7992 13.6689V49.669H94.4492V13.6689H97.7992Z" fill="black" stroke="black" stroke-miterlimit="10"/>
<path d="M91.5509 11.769V49.6391H88.2109V11.769H91.5509Z" fill="black" stroke="black" stroke-miterlimit="10"/>
<path d="M85.3009 9.8791V49.7491L81.9609 49.8391V9.83911L85.3009 9.8791Z" fill="black" stroke="black" stroke-miterlimit="10"/>
<path d="M79.0509 7.979V49.979L75.7109 50.109V7.96899H79.0509V7.979Z" fill="black" stroke="black" stroke-miterlimit="10"/>
<path d="M72.8109 6.0791V50.1891L69.4609 50.3291V6.0791H72.8109Z" fill="black" stroke="black" stroke-miterlimit="10"/>
<path d="M66.5607 50.3792V4.1792H63.2207V50.3792H66.5607Z" fill="black" stroke="black" stroke-miterlimit="10"/>
<path d="M57 50.5191C58.11 50.5191 59.23 50.5191 60.34 50.4691V2.28906H57V50.5191Z" fill="black" stroke="black" stroke-miterlimit="10"/>
<path d="M50.7207 50.429C51.8307 50.429 52.9507 50.489 54.0607 50.509V1.229C52.9507 1.229 51.8307 1.22899 50.7207 1.30899V50.429Z" fill="black" stroke="black" stroke-miterlimit="10"/>
</svg>
