<?xml version="1.0" encoding="utf-8"?>
<!-- Generator: Adobe Illustrator 25.0.1, SVG Export Plug-In . SVG Version: 6.00 Build 0)  -->
<svg version="1.1" id="Layer_1" xmlns="http://www.w3.org/2000/svg" xmlns:xlink="http://www.w3.org/1999/xlink" x="0px" y="0px"
	 viewBox="0 0 144 213" style="enable-background:new 0 0 144 213;" xml:space="preserve">
<style type="text/css">
	.st0{fill:#00FFFF;}
	.st1{fill:#FFFFFF;}
	.st2{stroke:#000000;stroke-miterlimit:10;}
</style>
<path class="st0" d="M130.9,138.6c-1.8-1.3-3.7-2.3-5.7-3.2c1.2,3.4,1.9,7,2.2,10.6c0.4,7.9,0.4,14.3,0.4,18.8
	c-0.2,15.7-1.5,23,1.2,34c0.9,3.6,2.1,7.1,3.5,10.6c-6.8,1.6-14.5,2.8-16,0c-1.3-2.4,2.7-6.3,5.1-9.8c11.3-16.9-0.6-47.6-4.7-47.3
	c-2.7,0.2-4.7,13.9-4.7,57.8c-5,1.4-11.2,2.5-12.9,0c-1.8-2.7,2.7-8.4,4.7-11.3c5-7.6,9-20.9,3.1-46.1H77.3c-1.7,16-1.4,32.1,0.8,48
	c0.5,3.2,1,6.3,1.6,9.4c-5.5,1.4-11.8,2.4-13.3,0c-1.5-2.4,2.7-7.1,4.3-9.4c5-6.9,7.2-20.2-4.3-48c-8.7,25.5-7.2,39.1-3.9,46.9
	c0.9,2.2,3.4,7.4,1.2,10.6c-2.8,3.9-12.1,3.6-13.7,0.4c-1.3-2.6,3-6.2,5.5-10.6c6-10.5,0.5-17.8-1.6-46.5
	c-0.9-12.8-0.1-15.2-1.6-28.5c-0.6-5.2-1.3-9.7-2.7-18.8c-2.1-13.5-3.2-20.2-5.1-27.7c-1.9-7.6-3.7-12.5-6.2-20.3
	C32,39,36.7,53.4,32,39c-0.5-1.7-1.7-4.3-3.5-5.1c-3-1.3-8.1,3.1-15.2,6.2C8.1,42.4,3,44.6,1.1,42.9c-2.7-2.6,2.3-13.3,9-19.9
	c2.9-3,6.6-5.3,10.5-6.6c2-0.7,4.1-1.2,6.2-1.3L26.6,0.3l5.9,0.8c-0.9,4-1.8,8-2.6,12c2.6-2.5,6.9-5,12.4-6.9c0.8,3,0.6,6.1-0.4,9
	c-1.1,2.9-2.9,5.4-5.3,7.3c0.6,1.3,1.1,2.6,1.4,3.6c4.3,11.6,4.8,10.6,14.5,29.7c11.7,23.1,20.1,44.9,22.3,53.1
	c5.6,0.3,11.2,1.5,16.4,3.5c9.4,3.7,22.9,8.8,28.5,14.1c1.4,1.3,2.6,2.8,3.5,4.5c0.5,0.2,1,0.4,1.5,0.6c11.5,4.9,16.7,16,18.7,21.1
	C139.4,148.3,137.1,142.9,130.9,138.6z"/>
<path class="st1" d="M24.8,20.8c-1.3-2-5.5-2-7,0.3c-0.4,0.7-0.7,1.5-0.6,2.3c0,0.8,0.3,1.6,0.8,2.2c0.3,0.4,0.8,0.8,1.3,1
	c0.4,0.2,0.9,0.3,1.3,0.4c0.6,0.1,1.2,0,1.8-0.2C24.8,25.9,26,22.5,24.8,20.8z"/>
<path class="st2" d="M22.9,26.4c0.1-0.7,0-1.4-0.3-2.1c-0.3-0.7-0.8-1.2-1.4-1.6c-0.5-0.5-1.2-0.8-1.9-1s-1.4-0.1-2.1,0.1
	c-0.4,1.6-0.3,3.6,1.3,4.5l0.2,0.1c0.1,0.1,0.3,0.1,0.4,0.2c0.4,0.2,0.8,0.3,1.2,0.3c0.5,0,1.1,0,1.6-0.1c0.2-0.1,0.4-0.1,0.5-0.2
	C22.7,26.6,22.8,26.5,22.9,26.4z"/>
</svg>
