<svg width="144" height="213" viewBox="0 0 144 213" fill="none" xmlns="http://www.w3.org/2000/svg">
<path d="M130.85 138.572C129.078 137.297 127.166 136.23 125.15 135.392C126.339 138.815 127.075 142.379 127.34 145.992C127.75 153.872 127.78 160.322 127.73 164.742C127.57 180.452 126.25 187.742 128.9 198.742C129.773 202.352 130.951 205.881 132.42 209.292C125.67 210.882 117.89 212.082 116.42 209.292C115.14 206.912 119.16 202.992 121.5 199.522C132.82 182.662 120.88 151.912 116.81 152.252C114.15 152.482 112.08 166.152 112.12 210.072C107.12 211.442 100.87 212.572 99.2298 210.072C97.4498 207.352 101.95 201.702 103.92 198.742C108.92 191.142 112.92 177.792 107.04 152.642H77.3399C75.6352 168.614 75.8971 184.734 78.1198 200.642C78.5698 203.852 79.1198 206.982 79.6798 210.022C74.1998 211.412 67.8499 212.452 66.3999 210.022C64.9499 207.592 69.0798 202.912 70.6998 200.642C75.6998 193.702 77.9199 180.402 66.3999 152.642C57.7299 178.142 59.2498 191.752 62.4898 199.522C63.3998 201.692 65.8999 206.902 63.6599 210.072C60.8899 213.972 51.6098 213.702 49.9898 210.462C48.6798 207.832 52.9899 204.292 55.4599 199.912C61.5099 189.422 55.9099 182.132 53.8999 153.432C52.9999 140.682 53.8298 138.212 52.3298 124.912C51.7498 119.692 51.0299 115.182 49.5899 106.162C47.4599 92.7022 46.3898 85.9823 44.5098 78.4323C42.6298 70.8822 40.8198 65.9422 38.2598 58.1122C32.0098 38.9722 36.6998 53.4323 32.0098 38.9723C31.4698 37.3023 30.2798 34.6622 28.4898 33.8922C25.4898 32.5622 20.3998 37.0322 13.2598 40.1422C8.14984 42.3722 2.97986 44.6322 1.14986 42.8822C-1.54014 40.3122 3.45986 29.5923 10.1499 22.9622C13.0861 19.9385 16.7036 17.6617 20.6998 16.3222C22.6743 15.5739 24.7517 15.1322 26.8598 15.0122L26.5598 0.302246L32.4198 1.08224C31.5398 5.08224 30.6698 9.08224 29.8098 13.0822C32.4198 10.5522 36.6998 8.08225 42.1798 6.15225C42.9591 9.12308 42.8231 12.26 41.7898 15.1523C40.7288 18.0434 38.8832 20.5817 36.4599 22.4822C37.0599 23.8122 37.5198 25.0823 37.8898 26.0923C42.1798 37.6623 42.6399 36.7023 52.3399 55.7823C64.0799 78.8423 72.4498 100.702 74.6098 108.912C80.2336 109.187 85.7756 110.373 91.0199 112.422C100.37 116.102 113.94 121.172 119.54 126.492C120.917 127.811 122.108 129.312 123.08 130.952C123.59 131.142 124.08 131.342 124.62 131.572C136.07 136.512 141.36 147.572 143.37 152.662C139.44 148.342 137.07 142.872 130.85 138.572Z" fill="#F0ED00"/>
<path d="M24.801 20.7723C23.491 18.7723 19.331 18.7723 17.801 21.0723C17.3606 21.7591 17.1443 22.5657 17.1819 23.3808C17.2195 24.1958 17.5092 24.979 18.011 25.6223C18.354 26.0674 18.8097 26.4127 19.331 26.6223C19.755 26.8029 20.2031 26.9208 20.6611 26.9723C21.2534 27.0231 21.8497 26.9481 22.4111 26.7523C24.8411 25.8923 25.961 22.5423 24.801 20.7723Z" fill="white"/>
<path d="M22.9497 26.4022C23.0451 25.6881 22.9394 24.9616 22.6444 24.3044C22.3493 23.6471 21.8767 23.0853 21.2797 22.6822C20.7589 22.181 20.1096 21.8335 19.4037 21.6782C18.6978 21.5229 17.9628 21.5658 17.2797 21.8022C16.8397 23.4022 16.9997 25.4022 18.5997 26.2822L18.7997 26.4022C18.931 26.482 19.0681 26.5522 19.2097 26.6122C19.5853 26.8165 20.0025 26.9328 20.4297 26.9522C20.9671 26.9934 21.5076 26.9462 22.0297 26.8122C22.1897 26.7622 22.3896 26.6622 22.5396 26.6222C22.6859 26.5683 22.8239 26.4943 22.9497 26.4022Z" fill="black" stroke="black" stroke-miterlimit="10"/>
</svg>
