<svg width="93" height="137" viewBox="0 0 93 137" fill="none" xmlns="http://www.w3.org/2000/svg">
<path d="M8.83087 88.5122C9.96359 87.7083 11.1849 87.0372 12.4709 86.5122C11.7116 88.6983 11.2409 90.9743 11.0709 93.2822C10.8109 98.2822 10.7909 102.422 10.8209 105.282C10.9309 115.282 11.8209 119.952 10.0809 126.972C9.5229 129.275 8.77019 131.527 7.83087 133.702C12.1409 134.702 17.1008 135.482 18.0508 133.702C18.8708 132.182 16.3009 129.702 14.8109 127.472C7.59085 116.712 15.2009 97.0922 17.8109 97.3122C19.5109 97.4522 20.8109 106.182 20.8109 134.202C24.0309 135.072 27.9908 135.802 29.0308 134.202C30.0708 132.602 27.3008 128.862 26.0308 126.972C22.8108 122.122 20.2708 113.602 24.0308 97.5522H43.0308C44.1255 107.757 43.9576 118.058 42.5308 128.222C42.2408 130.222 41.9008 132.222 41.5308 134.222C45.0208 135.112 49.0909 135.782 50.0009 134.222C50.9109 132.662 48.2908 129.692 47.2608 128.222C44.1008 123.782 42.6509 115.302 50.0009 97.5522C55.5409 113.832 54.5709 122.552 52.4909 127.462C51.9209 128.852 50.3209 132.182 51.7509 134.192C53.5109 136.692 59.4509 136.512 60.4709 134.442C61.3009 132.762 58.5909 130.502 56.9809 127.712C53.1209 121.022 56.7009 116.362 57.9809 98.0522C58.5509 89.9222 57.9809 88.3422 58.9809 79.8522C59.3509 76.5222 59.8109 73.6422 60.7209 67.8522C62.0809 59.2722 62.7709 54.9822 63.9709 50.1622C65.1709 45.3422 66.3209 42.1622 67.9709 37.1622C71.9709 24.9522 68.9709 34.1622 71.9709 24.9522C72.3209 23.8822 73.0809 22.2022 74.2209 21.7122C76.1609 20.8622 79.3809 23.7122 83.9409 25.7122C87.2009 27.1322 90.5008 28.5722 91.6708 27.4522C93.3908 25.8122 90.1909 18.9722 85.9409 14.7422C84.0601 12.8219 81.755 11.3696 79.2109 10.5022C77.9475 10.0263 76.6188 9.74639 75.2708 9.67221C75.3441 6.54554 75.4075 3.41556 75.4609 0.282227L71.7209 0.782227C72.2742 3.32889 72.8308 5.88554 73.3908 8.45221C71.0882 6.4531 68.3993 4.94865 65.4909 4.03223C64.9996 5.92362 65.0831 7.91852 65.7309 9.76221C66.4133 11.6046 67.5937 13.2213 69.1408 14.4322C68.7508 15.2822 68.4609 16.1022 68.2309 16.7422C65.5009 24.1222 65.2308 23.5122 59.0108 35.6822C51.5308 50.3922 46.1808 64.3422 44.8008 69.5822C41.2122 69.754 37.6757 70.5106 34.3309 71.8222C28.3309 74.1722 19.7108 77.4122 16.1408 80.8222C15.2555 81.6597 14.4946 82.6194 13.8809 83.6722C13.5509 83.7922 13.2309 83.9122 12.8809 84.0522C5.57092 87.2022 2.19086 94.2822 0.880859 97.5222C3.34086 94.7522 4.84087 91.2622 8.83087 88.5122Z" fill="#F0ED00"/>
<path d="M76.8396 13.8622C75.8396 15.0622 76.6695 17.6722 78.3895 18.1722C78.9037 18.3185 79.4508 18.3007 79.9545 18.1215C80.4581 17.9423 80.8934 17.6104 81.1996 17.1722C81.4089 16.8764 81.5396 16.5323 81.5796 16.1722C81.6246 15.8705 81.6246 15.5638 81.5796 15.2622C81.5007 14.8774 81.3367 14.5152 81.0996 14.2022C80.8497 13.8892 80.5382 13.6308 80.1846 13.443C79.8309 13.2551 79.4424 13.1417 79.0432 13.1099C78.644 13.078 78.2424 13.1283 77.8634 13.2577C77.4844 13.3871 77.136 13.5928 76.8396 13.8622Z" fill="white"/>
<path d="M80.7298 13.9224C80.2863 14.0447 79.8768 14.2674 79.5331 14.5732C79.1894 14.879 78.9207 15.2598 78.7476 15.6861C78.5746 16.1124 78.5019 16.5728 78.5352 17.0316C78.5685 17.4905 78.707 17.9355 78.9398 18.3324C79.4932 18.3799 80.0465 18.2388 80.5095 17.9319C80.9725 17.6251 81.318 17.1706 81.4898 16.6424C81.4898 16.6424 81.4898 16.5124 81.4898 16.4924C81.4898 16.4724 81.4898 16.3124 81.4898 16.1924C81.5497 15.919 81.5497 15.6358 81.4898 15.3624C81.4155 15.0084 81.2801 14.67 81.0898 14.3624C81.0298 14.2624 80.9198 14.1624 80.8698 14.0824C80.829 14.0242 80.782 13.9706 80.7298 13.9224Z" fill="black" stroke="black" stroke-miterlimit="10"/>
</svg>
