<?xml version="1.0" encoding="utf-8"?>
<!-- Generator: Adobe Illustrator 25.0.1, SVG Export Plug-In . SVG Version: 6.00 Build 0)  -->
<svg version="1.1" id="Layer_1" xmlns="http://www.w3.org/2000/svg" xmlns:xlink="http://www.w3.org/1999/xlink" x="0px" y="0px"
	 viewBox="0 0 93 137" style="enable-background:new 0 0 93 137;" xml:space="preserve">
<style type="text/css">
	.st0{fill:#0000EF;}
	.st1{fill:#FFFFFF;}
	.st2{stroke:#000000;stroke-miterlimit:10;}
</style>
<path class="st0" d="M8.8,88.5c1.1-0.8,2.4-1.5,3.6-2c-0.8,2.2-1.2,4.5-1.4,6.8c-0.3,5-0.3,9.1-0.2,12c0.1,10,1,14.7-0.7,21.7
	c-0.6,2.3-1.3,4.6-2.3,6.7c4.3,1,9.3,1.8,10.2,0c0.8-1.5-1.7-4-3.2-6.2c-7.2-10.8,0.4-30.4,3-30.2c1.7,0.1,3,8.9,3,36.9
	c3.2,0.9,7.2,1.6,8.2,0c1-1.6-1.7-5.3-3-7.2c-3.2-4.8-5.8-13.4-2-29.4h19c1.1,10.2,0.9,20.5-0.5,30.7c-0.3,2-0.6,4-1,6
	c3.5,0.9,7.6,1.6,8.5,0s-1.7-4.5-2.7-6c-3.2-4.4-4.6-12.9,2.7-30.7c5.5,16.3,4.6,25,2.5,29.9c-0.6,1.4-2.2,4.7-0.7,6.7
	c1.8,2.5,7.7,2.3,8.7,0.2c0.8-1.7-1.9-3.9-3.5-6.7c-3.9-6.7-0.3-11.3,1-29.7c0.6-8.1,0-9.7,1-18.2c0.4-3.3,0.8-6.2,1.7-12
	c1.4-8.6,2-12.9,3.2-17.7c1.2-4.8,2.3-8,4-13c4-12.2,1-3,4-12.2c0.3-1.1,1.1-2.8,2.2-3.2c1.9-0.9,5.2,2,9.7,4
	c3.3,1.4,6.6,2.9,7.7,1.7c1.7-1.6-1.5-8.5-5.7-12.7c-1.9-1.9-4.2-3.4-6.7-4.2c-1.3-0.5-2.6-0.8-3.9-0.8c0.1-3.1,0.1-6.3,0.2-9.4
	l-3.7,0.5c0.6,2.5,1.1,5.1,1.7,7.7c-2.3-2-5-3.5-7.9-4.4c-0.5,1.9-0.4,3.9,0.2,5.7c0.7,1.8,1.9,3.5,3.4,4.7
	c-0.4,0.8-0.7,1.7-0.9,2.3c-2.7,7.4-3,6.8-9.2,18.9c-7.5,14.7-12.8,28.7-14.2,33.9c-3.6,0.2-7.1,0.9-10.5,2.2
	c-6,2.4-14.6,5.6-18.2,9c-0.9,0.8-1.6,1.8-2.3,2.9c-0.3,0.1-0.7,0.2-1,0.4c-7.3,3.2-10.7,10.2-12,13.5C3.3,94.8,4.8,91.3,8.8,88.5z"
	/>
<path class="st1" d="M76.8,13.9c-1,1.2-0.2,3.8,1.5,4.3c0.5,0.1,1.1,0.1,1.6-0.1c0.5-0.2,0.9-0.5,1.2-0.9c0.2-0.3,0.3-0.6,0.4-1
	c0-0.3,0-0.6,0-0.9c-0.1-0.4-0.2-0.7-0.5-1.1c-0.2-0.3-0.6-0.6-0.9-0.8c-0.4-0.2-0.7-0.3-1.1-0.3c-0.4,0-0.8,0-1.2,0.1
	C77.5,13.4,77.1,13.6,76.8,13.9z"/>
<path class="st2" d="M80.7,13.9c-0.4,0.1-0.9,0.3-1.2,0.7c-0.3,0.3-0.6,0.7-0.8,1.1c-0.2,0.4-0.2,0.9-0.2,1.3c0,0.5,0.2,0.9,0.4,1.3
	c0.6,0,1.1-0.1,1.6-0.4c0.5-0.3,0.8-0.8,1-1.3c0,0,0-0.1,0-0.2c0,0,0-0.2,0-0.3c0.1-0.3,0.1-0.6,0-0.8c-0.1-0.4-0.2-0.7-0.4-1
	c-0.1-0.1-0.2-0.2-0.2-0.3C80.8,14,80.8,14,80.7,13.9z"/>
</svg>
