<svg width="116" height="24" viewBox="0 0 116 24" fill="none" xmlns="http://www.w3.org/2000/svg">
<path d="M115.391 17.7291C114.071 17.8691 113.941 17.6291 114.861 16.8091C113.721 17.2391 113.631 17.0791 114.391 16.2891C113.621 16.5191 113.271 16.4391 113.251 16.1191C113.222 16.1006 113.2 16.0726 113.189 16.0398C113.178 16.007 113.179 15.9714 113.191 15.9391C113.151 15.7884 113.151 15.6298 113.191 15.4791C112.561 15.6791 112.361 15.4791 112.941 15.2591C112.461 15.1991 112.171 15.1291 112.141 15.0191C112.111 14.9091 112.321 14.8091 112.841 14.6291C111.581 14.6891 111.551 14.5291 112.631 13.9891C111.321 14.3291 111.121 14.2991 112.411 13.5591C110.941 14.1091 110.961 13.9491 112.071 13.0691C110.561 13.9791 110.471 13.9091 111.581 12.5491C110.401 13.4891 110.191 13.5491 111.031 12.1491C110.441 12.7291 110.111 12.9591 109.971 12.8691C109.831 12.7791 109.881 12.7091 109.971 12.5291C109.985 12.3398 110.04 12.1557 110.131 11.9891H110.001L109.941 12.0591H109.991H109.941C109.904 12.1195 109.883 12.1884 109.881 12.2591C109.877 12.2956 109.877 12.3325 109.881 12.3691H109.941H109.881H109.721H109.781H109.711L109.771 12.4291H109.861H109.771H109.661L109.861 12.5191L109.661 12.4391H109.721H109.671H109.741H109.671L109.741 12.4991H109.691C109.72 12.5305 109.754 12.5575 109.791 12.5791H109.841C109.717 12.5229 109.597 12.4594 109.481 12.3891L109.841 12.5491L109.471 12.3891L109.671 12.4991L109.471 12.3991C109.582 12.4772 109.699 12.5474 109.821 12.6091L109.441 12.4191L109.671 12.5591L109.481 12.4591L109.671 12.5691H109.601L109.781 12.6691L109.611 12.5791L109.761 12.6691L109.651 12.6191L109.751 12.6791L109.591 12.5991L109.761 12.6991L109.571 12.5791L109.471 12.5291C109.364 12.4788 109.261 12.4221 109.161 12.3591H109.071L109.611 12.7091L109.151 12.4791L109.271 12.5591L109.581 12.7591H109.521L109.691 12.8691L109.331 12.6691L109.671 12.8791C108.841 12.4191 108.371 12.1391 109.061 12.5191C108.771 12.3491 108.711 12.2991 109.061 12.4591C108.791 12.2791 108.751 12.2191 108.851 12.2391L108.781 12.1791C108.704 12.1223 108.64 12.051 108.591 11.9691L108.331 11.8591C108.091 11.7691 108.001 11.6691 108.131 11.5091C108.15 11.4619 108.181 11.4205 108.221 11.3891C107.971 11.3891 107.831 11.3891 107.851 11.3891C107.871 11.3891 107.851 11.3891 107.931 11.3091C107.831 11.2391 107.931 11.0891 108.121 10.8991C107.541 11.0591 107.231 11.0991 107.781 10.5791C107.021 10.9291 107.121 10.7091 107.571 10.2491C107.001 10.5891 106.761 10.6891 107.301 10.0891C106.681 10.5591 106.841 10.3391 107.221 9.90909C106.611 10.3891 106.341 10.5891 106.961 9.8291C106.271 10.5291 106.481 10.2891 106.961 9.7291C106.441 10.2691 106.211 10.4991 106.791 9.7291C106.131 10.4591 106.281 10.1791 106.671 9.5491C106.291 9.9791 106.081 10.1591 106.401 9.49908C105.891 10.1191 105.911 9.88909 106.121 9.28909C105.741 9.79909 105.541 9.93908 105.691 9.20908C105.311 9.79908 105.271 9.51909 105.281 9.00909C105.091 9.26909 104.931 9.3891 104.801 9.2291C104.801 9.3891 104.801 9.41909 104.731 9.37909C104.661 9.33909 104.651 9.3091 104.601 9.1091C104.582 9.1418 104.556 9.16968 104.525 9.19052C104.494 9.21136 104.458 9.22458 104.421 9.2291C104.281 9.3291 104.131 9.22909 103.951 9.03909C103.925 9.01835 103.902 8.99487 103.881 8.96909C103.744 8.99472 103.601 8.96985 103.481 8.89908H103.431H103.361L103.221 8.81909C103.221 9.02909 102.891 8.91908 102.221 8.64908C102.681 8.97908 103.001 9.21908 102.971 9.08908C102.971 9.24908 102.971 9.3091 102.821 9.2991C102.821 9.3791 102.821 9.3991 102.651 9.2991C102.473 9.28652 102.3 9.23892 102.141 9.15909C102.431 9.34909 102.411 9.38908 102.141 9.33908C102.341 9.46908 102.321 9.47907 101.791 9.23907L102.141 9.33908L101.761 9.09909C101.931 9.39909 101.521 9.23909 101.511 8.87909C101.151 8.87909 101.081 8.67909 101.231 8.37909C101.051 8.27909 101.111 8.0291 101.231 7.7291C100.471 7.9391 99.8709 8.03909 99.8909 7.31909C98.8309 7.99909 98.4009 7.85909 98.1709 6.71909C97.5809 7.28909 97.1709 6.85909 96.7409 6.25909C96.6109 6.56909 96.4609 6.7791 96.2309 6.7291C96.1309 7.0791 95.9409 7.14908 95.6309 6.92908C95.2909 7.23908 94.8109 7.09909 95.4009 6.78909C94.6209 6.78909 94.1009 6.78909 93.9609 6.62909C93.8209 6.46909 94.0409 6.1391 94.7309 5.5491C92.3509 6.4691 91.8409 6.34909 91.5509 3.87909C90.8209 6.11909 90.3009 6.00908 88.6109 4.58908C88.9309 5.18908 88.9509 5.44908 88.7709 5.52908C88.6287 5.5529 88.4825 5.52716 88.3569 5.45618C88.2313 5.38519 88.1339 5.27328 88.0809 5.1391C87.6809 5.4691 87.1709 5.36909 87.8009 4.81909C86.4209 5.05909 86.1809 4.81909 87.0709 3.81909C85.5009 4.59909 84.9109 4.65909 84.8109 2.81909C83.8109 4.57909 83.3509 4.41909 82.3509 2.93909C82.4109 3.75909 81.9409 3.26908 81.4209 2.55908C81.4209 3.50908 81.2809 3.95909 80.6809 3.81909C80.6809 4.13909 80.2109 3.81908 79.5509 3.33908C80.1109 4.26908 79.8509 4.2291 79.1409 3.6391C79.5109 4.1791 79.1409 4.13907 78.6809 3.98907C78.5709 4.07907 78.3009 4.04909 78.4509 3.84909C77.7909 3.98909 77.5509 3.96909 78.1309 3.37909C77.1309 3.82909 76.9909 3.72908 77.6709 2.86908C76.5909 3.68908 76.3509 3.74908 77.0809 2.39908C75.9709 3.63908 75.8309 3.46907 76.3409 1.98907C75.5609 3.43907 75.4209 3.5791 75.9009 1.8291C75.1909 3.5491 75.0909 3.3791 75.2809 1.6691C74.8109 3.3491 74.6309 3.49908 74.3909 1.58908C74.1909 3.50908 73.9309 3.3791 73.1709 1.7291C73.3709 3.3291 73.0709 3.39909 71.8509 2.25909C71.9509 2.43909 72.0209 2.57908 72.0809 2.70908C72.4109 3.12908 72.4709 3.2591 72.2909 3.1091C72.2909 3.1891 72.2909 3.1991 72.1809 3.1091C72.0709 3.0191 72.0209 3.10908 71.8709 2.99908C71.8709 3.17908 71.8709 3.23908 71.6409 3.20908C71.5725 3.22995 71.4994 3.22995 71.4309 3.20908C71.7709 3.33908 71.6209 3.3091 71.1709 3.1391L70.8809 3.02908C70.7309 3.10908 70.5809 3.12908 70.5409 3.08908C70.5009 3.04908 70.6809 2.78909 71.2809 2.31909C70.8021 2.57759 70.2859 2.75979 69.7509 2.8591C68.9709 2.9491 68.6909 2.4491 68.6009 0.979095C68.4243 1.50183 68.1569 1.9893 67.8109 2.4191C67.7085 2.53641 67.5674 2.61305 67.4132 2.63507C67.259 2.65709 67.1021 2.62303 66.9709 2.53909C66.4852 2.22681 66.0558 1.83461 65.7009 1.37909C65.9909 2.02909 66.1109 2.37909 66.2909 2.37909L66.4209 2.2991C66.3862 2.33772 66.341 2.36548 66.2909 2.37909C66.176 2.47965 66.0286 2.5351 65.8759 2.5351C65.7233 2.5351 65.5758 2.47965 65.4609 2.37909C65.0109 2.69909 64.8109 2.37909 64.7709 1.37909C64.7709 2.90909 64.4309 2.89908 64.2309 1.27908C63.8009 2.27908 63.5209 2.67908 63.2309 2.27908C63.18 2.34208 63.1136 2.39084 63.0383 2.42062C62.9629 2.45041 62.8812 2.46022 62.8009 2.4491H62.6809C62.5405 2.48993 62.3913 2.48993 62.2509 2.4491C62.0309 2.5191 61.7109 2.37908 61.2509 2.05908L61.1009 1.93909L60.8809 1.7991C60.9509 2.3591 60.7109 2.27908 60.4309 1.86908C60.3943 1.68334 60.3475 1.49975 60.2909 1.31909C60.2111 0.989097 60.1477 0.655355 60.1009 0.319092C59.4109 2.80909 58.8509 2.80908 56.6609 1.42908C56.6849 1.48242 56.7152 1.53278 56.7509 1.5791C58.3509 2.7191 58.3809 2.76908 56.8809 1.80908C57.2109 2.25908 57.2509 2.5091 57.0709 2.6391C56.9882 2.69542 56.8909 2.72666 56.7909 2.7291C56.7186 2.74689 56.6432 2.74689 56.5709 2.7291C56.3909 2.7291 56.1309 2.72907 56.0709 2.48907C56.1209 2.68907 56.2109 2.74908 56.2809 2.74908C56.1009 2.74908 55.8909 2.74909 56.0709 2.50909C55.6009 2.69909 55.3009 2.76908 55.3209 2.61908C55.2755 2.63432 55.2263 2.63432 55.1809 2.61908C55.0285 2.65292 54.8691 2.63166 54.7309 2.55908C54.3409 2.65908 54.2409 2.50908 54.4609 1.99908C54.432 1.74323 54.432 1.48495 54.4609 1.2291C53.5109 2.8691 53.4609 2.87908 54.2809 1.14908C52.9609 2.89908 52.5909 2.9191 52.1709 0.699097C51.9309 1.4491 51.6909 1.95909 51.9709 2.12909C51.6909 2.27909 51.4709 2.37908 51.3409 2.45908L51.9109 2.3891L51.5109 2.49908H51.7109L49.3609 2.95908C48.8209 3.05908 48.4809 3.10909 48.9209 2.81909C48.0309 3.17909 47.9209 3.18908 48.7509 2.64908C47.6709 3.19908 47.5509 3.20909 48.5209 2.40909C47.0909 3.23909 46.7509 3.2591 47.5209 1.6091C46.3509 2.6991 45.6109 3.1191 44.5209 2.9491C44.3693 2.98122 44.2126 2.98122 44.0609 2.9491C44.0609 2.9991 43.9509 3.0091 43.8409 2.9491C43.7309 2.8891 43.6309 3.0391 43.4209 2.9491C42.8734 2.77415 42.3443 2.54642 41.8409 2.2691L43.0009 3.12909C42.9409 3.17909 42.8009 3.12909 42.5909 3.06909V3.11908C42.3209 3.33908 42.0309 3.30909 41.7309 2.90909C41.5809 3.24909 41.5209 3.32908 41.5009 3.14908C41.1009 3.61908 40.9309 3.46908 40.9809 2.52908C40.3609 3.74908 40.0909 3.7891 39.7109 2.4491C39.5509 3.8491 39.2709 3.87908 38.4309 2.70908C38.5809 3.32908 38.5909 3.64908 38.4309 3.70908C38.2709 3.76908 37.9409 3.5891 37.4309 3.1691C37.6309 3.6291 37.6909 3.83908 37.6309 3.89908C37.5709 3.95908 37.3109 3.89909 37.2909 3.75909L37.1309 3.8591C37.1305 3.88775 37.1404 3.91558 37.1587 3.93759C37.177 3.9596 37.2026 3.97432 37.2309 3.9791H37.4509C37.3151 4.00045 37.1767 4.00045 37.0409 3.9791C36.8577 3.9888 36.6741 3.9888 36.4909 3.9791C36.3409 3.9791 36.2609 3.9791 36.2709 3.9791H36.2009C36.1224 4.00082 36.0395 4.00082 35.9609 3.9791C35.8913 3.95528 35.8338 3.90497 35.8009 3.83908C35.2209 4.15908 35.2109 4.12908 35.8009 3.74908C35.8269 3.52368 35.9133 3.30948 36.0509 3.12909C34.2009 4.37909 33.7009 4.46909 33.4009 2.12909C32.7009 4.62909 32.1909 4.72909 29.7209 3.56909C29.9833 3.82661 30.1938 4.13214 30.3409 4.46909C31.0109 4.74909 31.0209 4.77908 30.3409 4.58908C30.3469 4.6485 30.337 4.70843 30.3124 4.76285C30.2879 4.81727 30.2494 4.86425 30.2009 4.89908C30.1367 4.96676 30.0527 5.01229 29.9609 5.02908C29.9609 5.14908 29.5109 5.20909 28.7209 5.28909C29.1474 5.28593 29.5691 5.19753 29.9609 5.02908H29.8709C29.8709 5.12908 29.5509 5.18907 29.0309 5.23907C28.9413 5.25058 28.8506 5.25058 28.7609 5.23907H28.6309C28.5222 5.14057 28.4338 5.02167 28.3709 4.8891C28.2416 4.6003 28.1573 4.29341 28.1209 3.9791C27.1209 5.9291 26.5609 6.08908 24.5109 5.02908C24.8609 5.59908 24.9509 5.94908 25.1109 5.86908L25.1909 5.78909L25.1109 5.86908C24.4909 6.44908 24.0409 6.41908 23.8309 5.20908C23.9109 6.67908 23.7109 6.72908 23.6909 5.20908C23.2209 6.85908 22.9409 6.93909 22.8509 5.09909C22.3809 7.09909 22.1009 7.16908 21.0109 5.33908C21.5409 7.33908 21.2709 7.41909 19.6109 6.09909C20.7709 7.39909 20.5509 7.29908 19.3909 6.20908C20.0709 7.07908 20.0509 7.33909 19.2709 7.09909C19.6109 7.39909 19.5709 7.39909 19.0509 7.09909C19.2309 7.52909 18.9809 7.57908 18.4309 7.39908C18.6709 7.47908 18.4309 7.23908 18.2609 6.83908C18.2109 7.32908 18.1509 7.65909 18.0409 7.71909C17.9309 7.77909 17.7809 7.58908 17.5609 6.99908C17.4009 8.47908 16.9609 8.40908 15.8409 7.42908C16.4709 8.58908 16.4209 8.83908 15.1709 7.92908C16.0609 9.15908 15.7509 9.2191 14.3809 8.6991C15.2709 9.5191 14.8909 9.69909 14.0609 9.15909C14.5109 9.67909 14.2709 9.7991 13.7609 9.6691C14.0009 9.7291 13.9709 9.53909 13.9209 9.06909C13.6109 9.70909 13.2809 10.0691 13.0309 10.0691C12.7809 10.0691 12.6309 9.69909 12.5009 8.84909C11.9209 10.6291 11.5009 10.4291 10.6209 9.00909C10.9009 10.4691 10.7609 10.9191 9.09094 10.0091C10.3509 11.5191 10.0909 11.7091 8.16089 11.3491C9.29089 11.8791 8.79089 11.8591 7.85089 11.7291C8.53089 12.2591 8.59089 12.5891 7.85089 12.5991C8.42089 12.8691 8.28089 13.0391 7.85089 12.5991C8.00089 13.0391 7.8509 12.8991 7.6109 12.4491C7.61379 12.6559 7.58343 12.8619 7.52094 13.0591C7.52094 13.1191 7.44092 12.9791 7.38092 12.5591C7.30092 13.4691 7.17091 13.1991 6.99091 12.4691C6.99091 13.3791 6.92094 13.8391 6.40094 12.6791C6.54094 13.9591 6.2309 13.6791 5.6709 12.7691C5.8009 13.5991 5.8209 14.1491 4.6709 13.4191C5.5609 14.9491 5.31093 15.2191 3.45093 14.7691C4.45093 15.5691 3.87093 15.6491 2.95093 15.6691C3.41093 15.8991 3.72091 16.0991 3.74091 16.2591C3.76091 16.4191 3.59089 16.6991 2.91089 16.8291L3.38092 16.9791C3.38092 16.9091 3.31094 16.8491 3.27094 16.7691C3.61093 17.0491 3.62092 17.0691 3.38092 16.9791C3.63092 17.5191 3.38091 17.6491 2.49091 17.4191C2.99091 17.6991 3.26092 17.8791 3.25092 17.9491C6.74092 17.9491 1.71094 20.7591 0.460938 22.3691C10.4609 22.3691 20.4609 22.7291 30.5309 23.0991C34.6409 22.9791 38.8909 22.9591 43.2209 22.9791C47.9809 22.8191 52.7509 22.9791 57.5109 23.1291C61.4409 23.1291 65.3809 23.2291 69.2709 23.2391C70.3409 23.2391 71.4309 23.1691 72.5109 23.0991C71.4309 23.1691 70.3409 23.2191 69.2709 23.2391C73.5309 23.2391 77.7509 23.2391 81.8309 23.0991C104.471 22.4391 105.031 20.2991 115.161 20.1691C115.161 19.8791 115.351 19.6391 115.791 19.4291C114.601 19.0491 114.421 18.5791 115.391 17.7291Z" fill="#6DFC6D"/>
</svg>
