<svg width="133" height="29" viewBox="0 0 133 29" fill="none" xmlns="http://www.w3.org/2000/svg">
<path d="M131.81 21.8891C130.31 22.0591 130.17 21.7691 131.2 20.7491C129.91 21.2791 129.81 21.0791 130.67 20.1091C129.79 20.3891 129.39 20.2891 129.37 19.9091C129.335 19.8865 129.308 19.852 129.296 19.8118C129.283 19.7716 129.284 19.7282 129.3 19.6891C129.26 19.5013 129.26 19.307 129.3 19.1191C128.59 19.3591 128.35 19.1191 129.01 18.8391C128.46 18.7791 128.14 18.6891 128.1 18.5591C128.06 18.4291 128.3 18.2891 128.89 18.0691C127.46 18.1391 127.42 17.9391 128.65 17.2791C127.16 17.6991 126.94 17.6591 128.4 16.7591C126.73 17.4291 126.75 17.2291 128.02 16.1491C126.3 17.2691 126.19 17.1491 127.45 15.5291C126.11 16.6791 125.86 16.7091 126.82 15.0291C126.15 15.7391 125.82 16.0291 125.62 15.9191C125.42 15.8091 125.51 15.7091 125.62 15.4891C125.632 15.2619 125.694 15.0401 125.8 14.8391H125.63L125.57 14.9291H125.63H125.57C125.523 14.9995 125.501 15.0845 125.51 15.1691C125.506 15.2123 125.506 15.2559 125.51 15.2991H125.57H125.51C125.51 15.2991 125.51 15.2991 125.51 15.3591H125.36H125.3L125.36 15.4191H125.29L125.36 15.4891H125.46H125.36H125.22L125.44 15.5991L125.22 15.4991H125.28C125.28 15.4991 125.28 15.4991 125.22 15.4991H125.3H125.22L125.3 15.5591H125.24C125.276 15.6005 125.316 15.6374 125.36 15.6691C125.217 15.605 125.08 15.5281 124.95 15.4391L125.37 15.6491L124.94 15.4391L125.17 15.5691L124.94 15.4491C125.04 15.5191 125.17 15.6091 125.34 15.7091L124.9 15.4691L125.17 15.6291L124.95 15.5091L125.17 15.6391H125.09L125.29 15.7591L125.11 15.6491H125.17H125.11L125.29 15.7591L125.16 15.6891L125.28 15.7691L125.1 15.6691C125.159 15.7161 125.223 15.7564 125.29 15.7891C125.211 15.753 125.137 15.7059 125.07 15.6491L124.95 15.5891C124.835 15.5153 124.714 15.4485 124.59 15.3891L124.49 15.3291L125.11 15.7591L124.59 15.4691L124.73 15.5691L125.07 15.8091H125L125.19 15.9291L124.79 15.6891L125.17 15.9591C124.23 15.3891 123.7 15.0491 124.49 15.5091C124.16 15.2991 124.09 15.2391 124.49 15.4391L124.42 15.3791C124.12 15.1591 124.06 15.0891 124.18 15.1191L124.1 15.0491C124.007 14.9735 123.932 14.8778 123.88 14.7691C123.776 14.7356 123.676 14.692 123.58 14.6391C123.31 14.5291 123.2 14.4091 123.35 14.2191C123.373 14.1603 123.411 14.1086 123.46 14.0691C123.18 14.0691 123.01 14.0691 123.03 14.0691C123.05 14.0691 123.03 14.0191 123.12 13.9591C123 13.8791 123.12 13.6991 123.34 13.4591C122.67 13.6591 122.34 13.7091 122.95 13.0691C122.09 13.4891 122.2 13.2391 122.71 12.6591C122.05 13.0791 121.79 13.1991 122.4 12.4691C121.69 13.0391 121.87 12.7791 122.3 12.2491C121.61 12.8391 121.3 13.0791 122 12.1491C121.22 13.0191 121.45 12.7191 122 12.0291C121.41 12.6991 121.15 13.0291 121.8 12.0291C121.06 12.9291 121.23 12.5891 121.66 11.8091C121.23 12.3291 120.99 12.5591 121.36 11.7391C120.78 12.5091 120.8 12.2291 121.04 11.4891C120.6 12.1091 120.38 12.2791 120.55 11.3791C120.11 12.1091 120.07 11.7791 120.08 11.1491C119.86 11.4691 119.68 11.6091 119.53 11.4191C119.53 11.6091 119.47 11.6491 119.45 11.5991C119.43 11.5491 119.35 11.5091 119.3 11.2591C119.279 11.2982 119.249 11.3319 119.212 11.3578C119.176 11.3838 119.134 11.4013 119.09 11.4091C118.93 11.5291 118.76 11.4091 118.55 11.1791L118.47 11.0991C118.312 11.1294 118.149 11.1009 118.01 11.0191H117.93C117.88 11.0191 117.83 10.9391 117.77 10.9091C117.82 11.1791 117.4 11.0391 116.68 10.6991C117.2 11.1091 117.57 11.4091 117.53 11.2391C117.58 11.4391 117.53 11.5091 117.36 11.4891C117.36 11.5991 117.36 11.6091 117.17 11.5491C116.969 11.5395 116.774 11.4812 116.6 11.3791C116.92 11.6091 116.9 11.6691 116.6 11.6091C116.82 11.7691 116.81 11.7791 116.2 11.4791L116.6 11.6091L116.16 11.2991C116.36 11.6691 115.88 11.4791 115.88 11.0391C115.48 11.0391 115.39 10.7991 115.56 10.4391C115.36 10.2991 115.42 9.99912 115.56 9.62912C114.69 9.87912 114.01 10.0091 114.03 9.12912C112.83 9.95912 112.33 9.78911 112.03 8.38911C111.35 9.07911 110.9 8.55912 110.4 7.82912C110.26 8.20912 110.08 8.46912 109.82 8.39912C109.7 8.82912 109.48 8.91912 109.13 8.64912C108.74 9.02912 108.19 8.86912 108.87 8.48912C107.98 8.48912 107.39 8.48912 107.23 8.28912C107.07 8.08912 107.32 7.68912 108.11 6.96912C105.38 8.09912 104.81 7.96912 104.48 4.90912C103.64 7.65912 103.05 7.51911 101.12 5.77911C101.49 6.50911 101.52 6.83912 101.32 6.92912C101.152 6.95709 100.979 6.92417 100.832 6.83623C100.686 6.74829 100.575 6.61107 100.52 6.44913C100.06 6.84913 99.5205 6.72911 100.2 6.05911C98.6305 6.34911 98.3604 6.05913 99.3604 4.83913C97.5704 5.83913 96.8905 5.83911 96.7905 3.55911C95.6705 5.72911 95.1305 5.55912 93.9805 3.70912C94.0605 4.70912 93.5205 4.11911 92.9205 3.24911C92.9205 4.40911 92.7604 4.95912 92.0804 4.78912C92.0804 5.17912 91.5505 4.78913 90.7905 4.19913C91.4305 5.34913 91.1404 5.29912 90.3304 4.57912C90.7504 5.24912 90.3804 5.19912 89.8004 5.00912C89.6804 5.11912 89.3705 5.07912 89.5405 4.82912C88.7805 5.00912 88.5405 4.97913 89.1805 4.25912C88.0604 4.81912 87.8805 4.68912 88.6605 3.62912C87.4205 4.62912 87.1505 4.70912 87.9805 3.04912C86.7105 4.57912 86.5505 4.36911 87.1405 2.55911C86.2505 4.33911 86.0905 4.50912 86.6305 2.34912C85.8305 4.46912 85.7104 4.25912 85.9305 2.15912C85.3904 4.21912 85.1905 4.39912 84.9305 2.04912C84.7004 4.41912 84.4005 4.24913 83.5305 2.22913C83.7605 4.22913 83.4204 4.27912 82.0204 2.87912C82.1404 3.09912 82.2205 3.27912 82.2905 3.42912C82.6605 3.94912 82.7304 4.10912 82.5204 3.93912C82.5204 4.02912 82.5205 4.03912 82.3905 3.93912C82.2605 3.83912 82.2105 3.93912 82.0405 3.79912C82.1005 4.01912 82.0405 4.09911 81.7805 4.05911C81.7026 4.08504 81.6184 4.08504 81.5405 4.05911C81.9305 4.21911 81.7604 4.17912 81.2404 3.96912L80.9105 3.82912C80.8572 3.87388 80.7941 3.90539 80.7263 3.92104C80.6585 3.93668 80.5879 3.93602 80.5204 3.91911C80.4104 3.83911 80.6804 3.53912 81.3604 2.96912C80.8206 3.28096 80.2325 3.50065 79.6205 3.61913C78.7305 3.72913 78.4104 3.11912 78.3004 1.31912C78.0993 1.95632 77.7917 2.55481 77.3905 3.08913C77.2846 3.23216 77.1268 3.32797 76.9511 3.35602C76.7753 3.38406 76.5956 3.3421 76.4505 3.23912C75.9144 2.87912 75.4413 2.43312 75.0504 1.91911C75.3804 2.72911 75.5205 3.18912 75.7205 3.12912L75.8805 3.02911C75.8384 3.07777 75.7826 3.11262 75.7205 3.12912C75.5939 3.25015 75.4256 3.31769 75.2505 3.31769C75.0754 3.31769 74.907 3.25015 74.7805 3.12912C74.2705 3.51912 74.0504 3.12912 73.9904 1.89912C73.9904 3.77912 73.6105 3.76912 73.3905 1.76912C72.8905 3.06912 72.5705 3.48912 72.2005 3.04912C72.1449 3.12409 72.0698 3.18239 71.9834 3.21765C71.897 3.25292 71.8026 3.2638 71.7104 3.24911H71.6005C71.4386 3.30551 71.2624 3.30551 71.1005 3.24911C70.8605 3.33911 70.5005 3.15912 69.9904 2.76912L69.8205 2.62912L69.5705 2.44913C69.6505 3.14913 69.3704 3.04912 69.0504 2.54912C69.0504 2.48912 68.9705 2.22912 68.8905 1.87912C68.8105 1.52912 68.7505 1.10912 68.6805 0.599121C67.8904 3.65912 67.2505 3.65913 64.7505 1.97913C64.7844 2.03706 64.8145 2.09718 64.8405 2.15912C66.6705 3.55912 66.7104 3.61913 64.9904 2.44913C65.3704 2.99913 65.4204 3.29913 65.2104 3.44913C65.1163 3.51524 65.0054 3.55336 64.8905 3.55911C64.8054 3.58253 64.7155 3.58253 64.6305 3.55911C64.4205 3.55911 64.1205 3.55912 64.0705 3.26912C64.1205 3.50912 64.2305 3.57913 64.3105 3.58913H64.3805H64.3105C64.1005 3.58913 63.8604 3.58912 64.0804 3.28912C63.5204 3.51912 63.1904 3.60911 63.2104 3.41911C63.1615 3.43385 63.1094 3.43385 63.0605 3.41911C62.9746 3.44255 62.8848 3.44755 62.7969 3.43376C62.709 3.41997 62.625 3.38772 62.5504 3.33913C62.1104 3.45913 61.9905 3.28912 62.2505 2.64912C62.2165 2.33671 62.2165 2.02154 62.2505 1.70912C61.1605 3.70912 61.0605 3.70912 62.0405 1.59912C60.5305 3.75912 60.1005 3.77912 59.6205 1.04912C59.3605 1.97912 59.0805 2.59912 59.3905 2.81912C59.0805 2.99912 58.8305 3.12913 58.6805 3.22913L59.3304 3.13911L58.8705 3.26912H59.1104L56.4205 3.82912C55.8005 3.94912 55.4205 4.01912 55.9105 3.65912C54.9105 4.09912 54.7605 4.10913 55.7305 3.44913C54.4905 4.12913 54.3505 4.13912 55.4705 3.15912C53.8205 4.15912 53.4705 4.20912 54.2805 2.15912C52.9605 3.48912 52.1105 4.00911 50.9105 3.80911H50.8505C50.6837 3.86768 50.5053 3.88485 50.3304 3.85912C50.3304 3.90912 50.2105 3.92912 50.0705 3.90912C49.9305 3.88912 49.8405 4.02912 49.6005 3.96912C48.9725 3.74919 48.3692 3.46432 47.8004 3.11913C48.7004 3.82913 49.1105 4.18911 49.1205 4.16911C49.1305 4.14911 48.8905 4.21912 48.6605 4.10912L48.6005 4.16911C48.3005 4.43911 47.9605 4.38912 47.6005 3.90912C47.4205 4.32912 47.3605 4.41913 47.3405 4.19913C46.8905 4.77913 46.6905 4.59912 46.7505 3.43912C46.0405 4.94912 45.7505 4.98912 45.2905 3.34912C45.1005 5.06912 44.7904 5.10911 43.8304 3.66911C44.0004 4.42911 44.0104 4.81912 43.8304 4.89912C43.6504 4.97912 43.2804 4.74913 42.7404 4.22913C42.9704 4.78913 43.0305 5.06912 42.9705 5.12912C42.9334 5.15061 42.8917 5.16297 42.8489 5.16516C42.8061 5.16735 42.7634 5.15931 42.7243 5.14172C42.6852 5.12413 42.6509 5.0975 42.6241 5.06401C42.5974 5.03052 42.579 4.99114 42.5705 4.94913C42.509 4.98184 42.4519 5.02215 42.4005 5.06912C42.3942 5.10346 42.401 5.1389 42.4195 5.1685C42.438 5.1981 42.4668 5.21972 42.5005 5.22913H42.6405H42.5605C42.6402 5.23876 42.7207 5.23876 42.8004 5.22913C42.6454 5.2612 42.4855 5.2612 42.3304 5.22913C42.1226 5.26738 41.9118 5.28745 41.7005 5.28912C41.5305 5.28912 41.4505 5.28912 41.4505 5.28912C41.4243 5.29637 41.3966 5.29637 41.3705 5.28912C41.2741 5.3064 41.1748 5.28866 41.0905 5.23912C41.0509 5.22294 41.0153 5.19852 40.986 5.16748C40.9567 5.13644 40.9344 5.09949 40.9205 5.05911C40.2605 5.45911 40.2505 5.42913 40.9205 4.94913C40.9504 4.67675 41.0466 4.41582 41.2005 4.18912C39.1005 5.73912 38.5305 5.83912 38.2005 2.98912C37.3905 6.05912 36.8104 6.16912 33.9904 4.74911C34.2963 5.06616 34.5375 5.4398 34.7005 5.84912C35.4705 6.18912 35.4705 6.22912 34.7005 5.99911C34.7108 6.07101 34.7014 6.14437 34.6732 6.21132C34.645 6.27827 34.5991 6.33628 34.5405 6.37912C34.4695 6.46449 34.3701 6.52133 34.2605 6.53912C34.2605 6.68912 33.7505 6.75913 32.8505 6.86913C33.3393 6.86622 33.8212 6.75344 34.2605 6.53912H34.1505C34.1505 6.66912 33.8004 6.73912 33.2104 6.79912C33.1044 6.81531 32.9965 6.81531 32.8905 6.79912H32.7505C32.6223 6.67974 32.5231 6.53267 32.4604 6.36913C32.3092 6.01559 32.2115 5.64148 32.1705 5.25912C31.0805 7.65912 30.3905 7.84912 28.0605 6.53912C28.4605 7.24912 28.5605 7.67912 28.7305 7.53912C28.7687 7.51102 28.8023 7.4773 28.8304 7.43912C28.8023 7.4773 28.7687 7.51102 28.7305 7.53912C28.0405 8.25912 27.5205 8.21912 27.2805 6.73912C27.3705 8.54912 27.1405 8.60912 27.1205 6.73912C26.5805 8.73912 26.2605 8.87912 26.1205 6.60912C25.5905 9.05912 25.2704 9.15912 24.0204 6.89912C24.6304 9.34912 24.3105 9.45912 22.4205 7.82912C23.7405 9.43912 23.4905 9.31912 22.1605 7.96912C22.9405 9.04912 22.9105 9.35911 22.0305 9.05911C22.4205 9.43911 22.3805 9.43911 21.7805 9.05911C21.9805 9.58911 21.6905 9.64911 21.0605 9.41911C21.3405 9.52911 21.1205 9.22912 20.8805 8.73912C20.8205 9.32912 20.7505 9.73912 20.6205 9.82912C20.4905 9.91912 20.3305 9.65912 20.0705 8.92912C19.9005 10.7491 19.3905 10.6691 18.0705 9.46912C18.7805 10.8891 18.7305 11.1991 17.3105 10.0891C18.3105 11.5891 17.9605 11.6691 16.4005 11.0391C17.4005 12.0391 16.9805 12.2391 16.0305 11.5991C16.5405 12.2391 16.2705 12.3991 15.6905 12.2391C15.9705 12.3091 15.9305 12.0691 15.8705 11.4891C15.5105 12.2791 15.1405 12.7191 14.8705 12.7091C14.6005 12.6991 14.4105 12.2591 14.2605 11.2091C13.6105 13.3991 13.1204 13.1491 12.1104 11.3991C12.4304 13.1991 12.2805 13.7491 10.3805 12.6591C11.8205 14.5291 11.5005 14.7491 9.32047 14.3091C10.6005 14.9591 10.0304 14.9391 8.96045 14.7691C9.74045 15.4291 9.81045 15.8391 8.96045 15.8491C9.61045 16.1791 9.45045 16.3891 8.90045 15.8491C9.08045 16.3891 8.90046 16.2191 8.63046 15.6591C8.63089 15.9164 8.59382 16.1725 8.52045 16.4191C8.52045 16.4791 8.43045 16.3191 8.37045 15.7891C8.27045 16.9091 8.13047 16.5791 7.92047 15.6791C7.92047 16.8091 7.84045 17.3691 7.24045 15.9391C7.40045 17.5191 7.04046 17.1091 6.41046 16.0491C6.56046 17.0491 6.57047 17.7391 5.29047 16.8491C6.29047 18.7391 6.01047 19.0691 3.89047 18.5091C5.05047 19.5091 4.37047 19.5891 3.32047 19.6191C3.84047 19.8991 4.19046 20.1491 4.22046 20.3391C4.25046 20.5291 4.05046 20.8791 3.28046 21.0391L3.80045 21.2291C3.76555 21.1353 3.72205 21.0449 3.67047 20.9591C4.06047 21.2991 4.07045 21.3291 3.80045 21.2291C4.09045 21.8991 3.80045 22.0591 2.80045 21.7791C3.37045 22.1191 3.67046 22.3491 3.66046 22.4291C7.66046 22.4291 1.90047 25.8891 0.480469 27.8591C11.9205 27.9291 23.3505 28.3091 34.7805 28.7591C67.2605 27.7591 104.39 25.5291 131.34 25.1491C131.365 24.9458 131.445 24.7531 131.572 24.5925C131.699 24.4319 131.868 24.3096 132.06 24.2391C130.91 23.5191 130.71 22.9291 131.81 21.8891Z" fill="#6DFC6D"/>
</svg>
