<svg width="132" height="30" viewBox="0 0 132 30" fill="none" xmlns="http://www.w3.org/2000/svg">
<path d="M131.12 25.0992C131.144 24.8959 131.224 24.7033 131.351 24.5427C131.478 24.3821 131.647 24.2598 131.84 24.1893C130.69 23.4393 130.49 22.8593 131.58 21.8093C130.09 21.9793 129.94 21.6993 130.98 20.6793C129.68 21.1993 129.58 20.9992 130.44 20.0392C129.56 20.3192 129.17 20.2193 129.15 19.8293C129.112 19.8082 129.084 19.7744 129.069 19.7341C129.054 19.6937 129.055 19.6494 129.07 19.6093C129.029 19.4248 129.029 19.2337 129.07 19.0493C128.36 19.2893 128.13 19.0493 128.79 18.7693C128.24 18.6993 127.91 18.6092 127.87 18.4792C127.83 18.3492 128.08 18.2093 128.67 17.9993C127.23 18.0593 127.2 17.8693 128.43 17.1993C126.94 17.6293 126.71 17.5893 128.18 16.6793C126.5 17.3593 126.52 17.1593 127.79 16.0793C126.07 17.1993 125.96 17.0793 127.22 15.4493C125.88 16.5993 125.64 16.6293 126.6 14.9593C125.92 15.6593 125.55 15.9593 125.39 15.8393C125.23 15.7193 125.29 15.6393 125.39 15.4193C125.399 15.1917 125.461 14.9693 125.57 14.7693H125.4C125.373 14.8002 125.35 14.8337 125.33 14.8693H125.39H125.33C125.28 14.9427 125.259 15.0314 125.27 15.1193C125.261 15.1588 125.261 15.1997 125.27 15.2393H125.33H125.27H125.17L125.24 15.2993H125.17L125.23 15.3693H125.33H125.23H125.1L125.33 15.4792L125.1 15.3793H125.17H125.11L125.19 15.4393H125.1L125.19 15.4993H125.13C125.158 15.5431 125.196 15.5806 125.24 15.6093H125.3C125.154 15.5425 125.014 15.4656 124.88 15.3793L125.3 15.5793L124.88 15.3793L125.12 15.5193L124.89 15.3893L125.28 15.6493L124.85 15.4093L125.11 15.5693L124.9 15.4493L125.11 15.5793H125.04L125.24 15.6993L125.05 15.5992H125.11H125.06L125.23 15.7093L125.11 15.6493L125.23 15.7292L125.05 15.6293L125.23 15.7493L125.02 15.6093L124.9 15.5392C124.77 15.4692 124.65 15.3893 124.54 15.3393L124.43 15.2793L125.06 15.7093L124.53 15.4193L124.67 15.5293L125.02 15.7593H124.95L125.14 15.8893L124.74 15.6493L125.12 15.9093C124.12 15.3393 123.65 15.0093 124.43 15.4593C124.11 15.2593 124.03 15.1993 124.43 15.3893L124.36 15.3393C124.06 15.1193 124 15.0393 124.12 15.0793L124.03 14.9993C123.939 14.9269 123.868 14.8344 123.82 14.7292L123.52 14.5992C123.25 14.4892 123.14 14.3593 123.29 14.1793C123.314 14.1209 123.348 14.0669 123.39 14.0193C123.11 14.0193 122.95 14.0193 122.97 14.0193C122.99 14.0193 122.97 14.0193 123.05 13.9193C122.94 13.8293 123.05 13.6593 123.27 13.4193C122.61 13.6193 122.27 13.6593 122.89 13.0193C122.02 13.4393 122.14 13.1893 122.65 12.6093C121.99 13.0393 121.72 13.1493 122.34 12.4293C121.63 12.9993 121.8 12.7293 122.24 12.2093C121.54 12.7893 121.24 13.0293 121.94 12.1093C121.16 12.9793 121.39 12.6793 121.94 11.9893C121.35 12.6593 121.09 12.9393 121.74 11.9893C120.99 12.8893 121.17 12.5493 121.6 11.7693C121.17 12.2993 120.93 12.5293 121.29 11.7093C120.71 12.4693 120.73 12.1893 120.97 11.4493C120.54 12.0793 120.31 12.2492 120.49 11.3492C120.05 12.0792 120 11.7493 120.02 11.1093C119.8 11.4293 119.62 11.5793 119.47 11.3893C119.47 11.5693 119.41 11.6193 119.38 11.5693C119.35 11.5193 119.29 11.4692 119.24 11.2292C119.189 11.3063 119.11 11.3602 119.02 11.3793C118.86 11.4893 118.7 11.3793 118.49 11.1493L118.41 11.0693C118.25 11.0914 118.089 11.0597 117.95 10.9792H117.87L117.71 10.8693C117.71 11.1393 117.33 11.0093 116.61 10.6693C117.14 11.0693 117.51 11.3693 117.47 11.2093C117.47 11.3993 117.47 11.4793 117.3 11.4593C117.3 11.5693 117.3 11.5793 117.11 11.4593C116.906 11.4532 116.707 11.3983 116.53 11.2993C116.86 11.5293 116.84 11.5893 116.53 11.5193C116.75 11.6793 116.74 11.6993 116.12 11.3993L116.53 11.5193L116.09 11.2193C116.28 11.5793 115.81 11.3993 115.81 10.9493C115.4 10.9493 115.32 10.7093 115.48 10.3493C115.28 10.2193 115.34 9.91929 115.48 9.54929C114.62 9.79929 113.93 9.92929 113.96 9.04929C112.75 9.87929 112.26 9.70929 111.96 8.29929C111.28 8.99929 110.83 8.46926 110.32 7.73926C110.18 8.11926 110 8.38927 109.74 8.30927C109.62 8.74926 109.41 8.83928 109.06 8.56927C108.67 8.94928 108.12 8.78926 108.8 8.39926C107.91 8.39926 107.32 8.39926 107.15 8.20926C106.98 8.01926 107.25 7.59927 108.04 6.87927C105.32 8.00927 104.74 7.87927 104.41 4.81927C103.57 7.56927 102.98 7.42927 101.06 5.68927C101.42 6.41927 101.45 6.75926 101.25 6.83926C101.082 6.86782 100.91 6.8363 100.764 6.75031C100.617 6.66431 100.506 6.52935 100.45 6.36926C99.9996 6.76926 99.4496 6.64928 100.14 5.97928C98.5696 6.26928 98.2896 5.97928 99.2996 4.75928C97.5096 5.75928 96.8296 5.75928 96.7196 3.47928C95.5996 5.63928 95.0596 5.47927 93.9196 3.62927C93.9896 4.62927 93.4496 4.02927 92.8496 3.15927C92.8496 4.32927 92.6896 4.87928 92.0096 4.69928C92.0096 5.09928 91.4796 4.75926 90.7196 4.11926C91.3696 5.25926 91.0696 5.21926 90.2596 4.48926C90.6796 5.15926 90.2596 5.11928 89.7396 4.91928C89.6196 5.02928 89.2996 4.98926 89.4696 4.73926C88.7196 4.91926 88.4696 4.88928 89.1096 4.16928C87.9896 4.72928 87.8096 4.59929 88.5896 3.54929C87.3496 4.54929 87.0796 4.61927 87.9196 2.96927C86.6496 4.48927 86.4896 4.28927 87.0696 2.46927C86.1796 4.24927 86.0696 4.46929 86.5696 2.26929C85.7596 4.38929 85.6496 4.16927 85.8696 2.06927C85.3296 4.13927 85.1296 4.31927 84.8696 1.96927C84.6396 4.32927 84.3396 4.16928 83.4696 2.13928C83.6996 4.13928 83.3596 4.19928 81.9696 2.78928C82.0695 2.9695 82.1564 3.15664 82.2296 3.34927C82.5996 3.86927 82.6796 4.02927 82.4596 3.84927C82.4596 3.94927 82.4596 3.95927 82.3296 3.84927C82.1996 3.73927 82.1496 3.84926 81.9796 3.70926C82.0396 3.92926 81.9796 3.99926 81.7296 3.95926C81.6526 3.9904 81.5666 3.9904 81.4896 3.95926C81.8696 4.10926 81.6996 4.07926 81.1896 3.86926L80.8496 3.72928C80.7951 3.77164 80.7315 3.80089 80.6639 3.81476C80.5963 3.82863 80.5264 3.82674 80.4596 3.80927C80.3496 3.72927 80.6296 3.43928 81.3096 2.85928C80.7671 3.17532 80.1756 3.3984 79.5596 3.51929C78.6796 3.62929 78.3496 3.00927 78.2396 1.21927C78.032 1.85188 77.7285 2.44883 77.3396 2.98926C77.232 3.13358 77.0716 3.22937 76.8935 3.25562C76.7154 3.28186 76.5342 3.23643 76.3896 3.12927C75.851 2.7724 75.3775 2.32595 74.9896 1.80927C75.3296 2.61927 75.4596 3.07927 75.6696 3.02927C75.7219 2.99589 75.772 2.95916 75.8196 2.91928C75.7789 2.96723 75.7275 3.0049 75.6696 3.02927C75.543 3.15029 75.3747 3.21783 75.1996 3.21783C75.0245 3.21783 74.8561 3.15029 74.7296 3.02927C74.2196 3.41927 73.9996 3.02928 73.9496 1.78928C73.9496 3.67928 73.5596 3.66928 73.3396 1.66928C72.8496 2.95928 72.5296 3.38927 72.1496 2.93927C72.0964 3.01429 72.0232 3.07282 71.9383 3.10818C71.8534 3.14355 71.7603 3.15434 71.6696 3.13928H71.5396C71.3769 3.19068 71.2023 3.19068 71.0396 3.13928C70.7896 3.21928 70.4296 3.03926 69.9196 2.64926L69.7496 2.51929L69.4996 2.33926C69.5796 3.02926 69.2996 2.92926 68.9796 2.42926C68.9474 2.20231 68.8973 1.97829 68.8296 1.75928C68.7496 1.41928 68.6796 0.989258 68.6096 0.489258C67.8296 3.54926 67.1796 3.54928 64.6796 1.85928C64.7167 1.9171 64.7501 1.97722 64.7796 2.03928C66.5996 3.43928 66.6396 3.50928 64.9196 2.32928C65.2996 2.87928 65.3496 3.17928 65.1396 3.32928C65.0443 3.39474 64.9344 3.43593 64.8196 3.44928C64.7335 3.46294 64.6457 3.46294 64.5596 3.44928C64.4457 3.4761 64.326 3.46042 64.2229 3.40518C64.1197 3.34994 64.0403 3.25892 63.9996 3.14926C64.0596 3.38926 64.1596 3.46927 64.2396 3.46927H64.3196C64.2939 3.47931 64.2653 3.47931 64.2396 3.46927C64.0396 3.46927 63.7996 3.46926 64.0096 3.17926C63.4696 3.40926 63.1196 3.48927 63.1496 3.30927H62.9896C62.9045 3.32919 62.8163 3.33149 62.7303 3.31601C62.6443 3.30053 62.5624 3.26761 62.4896 3.21927C62.0396 3.34927 61.9296 3.16928 62.1796 2.53928C62.142 2.207 62.142 1.87155 62.1796 1.53928C61.0896 3.53928 60.9896 3.53927 61.9696 1.43927C60.4596 3.58927 60.0396 3.60928 59.5596 0.889282C59.2896 1.80928 59.0196 2.42926 59.3196 2.64926L58.6096 3.05927L59.2596 2.96927L58.7996 3.10928H59.0396C57.8296 3.37928 56.9696 3.54926 56.3496 3.67926C55.7296 3.80926 55.3496 3.86928 55.8496 3.50928C54.8496 3.94928 54.6996 3.94928 55.6596 3.28928C54.4196 3.96928 54.2796 3.98927 55.3996 2.99927C53.7596 3.99927 53.3996 4.04927 54.2196 1.99927C52.8896 3.33927 52.0496 3.85926 50.8396 3.64926C50.6716 3.70178 50.4945 3.71883 50.3196 3.69928C50.2801 3.7221 50.2352 3.7341 50.1896 3.7341C50.144 3.7341 50.0991 3.7221 50.0596 3.69928C49.9696 3.79928 49.8296 3.81928 49.5896 3.75928C48.9573 3.54655 48.3503 3.26485 47.7796 2.91928C48.6896 3.62928 49.0896 3.97927 49.0996 3.96927C49.1096 3.95927 48.8696 4.01926 48.6396 3.89926L48.5796 3.95926C48.2796 4.23926 47.9496 4.18926 47.5796 3.70926C47.4096 4.12926 47.3396 4.21927 47.3196 3.99927C46.8696 4.56927 46.6696 4.38926 46.7296 3.23926C46.0196 4.73926 45.7296 4.77928 45.2796 3.13928C45.0796 4.85928 44.7696 4.89926 43.8096 3.45926C43.9896 4.21926 43.9896 4.60927 43.8096 4.68927C43.6296 4.76927 43.2596 4.53927 42.7296 4.02927C42.9496 4.57927 43.0096 4.85926 42.9496 4.92926C42.9115 4.94857 42.8694 4.9589 42.8267 4.95944C42.7839 4.95998 42.7416 4.95071 42.703 4.93237C42.6644 4.91403 42.6305 4.88711 42.6039 4.85364C42.5773 4.82017 42.5587 4.78102 42.5496 4.73926L42.3796 4.86926C42.3796 4.94926 42.3796 4.98929 42.4896 5.01929H42.7796C42.6247 5.05284 42.4645 5.05284 42.3096 5.01929C42.1017 5.05754 41.8909 5.07761 41.6796 5.07928C41.5196 5.07928 41.4296 5.07928 41.4296 5.07928H41.3496C41.2196 5.07928 41.1196 5.07927 41.0796 5.02927C41.0386 5.01663 41.001 4.99472 40.9698 4.96524C40.9386 4.93576 40.9146 4.89952 40.8996 4.85928C40.2396 5.24928 40.2296 5.21926 40.8996 4.73926C40.9353 4.46976 41.0347 4.21265 41.1896 3.98926C39.0796 5.52926 38.5096 5.63927 38.1896 2.77927C37.3796 5.85927 36.7996 5.96928 33.9896 4.53928C34.2879 4.86028 34.5252 5.23307 34.6896 5.63928C35.4596 5.98928 35.4696 6.02929 34.6896 5.79929C34.6978 5.87104 34.6875 5.94369 34.6594 6.01025C34.6314 6.07682 34.5867 6.13502 34.5296 6.17926C34.4601 6.26134 34.365 6.31769 34.2596 6.33926C34.2596 6.47926 33.7396 6.55927 32.8396 6.65927C33.3299 6.65097 33.8132 6.54205 34.2596 6.33926H34.1596C34.1596 6.45926 33.7996 6.53927 33.1596 6.59927C33.0532 6.61108 32.946 6.61108 32.8396 6.59927H32.6996C32.5766 6.47556 32.4782 6.32965 32.4096 6.16928C32.2678 5.8091 32.1704 5.433 32.1196 5.04929C31.0296 7.44929 30.3496 7.63926 28.0196 6.33926C28.4096 7.03926 28.5096 7.46926 28.6896 7.33926L28.7896 7.23926L28.6896 7.33926C27.9996 8.05926 27.4696 8.01928 27.2396 6.53928C27.3196 8.33928 27.0996 8.40928 27.0696 6.53928C26.5396 8.53928 26.2196 8.66926 26.0696 6.39926C25.5396 8.85926 25.2196 8.94928 23.9696 6.69928C24.5896 9.14928 24.2696 9.24927 22.3696 7.62927C23.6896 9.22927 23.4396 9.10928 22.1196 7.75928C22.8896 8.84928 22.8596 9.15928 21.9796 8.85928C22.3696 9.22928 22.3296 9.23928 21.7296 8.85928C21.9396 9.37928 21.6396 9.43927 21.0196 9.21927C21.2896 9.31927 21.0696 9.01928 20.8296 8.53928C20.8296 9.12928 20.6996 9.53926 20.5696 9.61926C20.4396 9.69926 20.2796 9.45928 20.0296 8.72928C19.8496 10.5493 19.3496 10.4593 18.0296 9.25928C18.7496 10.6893 18.6896 10.9893 17.2696 9.87927C18.2696 11.3893 17.9296 11.4693 16.3596 10.8293C17.3596 11.8293 16.9396 12.0293 15.9996 11.3893C16.4996 12.0393 16.2396 12.1893 15.6596 12.0293C15.9296 12.1093 15.8896 11.8692 15.8396 11.2892C15.4796 12.0692 15.0996 12.5093 14.8396 12.4993C14.5796 12.4893 14.3796 12.0493 14.2296 10.9993C13.5796 13.1993 13.0896 12.9393 12.0896 11.1893C12.3996 12.9893 12.2496 13.5393 10.3496 12.4593C11.7896 14.3193 11.4696 14.5392 9.2896 14.0992C10.5796 14.7592 9.99958 14.7393 8.92958 14.5693C9.70958 15.2293 9.77958 15.6293 8.92958 15.6393C9.56958 15.9693 9.40958 16.1793 8.86958 15.6393C9.03958 16.1793 8.86958 16.0093 8.58958 15.4593C8.59046 15.7127 8.55681 15.965 8.48958 16.2093C8.48958 16.2793 8.38958 16.1093 8.32957 15.5793C8.22957 16.6993 8.08959 16.3692 7.87959 15.4792C7.87959 16.5992 7.79958 17.1692 7.20958 15.7292C7.36958 17.3192 7.00958 16.8993 6.36958 15.8393C6.51958 16.8393 6.53959 17.5393 5.24959 16.6493C6.24959 18.5293 5.97959 18.8593 3.84959 18.2993C5.00959 19.2993 4.3296 19.3892 3.2896 19.4193C3.8096 19.6993 4.15958 19.9493 4.17958 20.1393C4.19958 20.3293 4.01958 20.6793 3.23958 20.8293L3.76958 21.0193C3.76958 20.9393 3.68959 20.8593 3.62959 20.7593C4.01959 21.0993 4.02958 21.1193 3.76958 21.0193C4.05958 21.6893 3.76958 21.8493 2.76958 21.5693C3.33958 21.9093 3.64959 22.1392 3.62959 22.2292C9.14959 22.2292 -3.9904 28.8893 1.5396 28.9693C38.3296 29.6393 94.2596 25.6292 131.12 25.0992Z" fill="#6DFC6D"/>
</svg>
