<svg width="291" height="96" viewBox="0 0 291 96" fill="none" xmlns="http://www.w3.org/2000/svg">
<path d="M289.79 51.429C289.365 52.1477 289.115 52.9561 289.06 53.7891C284.72 77.0591 222.66 95.5091 146.74 95.5091C76.4402 95.5091 18.0202 79.689 6.31018 58.869C5.85018 58.039 5.45019 57.1991 4.69019 56.9191C4.81019 55.4991 4.57019 54.6391 2.69019 55.0991C4.28019 52.9291 4.20021 52.0491 0.84021 52.3091C4.20021 50.5191 4.24016 49.8591 0.160156 49.3791C4.43016 48.5491 4.56018 47.8991 0.680176 46.1291C4.94018 46.5991 5.16018 45.959 1.87018 43.869C5.17018 44.869 4.95016 44.3791 2.41016 43.0091C4.86016 43.6391 5.50016 43.1891 4.41016 41.4091C5.68016 42.4091 5.1902 42.0591 3.5202 41.5491C5.2602 41.2291 5.81019 40.7591 5.63019 40.1691C5.57019 39.7791 4.79019 39.2891 3.63019 38.7291C5.98019 38.6791 7.49021 38.4691 4.90021 36.5091C9.64021 37.6291 10.2702 36.9791 8.0202 33.2291C10.8802 34.9991 10.8602 33.6591 10.5202 31.6391C11.9402 33.7391 12.7402 34.5691 12.3802 31.4191C13.7002 34.2691 13.8702 33.1391 13.8802 30.9091C14.3502 32.6791 14.6702 33.3391 14.8802 31.119C15.0202 32.169 15.1202 32.4891 15.2202 32.3591C15.3768 31.8778 15.4578 31.3751 15.4602 30.869C15.9702 31.969 16.4602 32.309 16.0602 31.239C17.2802 32.239 17.6402 31.8291 16.2002 31.1691C18.1202 31.1691 17.9602 30.3391 16.2002 29.0291C18.5902 29.3591 19.8702 29.3991 17.0002 28.0991C21.8602 28.9791 22.5802 28.5291 19.3702 24.8291C23.6302 26.9891 23.9602 25.8891 23.2502 22.3191C25.5002 25.8091 26.5802 26.3191 28.0402 21.9391C28.3602 24.0391 28.7802 24.9391 29.4102 24.9391C30.0402 24.9391 30.8602 24.0791 31.6602 22.5191C31.7802 23.6691 31.8602 24.1491 31.2602 24.0091C32.5502 24.3191 33.1602 24.0091 32.0202 22.7291C34.1302 24.0091 35.1102 23.6291 32.8402 21.6291C36.3502 22.8891 37.1302 22.729 34.8402 19.739C38.0102 21.949 38.1402 21.3391 36.5402 18.5191C39.3902 20.8991 40.5402 21.0691 40.9002 17.4491C41.4802 18.8991 41.9002 19.3891 42.1202 19.2191C42.3402 19.0491 42.5802 18.2191 42.7002 17.0691C43.2402 18.0691 43.7002 18.649 43.1102 18.429C44.8402 18.979 45.4602 18.7091 44.2402 16.8591C46.3002 18.6291 46.5302 18.7991 44.0302 17.3191C47.1902 18.5491 47.6102 18.1091 45.5602 15.5691C48.5602 18.2491 49.0902 18.4891 46.1202 15.2991C50.3602 18.5291 51.0602 18.2991 49.7002 13.4491C52.4802 17.9291 53.1802 17.739 54.3802 12.869C54.6102 17.369 55.3802 17.1791 56.5202 13.1291C56.5802 16.8591 57.0802 16.7291 56.8902 13.1291C57.4302 16.2091 58.6802 16.1291 60.3502 14.5191C59.8002 15.2191 59.6702 14.3191 58.6202 12.6691C63.8102 15.2591 65.3602 14.8791 67.8002 10.1091C67.8971 10.8778 68.113 11.6267 68.4401 12.3291C68.5958 12.6543 68.8171 12.9436 69.0901 13.179C70.3801 13.339 71.5402 12.769 69.4802 11.929C71.4802 12.199 72.3602 12.349 69.9102 11.929C72.5302 12.759 71.7902 12.9891 69.3102 13.2491C72.3702 12.9891 73.6801 12.7691 70.0901 11.7291C73.9401 12.7291 72.8802 12.9491 69.3502 13.3091C72.6402 12.9791 74.2802 12.649 70.6702 10.649C76.0702 12.269 76.2301 12.229 70.9501 10.209C74.9501 12.439 73.4202 12.6991 69.5102 12.8891C73.3302 12.7091 75.1302 12.3891 71.9202 9.00906C78.2202 11.8391 79.5102 11.6091 81.3102 5.49905C82.0702 11.1791 83.3102 10.9791 88.0502 7.90906C86.4002 10.4791 88.1802 10.1991 90.6002 9.77905C88.1102 10.2191 86.6601 10.4591 88.8201 8.51907C85.3701 10.6991 85.5301 10.6991 89.0801 8.75906C87.2801 10.4791 88.8701 10.2791 91.0801 9.99905C88.6901 10.3391 87.6902 10.489 89.7402 9.39905C87.9402 10.479 89.1902 10.3191 91.2902 10.0191C89.8302 10.1791 89.2202 10.2191 90.1502 9.65906C89.3402 9.99906 90.0702 9.74906 91.2902 9.34906C89.9002 10.1091 90.4202 10.2591 91.6502 10.0491C90.6502 10.1191 90.4002 9.81906 91.2602 8.87906C90.8102 9.75906 91.5502 9.99905 92.0202 9.80905C92.1602 9.66905 92.0202 9.11907 91.5102 8.01907C92.7102 9.01907 93.5101 9.49905 93.9401 9.33905C94.3701 9.17905 94.3201 8.39907 93.9401 6.88907C96.0901 9.74907 96.7901 9.65905 97.2101 6.24905C98.2101 9.49905 98.8801 9.42905 100.46 6.42905C100.29 9.26905 101 9.19907 102.57 6.94907C101.73 8.81907 101.75 8.50906 101.77 6.46906C102.77 8.39906 103.87 8.59906 104.77 7.71906C104.28 8.27906 103.63 7.76904 102.21 6.23904C104.21 7.70904 105.41 8.17906 105.74 7.90906C105.74 7.90906 104.82 7.22905 102.74 5.80905C104.012 6.50909 105.352 7.07546 106.74 7.49905C108.48 7.88905 108.35 6.70906 106.61 3.28906C109.71 8.35906 109.17 8.39905 103.22 5.33905C109.36 8.33905 110.79 8.26906 112.22 2.46906C112.3 8.16905 112.43 8.14905 113 2.55905C111.2 8.22905 109.85 8.31905 103.61 4.95905C110.46 8.26905 112.43 8.13906 117.14 3.90906C115.26 7.90906 116.14 7.90907 119.8 5.85907C117.3 7.80907 117.61 7.78906 120.37 6.43906C118.22 7.74906 118.53 7.72907 120.79 6.85907C119.69 7.58907 120.53 7.44905 121.92 7.20905C123.31 6.96905 125.21 6.60905 127.92 6.08905C120.83 7.08905 120.92 6.55907 125.01 1.29907C122.01 6.16907 123.34 6.55907 128.42 5.88907C125.55 6.64907 126.42 6.35906 128.56 5.25906C127.88 4.82906 128.48 3.58905 129.08 1.74905C130.15 7.15905 131.08 7.12906 134.48 2.84906C132.29 7.07906 132.48 7.06905 134.94 3.05905C134.44 7.05905 136.14 6.98907 138.58 5.82907C136.77 6.94907 135.7 6.95907 135.68 3.44907C133.61 6.97907 134.54 6.96906 138.05 5.28906C136.26 6.94906 137.05 6.93906 138.99 6.22906C138.46 6.88906 139.2 6.89907 139.68 6.76907C139.54 6.86907 139.15 6.82907 138.98 6.16907C139.14 6.82907 140.22 6.86905 140.56 6.64905C140.9 6.42905 140.5 5.95906 138.96 5.03906C140.64 5.95906 141.19 6.42907 140.89 6.63907C140.561 6.7628 140.201 6.78312 139.86 6.69736C139.519 6.61159 139.212 6.42381 138.98 6.15906C139.33 6.81906 140.62 6.84904 141.16 6.48904C141.7 6.12904 141.49 5.37907 140.09 3.85907C144.98 6.85907 145.09 6.85907 140.35 3.63907C141.83 5.25907 142.09 6.06905 141.52 6.45905C141.112 6.66558 140.652 6.74638 140.198 6.69119C139.744 6.63601 139.317 6.44732 138.97 6.14905C139.22 6.80905 140.44 6.84907 141.02 6.44907C141.6 6.04907 141.57 5.19907 140.49 3.51907C146.06 6.86907 147.49 6.86906 149.27 0.789062C149.378 1.64398 149.535 2.49204 149.74 3.32907C149.888 3.76357 150.005 4.208 150.09 4.65906C150.85 5.65906 151.5 5.87907 151.23 4.26907C152.83 5.41907 153.43 5.15905 153.23 3.33905C154.23 4.13905 154.51 3.33905 154.35 2.24905C154.69 3.66905 154.78 4.59905 153.73 3.24905C154.29 5.73905 153.73 5.97905 151.42 4.24905C154.17 6.24905 155.18 6.34906 154.42 3.15906C155.66 5.83906 155.16 5.25905 153.09 3.30905C155.86 5.25905 157.09 5.83905 156.79 2.83905C156.97 6.37905 155.71 6.32906 151.67 4.12906C155.17 6.33906 156.67 6.49907 157.47 2.85907C158.26 6.63907 158.38 6.59907 157.96 2.85907C157.12 6.31907 155.73 6.07906 152.33 3.78906C156.51 6.25906 157.67 6.53907 157.45 2.85907C157.2 6.65907 155.56 6.48905 151.45 4.20905C154.85 6.20905 155.82 6.20907 155.31 2.94907C156.06 5.31907 155.31 4.52905 153.76 2.86905C154.76 4.53905 154.96 5.32907 153.61 3.32907C154.36 6.19907 153.61 6.32907 151.13 4.38907C153.58 6.29907 154.35 6.21905 153.59 3.33905C154.95 5.33905 154.78 4.54906 153.75 2.87906C155.31 4.56906 156.01 5.36907 155.2 2.97906C155.74 6.28906 154.78 6.39907 151.26 4.32907C155.44 6.67907 157.06 6.83906 157.26 2.87906C157.55 6.87906 156.37 6.79907 151.59 4.19907C156.46 6.79907 157.72 6.89906 157.59 2.87906C157.29 6.87906 155.59 6.71907 151.22 4.35907C155.07 6.51907 156.17 6.45907 155.7 2.91907C156.37 5.70907 155.47 5.02905 153.3 3.14905C155.05 5.01905 155.54 5.69905 154.3 3.14905C155.06 6.40905 154.11 6.44905 151.07 4.39905C154.14 6.46905 155.13 6.44907 154.36 3.13907C155.58 5.78907 155.05 5.13906 153.1 3.21906C155.55 5.21906 156.57 5.80907 156.04 2.85907C156.43 6.48907 155.26 6.53906 151.21 4.31906C154.84 6.62906 156.21 6.74907 156.79 2.85907C157.79 6.85907 157.95 6.85907 157.4 2.85907C156.78 6.85907 155.46 6.74905 151.5 4.20905C155.34 6.74905 156.69 6.83905 157.37 2.86905C158.01 6.93905 157.99 6.94905 157.23 2.86905C156.57 6.86905 155.17 6.86906 151.17 4.40906C154.36 6.83906 155.44 6.87907 155.64 2.97906C157.31 6.97906 158.07 6.97905 159.73 3.08905C160.22 7.08905 161.15 7.08905 161.08 3.33905C161.23 6.58905 162.01 6.86905 164.08 4.70905C162.36 6.70905 161.91 6.19906 161.68 3.43906C162.62 6.22906 163.78 6.72907 165.41 5.54907C164.71 6.25907 164.49 5.28906 163.58 3.34906C164.47 4.38409 165.524 5.26583 166.7 5.95905C167.029 6.17368 167.423 6.26347 167.812 6.2121C168.201 6.16072 168.559 5.97159 168.82 5.67905C169.689 4.63298 170.366 3.44125 170.82 2.15906C171.04 5.71906 171.82 6.94904 173.75 6.73904C175.104 6.49474 176.414 6.05339 177.64 5.42905C176.14 6.57905 175.52 7.14906 175.76 7.31906C176 7.48906 177.06 7.21906 177.41 6.18906C178.13 7.29906 178.12 7.62906 176.52 7.09906C178.81 7.99906 179.52 8.04906 176.52 7.09906C178.58 7.91906 179.42 7.98907 177.9 5.94907C180.63 8.04907 180.99 8.02906 178.9 5.28906C181.2 8.03906 181.05 8.07906 178.31 5.65906C180.02 8.03906 179.14 7.95905 176.66 6.96906C178.52 7.89906 179.13 7.96906 177.66 6.09906C180.21 7.95906 180.66 7.91905 179.07 5.17905C182.19 7.96905 182.95 7.77906 182.43 3.87906C184.38 7.87906 185.05 8.22906 185.56 3.53906C186.17 8.19906 186.62 7.84905 187.83 3.74905C187.32 7.90905 187.58 8.32906 189.38 4.12906C188.17 8.40906 188.51 8.05905 190.51 4.52905C189.21 8.12905 189.51 8.52905 192.4 5.52905C190.53 8.81905 191.14 8.66905 193.9 6.67905C192.16 8.77905 192.56 9.02907 195.06 7.91907C193.57 9.33907 194.18 9.40905 195.87 9.05905C195.49 9.54905 196.2 9.62907 196.46 9.41907C197.74 9.79907 198.58 9.88905 197.64 8.55905C199.45 9.99905 200.11 10.0991 198.64 7.82907C200.34 9.09907 201.52 9.77904 201.53 8.98904C203.05 9.33904 203.39 8.22907 203.41 5.91907C204.75 7.64907 205.94 8.83905 205.79 6.83905C208.35 10.449 209.56 10.8391 212.06 6.54907C212.29 11.1291 213.82 11.0091 217.81 9.08905C215.56 11.569 216.18 12.0891 219.69 11.5091C218.09 12.8491 219.38 13.0891 220.39 12.2891C220.537 12.6235 220.793 12.8984 221.117 13.0691C221.44 13.2397 221.811 13.2961 222.17 13.2291C222.63 13.0691 222.56 12.3991 221.74 10.9391C226.05 14.3991 227.37 14.6791 229.24 9.21906C229.98 15.2191 231.24 15.5491 237.34 13.3091C235.57 14.7291 235.01 15.5191 235.34 15.9391C235.67 16.3591 237.02 16.3891 239.01 16.3191C237.51 17.0891 238.73 17.409 239.6 16.649C240.38 17.189 240.86 17.0091 241.13 16.1591C241.72 16.2991 242.13 15.7791 242.43 15.0191C243.56 16.4791 244.57 17.5291 246.07 16.1391C246.66 18.9291 247.76 19.2591 250.45 17.6091C250.45 19.3591 251.93 19.0991 253.85 18.6091C253.5 19.3391 253.37 19.9391 253.85 20.1991C253.47 20.9291 253.67 21.319 254.58 21.399C254.58 22.289 255.64 22.669 255.21 21.929C256.44 22.699 257.3 23.1591 255.28 22.2891C256.72 22.7291 257.22 22.7491 255.75 21.8791C257.3 22.2491 256.87 21.7291 256.02 20.8791C257.02 21.6191 257.7 22.1591 255.96 21.5591C256.96 22.0891 257.28 22.3291 257.04 22.0691C257.04 22.3791 256.46 22.1791 255.53 21.8291C256.8 22.3691 257.73 22.7491 257.66 21.9191C258.13 22.8291 257.6 22.5291 255.96 21.7191C257.74 22.3891 258.41 22.5491 258.17 21.7791C258.25 22.1091 257.44 21.5291 256.27 20.7191C258.7 21.7191 259.69 21.8491 257.64 19.5991C260.24 20.9591 259.81 19.9291 258.86 18.2591C259.94 19.5991 260.56 20.399 258.71 18.709C260.59 20.799 260 20.3791 258.19 18.7991C259.92 20.4891 260.95 21.5091 258.19 19.1991C259.13 20.0591 259.84 20.7191 260.32 21.1391C260.8 21.5591 261.01 21.6991 260.97 21.4391C260.97 21.7691 260.69 21.6691 260.16 21.3191C259.63 20.9691 258.84 20.3691 257.79 19.5591C260.79 22.0891 259.65 21.2491 257.36 19.5591L259.1 20.899C259.57 21.249 259.89 21.4791 259.98 21.4491C260.11 21.6691 259.98 21.6491 259.62 21.3791C259.26 21.1091 258.56 20.649 257.54 19.899C258.07 20.289 258.54 20.6591 259.01 20.9491C259.359 21.2292 259.777 21.4089 260.22 21.4691C261.01 22.3191 261.61 22.5991 262.22 21.5191C262.48 22.7591 262.64 23.2891 262.93 21.7791C262.7 23.3191 262.61 22.7791 262.43 21.5391C261.83 22.8091 261.23 22.6291 260.38 21.5391C260.02 21.7691 259.59 21.6391 259.1 21.3891C258.542 21.0868 258.001 20.7529 257.48 20.3891C258.065 20.8131 258.683 21.1878 259.33 21.5091C259.564 21.6656 259.839 21.7491 260.12 21.7491C260.401 21.7491 260.676 21.6656 260.91 21.5091C261.43 22.3691 261.91 22.7591 262.55 21.7291C262.91 22.8891 263.41 22.6391 264.06 21.7991C264.06 23.0591 264.14 23.7191 265.12 22.2691C264.74 24.0591 265.23 23.7191 266.2 22.4791C265.67 23.9491 265.62 24.4791 266.91 22.9791C266.1 24.6091 266.63 24.159 267.6 23.119C266.6 24.659 266.24 25.3391 267.91 23.5491C266.45 25.4591 267.03 24.9091 268.35 23.5491C267.09 24.9291 266.57 25.5491 268.35 23.7891C266.77 25.6291 267.46 25.1591 269.01 23.9991C268.01 24.9991 267.66 25.569 269.24 24.429C267.87 25.869 268.46 25.6591 269.94 24.8091C268.8 25.9491 268.54 26.4691 270.47 25.6291C269.06 26.8891 269.85 26.799 271.33 26.399C270.51 27.149 270.4 27.5891 271.8 27.4991C270.86 28.2691 271.44 28.4991 272.5 28.6591C272.38 29.0991 272.73 29.4591 273.25 29.8191C273.871 30.2202 274.516 30.5841 275.18 30.9091C274.52 30.5691 273.92 30.2491 273.45 29.9091C272.98 29.5691 272.62 29.3191 272.64 28.9991C271.17 28.6791 270.64 28.319 271.99 27.459C270.52 27.639 269.99 27.6991 271.55 27.0591C270 27.7391 270.62 27.739 272.07 27.619C270.93 28.399 271.56 28.749 272.72 29.119C273.061 29.442 273.453 29.7057 273.88 29.899L275.59 30.7591L273.14 29.5291C272.69 29.2991 272.6 29.2291 272.82 29.2791C273.135 29.4906 273.47 29.6714 273.82 29.8191L275.96 30.8191C272.96 29.3691 271.46 28.5991 275.77 30.5291C274.77 30.0791 274.02 29.6991 273.43 29.3791C272.84 29.0591 272.43 28.8091 272.5 28.5591C271.36 28.3691 271.39 28.3391 272.5 28.4691C272.56 28.6691 272.98 28.879 273.61 29.149L276.03 30.149C271.93 28.389 273.6 29.0191 276.45 30.0991C274.05 29.0991 272.82 28.6191 276.26 29.8091C271.72 28.0491 271.84 27.989 276.49 29.3391C273.31 28.2091 274.66 28.5091 276.96 29.0191C274.33 28.1591 273.34 27.6691 276.96 27.8391C273.56 26.8391 274.82 26.4791 277.48 25.9791C274.81 26.6591 273.6 27.1891 276.82 28.3891C273.38 28.1291 274.37 28.5491 276.89 29.1091C273.89 28.8691 272.5 28.7791 275.78 30.5891C272.1 29.1691 273.14 29.6491 275.94 30.8791C272.94 29.5791 271.77 29.1491 275.31 31.2491C271.82 29.4291 273.04 30.1191 275.54 31.4691C273.4 30.1791 272.54 29.549 275.77 30.649C272.94 28.899 274.16 28.889 276.88 29.149C274.23 28.929 273.08 28.979 275.78 30.649C272.78 29.649 273.58 30.239 275.58 31.429C273.27 30.199 272.14 29.5491 275.4 31.1591C272.12 29.2191 273.22 29.5491 276.09 30.6591C273.02 29.3891 271.79 28.9291 275.53 30.9391C271.82 29.1291 273.1 29.7991 275.79 31.1291C273.44 29.8391 272.5 29.2191 275.95 30.3591C272.85 28.6591 274.12 28.7191 276.95 29.0691C274.45 28.8991 273.46 29.019 275.95 30.489C273.3 29.649 274.12 30.1591 275.95 31.0191C274.42 30.1991 273.88 29.7291 276.16 30.2191C274.25 28.9791 275.16 28.7091 277.16 28.5091C275.36 28.9191 274.64 29.3791 276.02 30.5091C274.34 30.2691 274.76 30.6891 275.82 31.2291C274.82 30.6891 274.44 30.289 276.04 30.489C274.76 29.409 275.46 28.939 277.18 28.489C275.29 28.749 274.44 29.069 276.18 30.239C274.09 29.839 274.56 30.2391 275.96 31.0391C274.28 30.2591 273.53 29.7691 275.96 30.4791C273.68 29.0891 274.61 28.8991 276.96 28.9491C274.29 28.7291 273.07 28.7391 275.96 30.3791C272.7 29.3791 273.56 29.9691 275.77 31.1991C273.19 29.9291 271.96 29.269 275.53 30.989C271.94 28.989 273.14 29.4091 276.15 30.5991C273.15 29.4591 272.05 29.0991 275.51 31.0191C272.11 29.3691 273.32 30.0191 275.78 31.1891C273.84 30.0691 273.16 29.5091 276.05 30.2791C273.61 28.8091 274.73 28.6691 277.05 28.6291C275.13 28.8991 274.43 29.2791 276.05 30.3791C274.31 30.0491 274.86 30.4391 276.05 30.9191C275.43 30.5491 275.41 30.279 276.34 30.179C275.91 29.549 276.43 29.0991 277.26 28.5191C276.811 29.0744 276.533 29.7484 276.46 30.459C276.29 30.899 276.34 31.2091 276.46 31.3191C276.82 31.5291 277.65 30.9691 279.15 29.5591C277.01 32.8791 277.55 32.8291 280.55 30.5591C277.73 33.8591 277.97 34.0291 281.82 31.8091C278.99 33.9491 278.95 34.3391 282.67 33.0091C279.4 34.8091 279.9 34.8891 283.24 34.0091C280.48 35.3391 280.56 35.729 283.78 35.5891C282.44 36.029 281.9 36.3291 281.99 36.5891C282.08 36.849 282.8 37.0291 283.99 37.1591C282.51 37.7091 282.99 38.1591 284.62 37.7191C284.29 39.3291 285.02 39.969 287.33 39.369C284.48 39.5891 284.04 39.3191 285.16 38.0091C284.24 39.7591 284.88 40.4791 287.66 39.6891C285.75 41.5991 285.97 41.9991 288.87 40.9491C286.54 42.9491 286.87 43.5491 290.22 43.1991C287.76 45.2791 288.22 46.4391 290.77 47.9091C289.14 48.7891 289.3 49.979 289.79 51.429Z" fill="#6DFC6D"/>
</svg>
