<svg width="414" height="332" viewBox="0 0 414 332" fill="none" xmlns="http://www.w3.org/2000/svg">
<path d="M217.694 93.6747C229.027 93.5986 240.305 95.2613 251.134 98.6047C253.25 99.2167 255.332 99.9377 257.374 100.765C266.155 104.429 273.934 110.137 280.064 117.415C281.254 118.495 283.544 118.585 285.604 119.555C287.424 120.225 289.294 120.855 291.164 121.485C293.034 122.115 294.804 122.705 296.694 123.265C312.894 125.735 331.094 117.655 345.964 128.725C353.304 134.565 358.024 143.575 367.404 146.895C369.271 147.684 371.177 148.378 373.114 148.975L380.684 151.525C383.992 152.538 386.938 154.483 389.169 157.128C391.4 159.772 392.822 163.003 393.264 166.435C401.934 189.255 425.184 179.545 429.484 189.525C440.484 215.095 474.874 126.335 458.314 84.7147C429.714 12.8647 286.214 -15.9753 267.784 8.62474C259.914 19.1147 279.374 33.2647 272.384 47.9847C256.534 81.3247 144.604 33.9147 67.0639 68.9147C-0.446136 99.3947 -40.7461 191.855 -8.93614 239.915C18.5039 281.375 129.474 302.315 232.344 294.475L237.564 294.055C244.044 293.745 250.834 291.975 257.514 292.865C259.971 293.743 262.475 294.484 265.014 295.085C281.324 298.885 296.084 295.675 307.504 287.775C311.323 285.123 314.768 281.967 317.744 278.395C319.249 276.584 320.639 274.681 321.904 272.695C323.188 270.673 324.344 268.572 325.364 266.405C326.504 265.095 327.654 263.785 329.264 262.025C344.864 243.905 365.674 219.765 365.674 219.765C364.864 220.165 330.354 220.585 291.314 221.095C289.244 221.175 287.164 221.215 285.084 221.265C283.004 221.315 280.904 221.425 278.814 221.475C276.724 221.525 274.604 221.565 272.494 221.605C255.724 222.035 239.764 223.425 222.864 222.105L215.864 222.245C204.604 222.465 195.174 222.705 188.814 222.965C186.934 223.045 185.324 223.135 183.954 223.225C172.444 223.135 161.104 220.005 149.644 219.535C157.344 217.395 165.524 216.085 173.164 214.165L180.554 212.595L289.164 189.495L297.404 187.725C311.644 184.725 325.634 179.995 339.644 178.725C341.574 178.335 341.594 150.175 343.514 149.725C391.264 139.575 388.194 180.245 388.194 180.245C383.754 181.415 457.764 185.495 409.364 198.585C407.574 199.065 336.454 185.145 334.644 185.585C327.574 188.015 320.284 188.945 313.054 191.385L305.854 193.305C269.684 202.955 231.064 213.015 197.854 221.105L193.264 222.245C170.494 229.245 147.064 232.165 123.064 232.245C121.529 232.392 120.007 232.66 118.514 233.045C117.064 233.405 115.664 233.835 114.274 234.225C102.274 238.785 86.2739 238.125 77.8439 228.555C67.5539 217.675 140.294 194.925 143.284 181.405C143.754 180.015 69.2545 179.965 70.0645 178.745C71.0483 177.289 69.6514 182.28 70.9839 181.135C72.4039 179.805 145.814 202.545 147.484 201.255C154.614 196.075 92.6439 165.985 96.5639 161.255C104.894 152.575 112.854 140.385 122.014 130.625C123.714 129.325 141.354 182.305 143.284 181.435C152.364 176.755 186.994 137.045 195.834 140.695C196.224 127.985 166.704 109.155 175.924 102.265C174.564 113.735 180.584 119.515 182.034 118.685C183.484 117.855 225.574 120.595 227.154 119.935C236.054 116.525 201.914 91.9347 211.774 92.8447C213.654 93.0047 215.634 93.3147 217.694 93.6747Z" fill="#0097DD"/>
<ellipse cx="244" cy="184" rx="204" ry="102" fill="#0097DD"/>
<path d="M451.828 291.005C460.918 280.085 455.768 265.635 456.688 252.005C456.732 251.464 456.825 250.928 456.968 250.405C457.448 248.541 457.746 246.636 457.858 244.715C458.112 239.323 456.594 233.996 453.538 229.547C450.481 225.098 446.052 221.771 440.928 220.075L420.258 213.135C417.678 212.275 418.778 215.315 417.428 216.395C413.088 219.395 408.698 222.045 403.428 223.055C422.908 219.225 434.598 196.875 425.358 178.565C420.218 167.365 408.878 164.675 400.178 158.175C399.79 157.884 399.437 157.549 399.128 157.175C398.149 156.025 397.1 154.937 395.988 153.915C391.975 150.254 387.235 147.48 382.078 145.775L364.718 139.945L357.878 137.655C356.588 137.255 355.328 136.815 354.098 136.325C353.182 135.935 352.373 135.332 351.738 134.565C335.558 115.565 314.858 109.275 290.428 114.085C289.433 114.29 288.403 114.248 287.428 113.965C286.238 113.585 285.068 113.195 283.908 112.805C282.298 112.265 280.688 111.725 279.128 111.145C278.968 111.085 278.798 111.045 278.638 110.995C267.758 108.275 263.748 97.3749 254.638 91.5649C253.128 90.4349 250.788 90.1449 248.958 89.6449C248.481 89.5209 247.991 89.457 247.498 89.4549C227.438 89.3549 206.388 82.5149 187.298 92.1149C185.83 92.8326 184.411 93.6443 183.048 94.5449C181.687 95.4631 180.384 96.4651 179.148 97.5449C172.148 103.425 164.378 110.065 160.998 118.735C159.538 122.455 155.868 124.565 152.498 123.645C146.158 121.925 139.848 120.365 133.938 124.695C132.311 125.539 130.774 126.544 129.348 127.695C128.954 128.019 128.592 128.381 128.268 128.775C119.728 138.875 112.148 151.175 104.348 160.095C100.588 165.095 91.3478 171.645 84.6678 177.095C83.0778 178.465 81.5678 179.705 80.2078 181.095C78.9288 182.311 77.8098 183.686 76.8778 185.185C76.2057 186.261 75.6397 187.4 75.1878 188.585C75.0343 189.009 74.9106 189.443 74.8178 189.885C72.0978 202.885 76.4778 216.495 83.2978 226.885C90.4378 238.965 105.298 234.275 116.778 237.085C118.848 237.595 120.928 238.005 123.038 238.325C142.038 241.245 152.288 259.645 171.678 260.815C177.118 261.255 189.468 258.565 194.398 260.045C196.308 260.725 201.478 267.045 203.398 267.735C209.708 269.825 211.988 259.405 217.648 261.295C220.378 262.215 224.298 257.875 227.848 255.425C228.818 254.703 229.974 254.272 231.18 254.183C232.386 254.095 233.593 254.352 234.658 254.925C235.088 255.165 235.498 255.435 235.908 255.715C237.188 256.575 238.138 257.715 239.398 258.555C248.398 265.555 259.398 267.405 270.158 269.095C270.705 269.178 271.237 269.34 271.738 269.575C272.818 270.095 273.998 270.715 275.268 271.245L275.608 271.375C281.828 273.495 287.428 277.375 292.208 279.705C293.692 280.328 295.288 280.641 296.898 280.625C297.349 280.625 297.798 280.575 298.238 280.475C308.598 278.295 319.648 282.015 329.288 285.925C334.288 287.615 334.288 295.925 338.518 298.015C348.828 302.155 358.518 304.085 365.698 312.675C365.928 312.96 366.182 313.224 366.458 313.465C367.998 314.775 369.598 316.005 371.278 317.175C377.031 321.057 383.29 324.132 389.878 326.315C413.318 334.175 436.318 330.115 444.628 317.455C445.445 316.202 446.116 314.86 446.628 313.455C446.767 313.067 446.877 312.669 446.958 312.265C447.958 307.265 449.548 302.535 449.758 298.015C449.758 297.628 449.758 297.238 449.758 296.845C449.759 294.719 450.49 292.657 451.828 291.005Z" fill="white" stroke="white" stroke-width="2" stroke-miterlimit="10"/>
<path d="M170.8 220.74C174.88 216.68 166.41 214.37 167.63 209.3C167.39 207.78 166.96 205.73 168.08 203.66C168.612 202.773 169.327 202.009 170.177 201.419C171.027 200.829 171.993 200.427 173.01 200.24C174.64 199.885 176.343 200.115 177.82 200.89C180.19 202.19 180.94 204.58 181.38 205.98C182.131 208.002 182.131 210.227 181.38 212.25C180.78 214.25 177.27 215.12 178.22 218.06C179.66 222.19 185.42 222.06 188.12 218.52C189.645 217.288 190.841 215.698 191.6 213.89C192.39 211.94 192.41 210.08 192.42 206.44C192.42 202.56 192.06 200.87 192.83 200.52C193.6 200.17 194.74 201.15 195.38 202.11C195.73 202.62 196.38 203.91 195.59 208.22C194.82 212.22 193.99 212.34 194.25 214.07C194.32 214.59 194.54 215.54 197.63 219.47C198.96 221.16 200.12 222.47 200.96 223.47C202.898 224.262 205.051 224.354 207.05 223.73C208.39 222.46 210.6 223.73 210.31 219.73C209.85 217.98 208.18 217.29 206.93 216.23C206.315 215.398 205.998 214.384 206.03 213.35C205.849 210.001 206.081 206.642 206.72 203.35C207.29 200.02 207.56 199.35 208.15 198.6C209.209 197.382 210.639 196.545 212.22 196.22C213.595 195.846 215.045 195.846 216.42 196.22C218.391 196.73 220.396 197.098 222.42 197.32C226.18 197.74 235.33 198.32 233.62 191.59C233.333 190.775 232.871 190.033 232.267 189.416C231.662 188.799 230.929 188.322 230.12 188.02C229.86 187.42 229.5 186.59 229.04 185.6C227.98 183.33 227.7 182.96 227.36 182.67C226.464 181.926 225.31 181.566 224.15 181.67C224.82 178.36 224.33 177.2 223.7 176.79C223.07 176.38 222.24 176.79 219.93 177C218.681 177.153 217.417 177.116 216.18 176.89C213.83 176.35 213.83 174.89 210.66 173.07C209.234 172.143 207.617 171.552 205.93 171.34C204.75 171.23 204.49 171.45 200.87 172.09C196.47 172.86 195.68 172.74 195.2 172.63C193.75 172.32 193.25 171.71 190.99 170.15C188.976 168.759 186.864 167.515 184.67 166.43C182.61 165.43 181.08 165.17 175.89 164.43C172.01 163.86 169.11 163.43 167.08 163.16C160.77 162.16 154.36 163.47 149.79 168.1C148.662 169.117 147.637 170.242 146.73 171.46C145.009 173.728 143.736 176.304 142.98 179.05C142.108 181.871 141.903 184.856 142.38 187.77C142.61 189 142.95 190.01 143.57 193.17C144.08 195.75 144.33 197.06 144.18 197.91C143.77 200.37 142.29 200.5 141.45 203.51C141.029 204.868 140.93 206.306 141.16 207.71C141.52 209.71 142.32 209.71 143.34 212.4C143.307 213.678 143.591 214.945 144.167 216.087C144.743 217.229 145.593 218.21 146.641 218.943C147.689 219.676 148.902 220.138 150.173 220.288C151.443 220.437 152.73 220.27 153.92 219.8C158.04 218.36 154.35 213.5 152.64 211.32C151.9 209.25 153.2 206.99 154.33 205.02C155.21 203.5 155.69 202.65 156.33 202.66C156.97 202.67 157.86 203.66 158.43 205.04C159.077 206.622 159.301 208.345 159.08 210.04C155.34 215.28 161.28 220.86 166.95 221.53C167.607 221.73 168.303 221.763 168.975 221.625C169.648 221.487 170.275 221.183 170.8 220.74Z" fill="#F9C6CA"/>
<path d="M290.89 220.45C291.01 220.84 291.549 222.23 296.169 223.86C298.083 224.533 300.055 225.025 302.06 225.33C308.21 226.19 309.77 224.86 313.06 226.47C314.656 227.148 315.982 228.337 316.83 229.85C317.29 230.74 317.41 231.53 317.299 235.15C317.267 238.738 316.79 242.309 315.88 245.78C315.684 246.871 315.132 247.867 314.31 248.61C313.17 249.49 312.31 249.01 311.31 249.89C310.778 250.373 310.386 250.989 310.175 251.675C309.964 252.362 309.941 253.092 310.109 253.79C310.323 254.385 310.654 254.931 311.084 255.395C311.513 255.859 312.032 256.232 312.609 256.49C314.578 257.563 316.859 257.917 319.06 257.49C320.14 256.68 321.659 255.49 323.419 254.02C327.519 250.55 327.95 249.6 328.13 249.08C328.77 247.31 327.93 247.01 327.99 242.64C328.05 237.93 329.05 236.72 329.52 236.25C330.4 235.38 331.88 234.66 332.52 235.14C333.16 235.62 332.519 237.36 331.669 241.44C330.909 245.28 330.53 247.23 330.94 249.44C331.337 251.496 332.241 253.421 333.57 255.04C335.1 257.04 336.81 259.19 339.28 259.04C340.437 258.912 341.52 258.407 342.362 257.603C343.204 256.799 343.758 255.74 343.94 254.59C344.06 252.78 342.55 252.45 342.03 249.94C341.69 247.652 342.18 245.319 343.409 243.36C344.179 241.99 345.48 239.64 348.25 238.78C349.968 238.281 351.807 238.409 353.44 239.14C354.47 239.553 355.4 240.182 356.167 240.984C356.935 241.786 357.522 242.743 357.89 243.79C358.379 245.82 358.094 247.959 357.09 249.79C356.306 251.948 354.811 253.775 352.849 254.97C351.589 255.63 350.66 255.65 350.09 256.63C349.817 257.126 349.681 257.684 349.693 258.249C349.705 258.815 349.866 259.367 350.159 259.85C351.469 261.79 355.37 261.12 358.34 260.61C361.63 260.04 365.09 259.45 366.08 257.09C366.7 255.6 365.679 254.99 365.849 252.5C366.109 248.67 368.849 245.04 370.359 245.33C371.069 245.46 371.36 246.46 371.99 248.25C372.759 250.56 373.639 253.25 372.409 255.25C371.479 256.79 370.329 256.32 368.599 258.46C367.839 259.4 366.749 260.76 367.109 261.98C367.569 263.51 370.05 263.98 371.87 264.31C373.191 264.557 374.548 264.557 375.87 264.31C377.024 264.149 378.124 263.717 379.08 263.05C383.78 257.31 388.189 250.38 384.169 242.94C384.169 242.01 384.74 240.7 385.83 238.09C387.17 234.89 387.74 233.92 388.25 232.66C389.378 229.701 389.806 226.522 389.5 223.37C389.181 218.657 387.495 214.14 384.65 210.37C381.289 206.168 376.652 203.174 371.44 201.84C370.63 201.61 366.439 201.37 358.039 200.84C352.429 200.52 350.76 200.49 348.38 201.07C345.841 201.74 343.355 202.592 340.94 203.62C338.23 204.76 337.57 205.3 335.94 205.32C335.41 205.32 334.559 205.32 330.099 203.52C326.429 202.07 326.2 201.79 324.94 201.64C323.119 201.496 321.289 201.77 319.59 202.44C315.86 203.69 315.59 205.2 312.96 205.27C311.598 205.241 310.25 205.005 308.96 204.57C306.57 203.89 305.869 203.21 305.039 203.57C304.209 203.93 303.53 204.99 303.52 208.57C302.318 208.221 301.028 208.35 299.919 208.93C299.509 209.17 299.13 209.49 297.52 211.65C296.83 212.59 296.269 213.39 295.859 213.96C294.945 214.11 294.075 214.456 293.307 214.973C292.539 215.491 291.891 216.169 291.409 216.96C291.089 217.476 290.878 218.051 290.789 218.651C290.699 219.251 290.734 219.864 290.89 220.45Z" fill="#F9C6CA"/>
<path d="M307.539 214.88C307.469 213.53 305.409 212.33 304.009 212.99C303.595 213.197 303.254 213.527 303.033 213.935C302.813 214.343 302.725 214.81 302.78 215.27C302.824 215.587 302.944 215.889 303.129 216.15C303.291 216.361 303.479 216.549 303.689 216.71C303.963 216.912 304.277 217.052 304.609 217.12C304.95 217.175 305.299 217.16 305.633 217.076C305.968 216.991 306.282 216.84 306.556 216.63C306.831 216.421 307.059 216.157 307.228 215.856C307.397 215.556 307.503 215.223 307.539 214.88Z" fill="white"/>
<path d="M305 217.09C305.256 216.77 305.416 216.384 305.462 215.977C305.508 215.57 305.438 215.159 305.26 214.79C305.15 214.397 304.935 214.041 304.637 213.762C304.339 213.484 303.969 213.293 303.57 213.21C303.186 213.499 302.912 213.909 302.792 214.374C302.672 214.84 302.713 215.332 302.91 215.77L302.97 215.89C302.97 216 303.06 216.02 303.11 216.11C303.24 216.318 303.414 216.496 303.62 216.63C303.869 216.814 304.15 216.95 304.45 217.03C304.54 217.03 304.67 217.03 304.75 217.09C304.832 217.106 304.917 217.106 305 217.09Z" fill="black" stroke="black" stroke-miterlimit="10"/>
<path d="M221.001 188C220.641 186.69 222.231 184.92 223.761 185.11C224.221 185.177 224.649 185.387 224.985 185.71C225.32 186.033 225.546 186.452 225.631 186.91C225.703 187.243 225.682 187.589 225.571 187.91C225.489 188.159 225.371 188.395 225.221 188.61C225.024 188.887 224.768 189.116 224.471 189.28C224.161 189.435 223.822 189.524 223.476 189.543C223.13 189.562 222.784 189.509 222.459 189.39C222.134 189.27 221.837 189.085 221.586 188.846C221.336 188.607 221.136 188.319 221.001 188Z" fill="white"/>
<path d="M224.071 189.33C223.732 189.104 223.463 188.787 223.295 188.416C223.127 188.045 223.067 187.634 223.121 187.23C223.107 186.827 223.203 186.428 223.398 186.076C223.594 185.724 223.881 185.431 224.231 185.23C224.687 185.386 225.076 185.693 225.334 186.101C225.592 186.508 225.704 186.991 225.651 187.47C225.651 187.47 225.651 187.58 225.651 187.6C225.641 187.689 225.621 187.776 225.591 187.86C225.533 188.092 225.427 188.31 225.281 188.5C225.092 188.75 224.862 188.967 224.601 189.14C224.531 189.14 224.401 189.24 224.341 189.29C224.254 189.319 224.162 189.332 224.071 189.33Z" fill="black" stroke="black" stroke-miterlimit="10"/>
</svg>
