<svg width="32" height="37" viewBox="0 0 32 37" fill="none" xmlns="http://www.w3.org/2000/svg">
<path d="M13.7399 36.2289L13.2299 33.0988C13.0299 31.8188 12.8499 30.5588 12.6699 29.3088C12.1728 29.5692 11.6621 29.8029 11.14 30.0088C9.37997 30.7088 8.30997 31.1688 7.13997 31.0888C5.84315 30.9077 4.65805 30.2565 3.80996 29.2588C2.97996 28.4388 2.56996 27.2589 1.80996 24.8289C0.889956 22.0389 0.80993 20.9889 0.96993 19.9189C1.07738 19.1922 1.36631 18.5043 1.80996 17.9189C2.2068 17.322 2.78018 16.864 3.44997 16.6089C4.16502 16.3565 4.94488 16.3565 5.65993 16.6089C6.24897 16.8747 6.72656 17.3381 7.00997 17.9189C7.56973 18.8286 7.91194 19.8552 8.00997 20.9189C8.07599 21.7377 8.07264 22.5606 7.99996 23.3788C7.91996 24.6488 7.73994 25.1188 8.10994 25.8088C8.38422 26.3346 8.84939 26.7354 9.40993 26.9288C9.75248 27.0435 10.1151 27.0859 10.4749 27.0532C10.8346 27.0205 11.1837 26.9134 11.5 26.7388C11.7603 26.5984 11.9753 26.3868 12.12 26.1288C12.2492 25.869 12.2913 25.5745 12.2399 25.2888C12.1785 24.6572 12.0649 24.0317 11.9 23.4189C11.65 22.7289 12.0999 23.8688 11.1099 20.4788C10.4699 18.3188 10.44 18.3688 10.26 17.6288C10.0198 16.642 9.84938 15.6396 9.74996 14.6288C9.04996 8.51884 9.11995 7.06884 9.23995 5.93884C9.46995 3.93884 9.84993 3.03884 10.5999 2.34884C11.4839 1.59655 12.5616 1.10795 13.71 0.938841C15.0771 0.705555 16.4821 0.854351 17.77 1.36883C19.0661 1.94335 20.1254 2.94607 20.77 4.20883C23.33 8.62883 22.3699 17.2088 22.2399 18.3188L23.2399 18.5088C23.6613 18.6334 24.1017 18.6808 24.5399 18.6488C24.7656 18.6011 24.9786 18.506 25.1648 18.3698C25.3509 18.2336 25.5061 18.0595 25.62 17.8589C25.7142 17.6159 25.7524 17.3549 25.7316 17.0951C25.7108 16.8354 25.6316 16.5837 25.5 16.3589C25.013 15.0796 24.7459 13.7272 24.71 12.3589C24.71 11.3589 24.61 9.57884 26.01 8.80884C26.9652 8.41222 28.0327 8.3802 29.01 8.71884C29.9815 9.11691 30.7672 9.86684 31.21 10.8188C31.68 11.6788 32.06 12.8188 31.89 16.1488C31.64 21.1488 30.64 21.9789 30.25 22.2689C29.479 22.7692 28.6152 23.1093 27.71 23.2689C26.6631 23.4913 25.5793 23.4742 24.5399 23.2188C23.6924 23.0057 22.9032 22.6059 22.2299 22.0489C22.1599 23.3989 22.07 24.4888 22 25.2288C21.74 28.0089 21.38 30.2289 20.7 34.2289C20.51 35.3489 20.35 36.2288 20.25 36.8488L13.7399 36.2289Z" fill="#6DFC6D"/>
</svg>
