<svg width="76" height="79" viewBox="0 0 76 79" fill="none" xmlns="http://www.w3.org/2000/svg">
<path d="M70.7303 43.3793C68.1103 45.6693 65.2103 48.2293 61.0003 48.7693C57.3703 49.2393 56.5803 47.7093 46.1603 45.8693C44.6828 45.6 43.1899 45.423 41.6903 45.3393C39.273 45.2235 36.8501 45.3575 34.4603 45.7393C21.3603 47.6593 20.1903 47.6293 18.6903 46.9293C15.6903 45.5593 12.8403 42.2593 13.6903 39.9293C14.5403 37.5993 18.8803 37.3193 19.3203 37.3093C17.0003 37.3893 10.1503 37.3093 5.0303 32.4293C2.2603 29.7793 -1.0297 24.7393 0.560301 22.0493C2.3703 18.9793 9.4503 20.7393 10.0103 18.6393C10.4803 16.9093 5.69031 15.5693 5.41031 12.3193C5.13031 9.0693 9.4703 5.7293 13.1803 4.5693C19.2803 2.6493 24.6903 6.34929 25.5203 6.92929C25.5203 6.72929 25.8803 3.54931 28.4203 2.32931C30.9603 1.10931 34.1503 2.71933 35.5103 4.96933C35.9745 5.74064 36.2487 6.61121 36.3103 7.5093C36.6861 5.8977 37.5033 4.42258 38.6703 3.24929C39.7163 2.27485 40.9662 1.54574 42.3293 1.11502C43.6924 0.684294 45.1343 0.56279 46.5503 0.759305C48.4997 1.07699 50.2943 2.01557 51.6673 3.43539C53.0403 4.85521 53.9182 6.68039 54.1703 8.63931C54.316 10.754 53.6986 12.8509 52.4303 14.5493C53.7477 13.0797 55.3729 11.9189 57.1903 11.1493C59.9403 9.97932 65.4003 8.79933 68.1903 11.6593C71.4903 14.9893 69.2903 21.8393 66.6203 25.5993C65.488 27.1951 64.0544 28.5539 62.4003 29.5993C63.4395 29.3633 64.5059 29.2692 65.5703 29.3193C70.0403 29.5193 75.4903 32.3193 75.8103 36.0193C76.0903 38.6493 73.6403 40.7993 70.7303 43.3793Z" fill="#00FFA9"/>
<path d="M43.2694 38.5991H37.9395V78.5491H43.2694V38.5991Z" fill="#754C24"/>
<path d="M40.2693 42.5991C46.3389 42.5991 51.2593 38.5742 51.2593 33.6091C51.2593 28.6441 46.3389 24.6191 40.2693 24.6191C34.1997 24.6191 29.2793 28.6441 29.2793 33.6091C29.2793 38.5742 34.1997 42.5991 40.2693 42.5991Z" fill="#00FFA9"/>
</svg>
