<svg width="383" height="262" viewBox="0 0 383 262" fill="none" xmlns="http://www.w3.org/2000/svg">
<path d="M91.5793 25.8791C101.2 22.0797 111.41 19.9851 121.749 19.6891C123.749 19.5887 125.752 19.6088 127.749 19.7491C135.749 20.3591 143.749 23.0791 152.039 28.6691C153.369 29.3291 155.369 28.6691 157.419 28.9391C159.179 28.9991 160.959 28.9991 162.759 28.9991C164.559 28.9991 166.239 28.9991 168.029 28.9291C182.669 25.9991 196.029 12.0191 211.969 18.0091C219.969 21.3391 226.609 28.6691 235.639 28.8291C237.471 28.9912 239.311 29.048 241.149 28.9991H266.779C273.948 28.9981 280.975 30.9917 287.075 34.757C293.175 38.5222 298.107 43.9106 301.319 50.3191C310.319 23.3191 322.109 -27.0009 295.859 -62.5509C250.539 -123.941 118.859 -104.891 110.089 -74.5509C106.359 -61.5509 127.159 -54.0809 125.409 -37.2609C121.409 0.85907 11.4993 -8.85094 -45.0607 51.3091C-94.3107 103.699 -102.281 208.189 -61.0607 245.069C-25.5107 276.859 75.9393 260.799 162.129 219.069L166.499 216.919C171.979 214.479 177.309 210.479 183.299 209.149C185.67 209.211 188.042 209.114 190.399 208.859C197.375 208.159 204.099 205.88 210.063 202.194C216.026 198.509 221.073 193.514 224.819 187.589C226.088 185.644 227.23 183.62 228.239 181.529C229.263 179.391 230.158 177.194 230.919 174.949C231.7 172.656 232.344 170.318 232.849 167.949C233.375 165.523 233.762 163.069 234.009 160.599C234.609 158.929 235.219 157.259 236.099 154.999C244.289 131.999 255.219 101.279 255.219 101.279C254.629 101.939 225.079 113.779 191.659 127.199C189.899 127.959 188.129 128.679 186.349 129.419C184.569 130.159 182.809 130.969 181.029 131.699C179.249 132.429 177.429 133.189 175.629 133.919C161.329 139.919 148.009 146.549 133.099 150.839L127.099 153.279C117.489 157.229 109.449 160.579 104.099 162.939C102.509 163.649 101.099 164.259 99.9893 164.799C90.0793 168.529 79.4193 169.189 69.4293 172.519C75.4293 167.859 82.0893 163.869 88.0993 159.439L93.9993 155.439L180.639 96.7291L187.219 92.2591C198.609 84.6191 209.219 75.2591 220.929 69.3891C222.479 68.3891 224.019 67.3291 225.549 66.2991C263.679 40.4591 279.179 30.6891 279.179 30.6891C275.699 33.3091 260.709 45.6891 222.869 74.6891L218.639 77.9291C213.259 82.6591 207.259 85.9891 201.739 90.7891L196.109 95.0691C167.799 116.549 137.489 139.249 111.279 158.219L107.649 160.829C90.3547 174.826 70.9327 185.967 50.1193 193.829C48.8315 194.489 47.6006 195.255 46.4393 196.119C45.2993 196.959 44.2193 197.839 43.1293 198.689C34.1293 207.149 20.1293 211.809 10.1293 205.149C4.03701 201.378 -1.11244 196.264 -4.92545 190.198C-8.73845 184.132 -11.1141 177.274 -11.8707 170.149C-11.8708 168.63 -11.6929 167.117 -11.3407 165.639C-10.9268 163.901 -10.2987 162.222 -9.47072 160.639C-8.63072 158.849 -7.59071 157.149 -6.52071 155.329C-1.88071 147.849 4.77929 138.529 6.76929 132.539C11.4393 121.219 14.7693 106.539 19.8293 93.9191C20.9037 92.1147 22.1785 90.4374 23.6293 88.9191C30.0793 81.2991 39.3993 81.2991 48.0593 81.9191C44.7293 69.2591 52.0593 57.9191 57.9893 48.0991C58.8266 46.6739 59.7552 45.3044 60.7693 43.9991C61.7778 42.6927 62.8665 41.4503 64.0293 40.2791C70.7993 33.9891 77.4493 29.3791 86.1993 26.9691C87.9193 26.5591 89.6993 26.2091 91.5793 25.8791Z" fill="#0097DD"/>
<path d="M378.09 149.529C386.41 134.529 375.09 121.219 371.55 106.459C371.455 104.23 371.12 102.017 370.55 99.8592C369.101 94.6069 365.969 89.9755 361.633 86.6765C357.297 83.3776 351.998 81.5938 346.55 81.5992H324.66C321.92 81.5992 323.94 84.1692 323 85.6592C319.82 89.9292 316.49 93.9192 311.83 96.5792C329.14 86.5792 333.14 61.2892 318.49 46.6492C309.84 37.3192 297.85 38.6492 287.32 34.9192C285.83 33.9724 284.272 33.1368 282.66 32.4192C277.666 30.1654 272.248 29.0028 266.77 29.0092H241.14C239.301 29.0584 237.461 29.0016 235.63 28.8392C213.29 14.6892 190.63 15.3492 168.02 28.9292C166.23 28.9992 164.48 28.9992 162.75 28.9992C161.02 28.9992 159.16 28.9992 157.41 28.9392C146.04 29.9992 138.71 20.6792 128.06 18.0092C126.06 17.3492 123.4 18.0092 121.4 18.0092C102.09 24.6592 79.4495 24.6592 64.1295 40.2992C61.8089 42.6433 59.793 45.2707 58.1295 48.1192C52.1895 57.9592 45.5295 69.2692 48.1995 81.2592C39.5395 82.5892 29.5495 80.5892 23.7695 88.8792C22.3187 90.3975 21.044 92.0748 19.9695 93.8792C14.8995 106.529 11.5795 121.179 6.90953 132.499C4.90953 138.499 -1.74047 147.809 -6.38047 155.289C-7.45047 157.109 -8.49047 158.799 -9.33047 160.599C-10.1584 162.182 -10.7866 163.861 -11.2005 165.599C-11.5526 167.077 -11.7305 168.59 -11.7305 170.109C-10.4005 183.759 -1.73047 195.749 8.26953 203.739C18.9195 213.059 31.5695 203.739 43.3995 202.739C45.5295 202.559 47.6395 202.279 49.7595 201.899C68.7595 198.589 87.3195 188.229 106.15 183.089C111.47 181.759 116.15 182.419 121.29 182.259C123.33 182.299 125.38 182.366 127.44 182.459C134.11 182.459 140.1 185.089 146.1 185.089C150.1 185.089 154.1 183.089 158.1 181.759C159.664 181.517 161.264 181.661 162.76 182.179C164.26 182.589 165.54 183.409 167 183.789C178.08 187.789 189.4 185.789 200.47 183.859C201.92 183.989 203.6 184.309 205.38 184.429C212.04 184.429 218.69 186.429 224.02 187.089C225.86 187.208 227.704 186.918 229.42 186.239C238.67 180.429 250.65 180.429 261.31 181.099C266.64 181.099 269.31 189.099 273.96 189.749C285.28 190.419 295.27 189.089 304.96 195.389C307.014 196.247 309.114 196.991 311.25 197.619C317.961 199.496 324.9 200.434 331.87 200.409C356.69 200.409 377.29 189.059 381.15 174.189C381.589 172.532 381.811 170.824 381.81 169.109C381.14 163.779 381.14 158.449 379.81 153.859C379.386 152.361 378.81 150.91 378.09 149.529Z" fill="white" stroke="white" stroke-width="2" stroke-miterlimit="10"/>
</svg>
