<svg width="482" height="217" viewBox="0 0 482 217" fill="none" xmlns="http://www.w3.org/2000/svg">
<path d="M482.359 81.3793C480.009 82.1993 476.819 81.2793 472.949 78.9893" stroke="#FF0020" stroke-width="16" stroke-miterlimit="10"/>
<path d="M481.919 0.6592H25.0994C24.6894 0.6592 24.2894 0.6592 23.8894 0.6592C2.98943 1.4992 -7.41056 26.5592 6.27944 42.3792C38.9394 80.1292 71.5594 115.819 103.279 148.449C125.049 170.869 146.939 191.569 169.139 212.239C171.075 214.037 173.618 215.037 176.259 215.039H481.939C487.212 215.039 492.433 214.001 497.304 211.983C502.175 209.965 506.601 207.008 510.33 203.28C514.058 199.551 517.016 195.125 519.033 190.254C521.051 185.383 522.089 180.162 522.089 174.889V40.8092C522.092 35.5342 521.055 30.3104 519.037 25.4367C517.019 20.563 514.059 16.135 510.329 12.4059C506.598 8.67686 502.168 5.71995 497.293 3.70434C492.419 1.68872 487.194 0.653941 481.919 0.6592Z" fill="#0097DD"/>
<path d="M513.721 66.9089C448.001 58.8289 401.381 103.789 389.661 136.319C381.791 158.189 391.781 186.129 415.161 215.659C431.161 215.459 457.021 216.869 473.111 215.319C489.201 213.769 495.551 209.319 510.401 202.729C526.481 171.129 519.441 102.129 513.721 66.9089Z" fill="#D8E5A5"/>
<path d="M495.249 120.489C491.319 123.939 486.949 127.779 480.619 128.599C475.159 129.299 473.969 126.999 458.299 124.239C456.078 123.832 453.834 123.565 451.579 123.439C447.941 123.259 444.294 123.464 440.699 124.049C420.989 126.929 419.229 126.879 416.969 125.839C412.519 123.779 408.179 118.839 409.449 115.349C410.719 111.859 417.259 111.439 417.919 111.399C414.429 111.539 404.119 111.399 396.419 104.079C392.249 100.079 387.309 92.5089 389.689 88.4589C392.409 83.8389 403.059 86.4589 403.909 83.3289C404.609 80.7289 397.419 78.7189 396.999 73.8289C396.579 68.9389 403.099 63.9189 408.669 62.1689C417.849 59.2889 425.989 64.8389 427.249 65.7289C427.249 65.4089 427.779 60.6289 431.599 58.8089C435.419 56.9889 440.219 59.3889 442.269 62.8089C442.966 63.9695 443.377 65.2786 443.469 66.6289C444.033 64.2041 445.266 61.9864 447.029 60.2289C447.249 60.0089 452.089 55.3289 458.879 56.4789C464.579 57.4789 469.789 62.1889 470.349 68.3289C470.567 71.5103 469.638 74.6644 467.729 77.2189C469.714 75.0104 472.158 73.2628 474.889 72.0989C479.039 70.3489 487.249 68.5689 491.509 72.8689" fill="#00FFA9"/>
<path d="M444.93 173.439V113.339H452.94V173.439" fill="#754C24"/>
<path d="M449.43 119.349C458.56 119.349 465.96 113.296 465.96 105.829C465.96 98.3622 458.56 92.3091 449.43 92.3091C440.301 92.3091 432.9 98.3622 432.9 105.829C432.9 113.296 440.301 119.349 449.43 119.349Z" fill="#00FFA9"/>
</svg>
