<svg width="230" height="66" viewBox="0 0 230 66" fill="none" xmlns="http://www.w3.org/2000/svg">
<path d="M-209.081 -0.559975C-204.581 -15.81 -186.851 -17.56 -178.211 -35.4C-158.901 -75.35 -138.451 -49.57 -134.261 -67.4C-132.091 -76.66 -129.201 -81.4 -124.441 -85.69C-113.941 -95.15 -83.8208 -81.64 -44.3808 -74.06C-33.0208 -71.88 -15.7408 -67.4 36.3692 -73.74C50.9992 -75.47 55.7392 -83.82 73.2992 -87.88C84.2292 -90.41 114.499 -97.41 125.619 -84.16C132.149 -76.37 126.249 -68.54 131.009 -59.53C137.009 -48.14 163.899 -60.86 180.679 -60.7C190.159 -60.62 205.379 -51.11 213.309 -46.06C240.879 -28.47 229.849 35.05 202.569 57.66C191.979 66.43 176.909 68.94 118.699 58.4C40.7992 44.31 34.0892 33.71 -3.65082 28.55C-101.651 15.13 -159.651 72.43 -194.461 40.48C-204.751 31.06 -213.271 13.61 -209.081 -0.559975Z" fill="white"/>
</svg>
