<svg width="65" height="51" viewBox="0 0 65 51" fill="none" xmlns="http://www.w3.org/2000/svg">
<path d="M31.9096 37.789C28.7296 36.379 25.6996 34.979 22.8496 33.599" stroke="#FF0020" stroke-width="16" stroke-miterlimit="10"/>
<path d="M7.28902 35.5291C6.60021 34.1934 6.05388 32.789 5.65903 31.3391C1.24903 9.67905 20.079 -2.73096 40.659 7.19904L43.149 0.109009C45.819 13.369 58.689 20.459 64.669 22.439C64.669 23.849 64.669 25.269 64.719 26.689C58.9009 25.6349 52.9113 26.0578 47.299 27.919C46.81 27.0637 46.1244 26.337 45.299 25.799C39.119 22.259 33.299 29.549 37.239 35.499L29.529 36.859C28.7103 35.6573 27.7758 34.5386 26.739 33.519C18.499 25.009 11.699 28.9391 7.28902 35.5291Z" fill="#FF81E7"/>
<path d="M5.71094 31.379C8.27814 38.6114 12.3202 45.2313 17.5809 50.819H25.9509C17.2109 39.249 15.5809 28.469 19.3109 25.269C22.3609 22.649 29.4609 24.729 36.1509 28.819C33.6009 38.269 38.7909 47.019 42.5009 50.819H49.5009C41.5009 43.819 42.8009 30.299 55.6309 25.729C46.0709 13.169 30.9409 9.99905 21.8809 15.8391C17.8809 18.3891 12.7409 24.6191 12.8809 32.2191C12.8109 44.6091 26.5309 48.3991 41.3009 44.2191L29.3009 10.629L5.71094 31.379Z" fill="#FF81E7"/>
<path d="M41.7497 17.579C42.1997 15.499 45.6797 14.159 47.6897 15.579C48.282 16.0112 48.726 16.6163 48.9605 17.311C49.1951 18.0058 49.2088 18.7561 48.9997 19.459C48.8596 19.9457 48.5941 20.3871 48.2297 20.7389C47.9296 21.0249 47.5934 21.2703 47.2297 21.469C46.7516 21.7114 46.2256 21.8446 45.6897 21.8589C43.3897 21.8789 41.3497 19.449 41.7497 17.579Z" fill="white"/>
<path d="M45.1309 21.6891C44.8777 21.1093 44.7624 20.4787 44.7942 19.8467C44.826 19.2148 45.004 18.5989 45.3141 18.0474C45.6243 17.4959 46.0582 17.0239 46.5816 16.6685C47.1051 16.313 47.7039 16.0839 48.3309 15.9991C49.2309 17.1991 49.7509 18.9191 48.7009 20.1791L48.5809 20.3491C48.4988 20.4591 48.4086 20.5628 48.3109 20.6592C48.0603 20.949 47.7498 21.181 47.4009 21.3392C46.9645 21.5528 46.4941 21.6882 46.0109 21.7391C45.8609 21.7391 45.6609 21.7391 45.5209 21.7391C45.3898 21.7324 45.2594 21.7157 45.1309 21.6891Z" fill="black" stroke="black" stroke-miterlimit="10"/>
<path d="M8.47002 15.9189C7.52979 16.2588 6.50025 16.2588 5.56002 15.9189C5.40489 15.8603 5.26298 15.7714 5.14255 15.6573C5.02213 15.5433 4.9256 15.4064 4.85859 15.2547C4.79158 15.103 4.75542 14.9395 4.75223 14.7737C4.74904 14.6079 4.77889 14.4431 4.84002 14.2889C5.17002 13.5789 5.84003 13.079 6.21003 12.399C6.45794 12.0177 6.55755 11.5587 6.49003 11.1089C6.33003 10.5689 5.80002 10.449 5.33002 10.319L1.58002 9.31895C0.830022 9.10895 0.580013 10.3189 1.29001 10.4889L3.52002 11.0989L4.58002 11.399L5.17002 11.5589L5.41002 11.6189C5.51002 11.6189 5.32002 11.5089 5.41002 11.6189L5.25002 11.3589C5.34002 11.5789 4.99002 12.0089 4.86002 12.1789C4.73002 12.3489 4.39002 12.7489 4.16002 13.0389C3.86636 13.3581 3.65897 13.747 3.55748 14.1687C3.45599 14.5905 3.46375 15.0311 3.58002 15.449C3.74229 15.8679 3.99906 16.2438 4.33034 16.5473C4.66162 16.8509 5.05848 17.0739 5.49003 17.199C6.57874 17.4309 7.70905 17.3757 8.77002 17.0389C9.54002 16.8689 9.19001 15.719 8.43001 15.879L8.47002 15.9189Z" fill="#FF81E7"/>
</svg>
