<?xml version="1.0" encoding="utf-8"?>
<!-- Generator: Adobe Illustrator 25.0.1, SVG Export Plug-In . SVG Version: 6.00 Build 0)  -->
<svg version="1.1" id="Layer_1" xmlns="http://www.w3.org/2000/svg" xmlns:xlink="http://www.w3.org/1999/xlink" x="0px" y="0px"
	 viewBox="0 0 65 51" style="enable-background:new 0 0 65 51;" xml:space="preserve">
<style type="text/css">
	.st0{fill:none;stroke:#FF0020;stroke-width:16;stroke-miterlimit:10;}
	.st1{fill:#FF81E7;}
	.st2{fill:#FFFFFF;}
	.st3{stroke:#000000;stroke-miterlimit:10;}
</style>
<path class="st0" d="M42.7,33.6c-2.8,1.4-5.9,2.8-9.1,4.2"/>
<path class="st1" d="M38.8,33.5c-1,1-2,2.1-2.8,3.3l-7.7-1.4c3.9-6-1.9-13.2-8.1-9.7c-0.8,0.5-1.5,1.3-2,2.1
	c-5.6-1.9-11.6-2.3-17.4-1.2c0.1-1.4,0.1-2.8,0.1-4.2c6-2,18.8-9.1,21.5-22.3l2.5,7.1c20.6-9.9,39.4,2.5,35,24.1
	c-0.4,1.4-0.9,2.9-1.6,4.2C53.9,28.9,47.1,25,38.8,33.5z"/>
<path class="st1" d="M36.3,10.6l-12,33.6c14.8,4.2,28.5,0.4,28.4-12c0.1-7.6-5-13.8-9-16.4C34.6,10,19.5,13.2,10,25.7
	c12.8,4.6,14.1,18.1,6.1,25.1h7c3.7-3.8,8.9-12.5,6.3-22c6.7-4.1,13.8-6.2,16.8-3.6c3.7,3.2,2.1,14-6.6,25.6H48
	c5.3-5.6,9.3-12.2,11.9-19.4L36.3,10.6z"/>
<path class="st2" d="M19.9,21.9c-0.5,0-1.1-0.1-1.5-0.4c-0.4-0.2-0.7-0.4-1-0.7c-0.4-0.4-0.6-0.8-0.8-1.3c-0.2-0.7-0.2-1.5,0-2.1
	c0.2-0.7,0.7-1.3,1.3-1.7c2-1.4,5.5-0.1,5.9,2C24.2,19.4,22.2,21.9,19.9,21.9z"/>
<path class="st3" d="M20.1,21.7c-0.1,0-0.3,0-0.5,0c-0.5-0.1-1-0.2-1.4-0.4c-0.3-0.2-0.7-0.4-0.9-0.7c-0.1-0.1-0.2-0.2-0.3-0.3
	l-0.1-0.2c-1.1-1.3-0.5-3,0.4-4.2c0.6,0.1,1.2,0.3,1.7,0.7c0.5,0.4,1,0.8,1.3,1.4c0.3,0.6,0.5,1.2,0.5,1.8c0,0.6-0.1,1.3-0.3,1.8
	C20.3,21.7,20.2,21.7,20.1,21.7z"/>
<path class="st1" d="M57.2,15.9c-0.8-0.2-1.1,1-0.3,1.2c1.1,0.3,2.2,0.4,3.3,0.2c0.4-0.1,0.8-0.3,1.2-0.7c0.3-0.3,0.6-0.7,0.8-1.1
	c0.1-0.4,0.1-0.9,0-1.3c-0.1-0.4-0.3-0.8-0.6-1.1c-0.2-0.3-0.6-0.7-0.7-0.9c-0.1-0.2-0.5-0.6-0.4-0.8l-0.2,0.3c0.1-0.1-0.1,0,0,0
	l0.2-0.1l0.6-0.2l1.1-0.3l2.2-0.6c0.7-0.2,0.5-1.4-0.3-1.2l-3.8,1c-0.5,0.1-1,0.2-1.2,0.8c-0.1,0.4,0,0.9,0.3,1.3
	c0.4,0.7,1,1.2,1.4,1.9c0.1,0.2,0.1,0.3,0.1,0.5s0,0.3-0.1,0.5c-0.1,0.2-0.2,0.3-0.3,0.4c-0.1,0.1-0.3,0.2-0.4,0.3
	C59.1,16.3,58.1,16.3,57.2,15.9L57.2,15.9z"/>
</svg>
