<svg width="376" height="117" viewBox="0 0 376 117" fill="none" xmlns="http://www.w3.org/2000/svg">
<path d="M345.6 116.529H30.8097C26.885 116.529 22.9987 115.756 19.3728 114.253C15.7469 112.751 12.4525 110.549 9.6778 107.774C6.90306 104.998 4.70232 101.703 3.2013 98.0765C1.70028 94.4502 0.928376 90.5637 0.929689 86.6389V30.2189C0.937642 22.3004 4.08953 14.709 9.69255 9.11347C15.2956 3.51795 22.8911 0.376253 30.8097 0.378908H345.6C349.524 0.377594 353.41 1.14955 357.036 2.6507C360.662 4.15184 363.956 6.35275 366.731 9.12763C369.506 11.9025 371.707 15.197 373.208 18.8228C374.709 22.4486 375.481 26.3346 375.48 30.2589V86.6789C375.472 94.5984 372.32 102.191 366.717 107.788C361.115 113.385 353.519 116.529 345.6 116.529Z" fill="#FF81E7"/>
</svg>
