<svg width="660" height="318" viewBox="0 0 660 318" fill="none" xmlns="http://www.w3.org/2000/svg">
<path d="M606.651 317.219H187.491C173.85 317.219 160.769 311.801 151.124 302.156C141.479 292.511 136.061 279.429 136.061 265.789V52.3792C136.063 38.7399 141.483 25.66 151.127 16.0156C160.771 6.3712 173.851 0.95187 187.491 0.949219H606.651C620.291 0.949219 633.372 6.3677 643.017 16.0127C652.662 25.6577 658.081 38.7391 658.081 52.3792V265.789C658.082 272.543 656.753 279.232 654.168 285.472C651.584 291.713 647.796 297.383 643.02 302.159C638.244 306.935 632.574 310.723 626.334 313.307C620.093 315.891 613.405 317.221 606.651 317.219Z" fill="#FF0020"/>
<path d="M245.641 236.969H65.1005C56.5808 236.969 48.1445 235.291 40.2735 232.03C32.4025 228.77 25.2508 223.99 19.2269 217.966C13.2031 211.941 8.42496 204.788 5.16553 196.917C1.90609 189.045 0.229156 180.609 0.23047 172.089V112.739C0.23047 95.5345 7.06498 79.0346 19.2305 66.8691C31.396 54.7037 47.8959 47.8691 65.1005 47.8691H245.641C262.845 47.8691 279.345 54.7037 291.51 66.8691C303.676 79.0346 310.51 95.5345 310.51 112.739V172.089C310.512 180.609 308.835 189.045 305.575 196.917C302.316 204.788 297.538 211.941 291.514 217.966C285.49 223.99 278.339 228.77 270.467 232.03C262.596 235.291 254.16 236.969 245.641 236.969Z" fill="#F7EFE2"/>
<path d="M208 202.009H113.42C105.591 202.009 97.8391 200.466 90.6067 197.469C83.3743 194.472 76.8034 190.079 71.2694 184.541C65.7355 179.003 61.347 172.43 58.3546 165.195C55.3623 157.961 53.8248 150.208 53.8301 142.379C53.8288 134.553 55.3691 126.803 58.3632 119.572C61.3573 112.341 65.7465 105.77 71.28 100.236C76.8136 94.7014 83.3832 90.3111 90.6137 87.3158C97.8441 84.3205 105.594 82.7788 113.42 82.7788H208C223.807 82.7788 238.966 89.0581 250.144 100.235C261.321 111.412 267.6 126.572 267.6 142.379C267.604 150.208 266.065 157.961 263.072 165.196C260.078 172.43 255.689 179.004 250.154 184.542C244.619 190.079 238.048 194.472 230.815 197.469C223.582 200.466 215.829 202.009 208 202.009Z" fill="#6DFC6D"/>
<path d="M208.31 172.709H81.79C77.9402 172.709 74.1282 171.95 70.572 170.476C67.0158 169.001 63.7851 166.84 61.0647 164.116C58.3444 161.392 56.1877 158.158 54.7181 154.6C53.2485 151.042 52.4948 147.229 52.5 143.379C52.4987 139.532 53.2553 135.722 54.7267 132.167C56.1981 128.612 58.3554 125.382 61.0753 122.661C63.7953 119.941 67.0247 117.782 70.5789 116.31C74.1332 114.837 77.9427 114.079 81.79 114.079H208.31C212.157 114.079 215.967 114.837 219.521 116.31C223.075 117.782 226.305 119.941 229.025 122.661C231.745 125.382 233.902 128.612 235.373 132.167C236.845 135.722 237.601 139.532 237.6 143.379C237.605 147.229 236.852 151.042 235.382 154.6C233.912 158.158 231.756 161.392 229.035 164.116C226.315 166.84 223.084 169.001 219.528 170.476C215.972 171.95 212.16 172.709 208.31 172.709Z" fill="#F7EFE2"/>
<path d="M513.16 218.009V96.1588C513.16 80.3546 519.438 65.1976 530.614 54.0223C541.789 42.847 556.946 36.5688 572.75 36.5688H588C603.804 36.5688 618.961 42.847 630.137 54.0223C641.312 65.1976 647.59 80.3546 647.59 96.1588V218.009C647.59 233.813 641.312 248.97 630.137 260.145C618.961 271.321 603.804 277.599 588 277.599H572.78C564.952 277.603 557.2 276.064 549.967 273.071C542.734 270.078 536.161 265.69 530.624 260.156C525.088 254.622 520.696 248.052 517.699 240.82C514.702 233.588 513.16 225.837 513.16 218.009V218.009Z" stroke="#F7EFE2" stroke-width="50" stroke-miterlimit="10"/>
<path d="M520.59 204.689V110.139C520.59 102.313 522.131 94.5645 525.126 87.3347C528.121 80.1049 532.51 73.5358 538.043 68.0023C543.577 62.4689 550.146 58.0795 557.376 55.0848C564.606 52.0902 572.354 50.5488 580.18 50.5488C588.005 50.5488 595.754 52.0902 602.984 55.0848C610.214 58.0795 616.783 62.4689 622.316 68.0023C627.85 73.5358 632.239 80.1049 635.234 87.3347C638.229 94.5645 639.77 102.313 639.77 110.139V204.689C639.771 212.515 638.231 220.265 635.237 227.496C632.243 234.727 627.854 241.297 622.32 246.832C616.786 252.366 610.217 256.757 602.986 259.752C595.756 262.747 588.006 264.289 580.18 264.289C572.354 264.289 564.604 262.747 557.373 259.752C550.143 256.757 543.573 252.366 538.04 246.832C532.506 241.297 528.117 234.727 525.123 227.496C522.129 220.265 520.589 212.515 520.59 204.689V204.689Z" stroke="#00FFA9" stroke-width="50" stroke-miterlimit="10"/>
</svg>
