<svg width="104" height="95" viewBox="0 0 104 95" fill="none" xmlns="http://www.w3.org/2000/svg">
<path d="M100.33 50.079C101.23 46.929 101.33 45.219 100.94 44.379C100.165 42.8332 99.9398 41.07 100.3 39.379C100.52 38.6044 100.901 37.8852 101.42 37.269C104.1 33.899 104.33 19.019 98.0398 16.779C97.0398 16.439 93.6898 17.5391 86.9298 17.6591C82.4998 17.7391 79.4398 16.659 78.9298 15.229C78.5398 14.159 80.0098 13.279 79.9298 12.019C79.6598 8.86904 69.7198 4.959 64.2498 7.419C50.3698 13.669 47.7898 68.769 68.8598 79.689C70.5595 80.5588 72.3906 81.1432 74.2798 81.419C81.981 70.1935 90.7013 59.7025 100.33 50.079Z" fill="#FDFF00"/>
<path d="M63.1499 12.7991C63.1971 12.6894 63.2339 12.5756 63.2599 12.4591C62.5299 13.3791 61.6899 16.3791 63.1499 12.7991Z" fill="#FF0020"/>
<path d="M57.3308 34.379C56.3308 33.099 57.5408 30.8191 58.0008 29.2091C58.1169 28.7907 58.2674 28.3826 58.4508 27.989C58.5008 27.869 58.5608 27.749 58.6208 27.629C58.7008 27.459 58.7908 27.299 58.8908 27.129C59.0508 26.8111 59.2417 26.5096 59.4608 26.229L59.6908 25.8991C60.3806 24.9611 61.1796 24.1084 62.0708 23.359C61.9208 19.249 62.0708 14.979 63.3608 12.359C63.3223 12.3907 63.2887 12.4278 63.2608 12.4691C63.2108 12.6191 63.1708 12.739 63.1408 12.809C61.6808 16.379 62.5208 13.3691 63.2608 12.4691C63.619 11.0826 64.4238 9.8526 65.5508 8.96907C67.6708 7.44907 70.2208 8.53902 70.6708 8.72902C71.6708 9.13902 73.4608 10.239 73.3208 11.359C73.1808 12.479 71.3208 12.359 70.3808 13.939C69.9996 14.6747 69.827 15.5006 69.8816 16.3273C69.9362 17.154 70.2161 17.95 70.6908 18.629C72.1208 20.539 74.3108 19.2591 76.5308 21.2791C77.9608 22.5891 79.0408 24.9291 78.4308 26.6991C78.0208 27.8891 77.1208 27.999 76.9408 29.229C76.8306 29.8919 76.934 30.5727 77.236 31.1731C77.5379 31.7734 78.0229 32.2623 78.6208 32.569C80.3308 33.1991 82.1308 31.1691 82.3708 30.8891C83.9408 29.0691 83.8408 26.7191 83.7608 25.1991C83.5231 21.8685 82.4947 18.6426 80.7608 15.789C80.0808 14.679 79.3808 13.7891 79.5508 12.5091C79.7908 10.6791 81.7408 9.50905 81.5508 9.25905C81.3608 9.00905 79.4808 10.999 77.8308 10.499C77.2208 10.319 76.8308 9.85906 75.9408 8.38906C74.3508 5.89906 74.0508 5.13906 73.5108 4.38906C72.1211 2.53141 70.1381 1.2047 67.8908 0.629047C65.3507 0.0128363 62.6741 0.321252 60.3408 1.49904C57.953 2.77318 55.9919 4.72036 54.7008 7.09902C53.9708 8.33902 49.7008 14.099 48.0208 20.679C47.1908 22.949 46.2208 25.6791 46.0208 26.3891C43.2708 26.5291 42.6908 25.729 34.7008 27.059C27.8508 28.199 20.4308 30.869 16.5608 34.549C15.6069 35.4598 14.7856 36.5 14.1208 37.6391C13.7608 37.7691 13.4108 37.909 13.0508 38.059C5.13078 41.469 1.47078 49.1391 0.0507812 52.6391C2.75078 49.6391 4.37078 45.889 8.69078 42.919C9.91654 42.0388 11.2384 41.3008 12.6308 40.7191C11.8089 43.0858 11.3012 45.5502 11.1208 48.049C10.8408 53.489 10.8208 57.949 10.8508 61.049C10.9608 71.899 11.8508 76.939 10.0308 84.549C9.43385 87.0449 8.62079 89.4842 7.60078 91.8391C12.2708 92.9391 17.6008 93.7691 18.6808 91.8391C19.5608 90.1991 16.7808 87.4891 15.1708 85.0891C7.34078 73.4291 15.5908 52.1791 18.4108 52.4091C20.2508 52.5691 21.6808 62.0191 21.6508 92.4091C25.1408 93.3491 29.4408 94.1391 30.5608 92.4091C31.6808 90.6791 28.6808 86.6191 27.3208 84.5791C23.8208 79.3291 21.0708 70.0891 25.1608 52.7091H45.6808C46.8711 63.7623 46.6897 74.9203 45.1408 85.929C44.8308 88.149 44.4608 90.3091 44.0708 92.4091C47.8508 93.4091 52.2508 94.0891 53.2508 92.4091C54.2508 90.7291 51.4008 87.499 50.2508 85.929C46.8308 81.129 45.2508 71.9291 53.2508 52.7091C59.2508 70.3391 58.1908 79.709 55.9508 85.119C55.3208 86.619 53.5908 90.2191 55.1408 92.4091C57.0608 95.1091 63.4708 94.919 64.5908 92.679C65.5008 90.859 62.5908 88.4091 60.8108 85.3891C56.6208 78.1391 60.5008 73.089 61.8908 53.249C62.4508 45.249 63.1908 46.559 62.7308 35.849L62.3308 35.7091L62.7308 35.849C62.7308 35.849 62.5508 33.799 62.5508 33.749C60.9108 32.999 58.0008 35.379 57.3308 34.379Z" fill="#FF0020"/>
<path d="M75.8992 14.889C75.7474 15.1507 75.6543 15.4423 75.6262 15.7435C75.5981 16.0447 75.6358 16.3484 75.7366 16.6337C75.8374 16.919 75.9989 17.1789 76.21 17.3957C76.4211 17.6124 76.6767 17.7807 76.9592 17.889C77.3138 17.9859 77.6897 17.9706 78.0353 17.8453C78.3809 17.72 78.6791 17.4907 78.8892 17.189C79.0316 16.9757 79.1239 16.733 79.1592 16.479C79.1841 16.2764 79.1841 16.0716 79.1592 15.869C79.1071 15.6034 78.9942 15.3536 78.8292 15.139C78.6598 14.9207 78.4471 14.7399 78.2044 14.6079C77.9617 14.4759 77.6942 14.3956 77.419 14.3721C77.1437 14.3486 76.8665 14.3824 76.6049 14.4714C76.3434 14.5604 76.1031 14.7026 75.8992 14.889Z" fill="white"/>
<path d="M78.571 14.9291C78.2499 14.9829 77.9503 15.1258 77.7063 15.3415C77.4624 15.5572 77.2838 15.837 77.191 16.1491C77.0512 16.4365 76.9914 16.7562 77.0178 17.0746C77.0442 17.3931 77.1558 17.6987 77.341 17.9591C77.7208 17.9914 78.1003 17.8944 78.418 17.6838C78.7357 17.4733 78.9729 17.1614 79.091 16.7991C79.091 16.7991 79.091 16.7091 79.091 16.6991C79.091 16.6891 79.091 16.5791 79.091 16.4891C79.1311 16.3046 79.1311 16.1136 79.091 15.9291C79.0343 15.689 78.9398 15.4595 78.811 15.2491C78.7611 15.1882 78.7144 15.1248 78.671 15.0591C78.6411 15.0133 78.6076 14.9698 78.571 14.9291Z" fill="black"/>
<path d="M59.6904 25.879C59.4017 26.2652 59.1378 26.6694 58.9004 27.0891C59.1342 26.6672 59.3982 26.2628 59.6904 25.879Z" fill="#FF0020"/>
<path d="M67.8605 24.649C67.9003 24.9448 67.8766 25.2457 67.7909 25.5316C67.7053 25.8176 67.5597 26.0819 67.3638 26.3071C67.1679 26.5324 66.9263 26.7133 66.655 26.8377C66.3837 26.9622 66.089 27.0274 65.7905 27.029C65.4252 26.9879 65.0815 26.8353 64.806 26.5919C64.5304 26.3486 64.3365 26.0263 64.2505 25.669C64.1847 25.4233 64.1847 25.1646 64.2505 24.919C64.3104 24.721 64.3979 24.5325 64.5105 24.359C64.653 24.1294 64.8485 23.9374 65.0805 23.799C65.3171 23.6645 65.5786 23.5797 65.8491 23.5498C66.1196 23.5199 66.3934 23.5456 66.6536 23.6251C66.9139 23.7047 67.1551 23.8365 67.3626 24.0126C67.5702 24.1886 67.7396 24.4052 67.8605 24.649Z" fill="white"/>
<path d="M65.3707 23.7191C65.6492 23.8843 65.875 24.1252 66.022 24.4138C66.1689 24.7023 66.2309 25.0267 66.2007 25.3491C66.2312 25.6707 66.1716 25.9945 66.0286 26.2841C65.8855 26.5738 65.6646 26.8179 65.3907 26.9891C65.0271 26.8778 64.7114 26.648 64.4939 26.3362C64.2763 26.0244 64.1696 25.6487 64.1907 25.2691V25.1691C64.1812 25.0994 64.1812 25.0288 64.1907 24.9591C64.222 24.7708 64.2974 24.5926 64.4107 24.4391C64.5489 24.2372 64.7216 24.0612 64.9207 23.9191C64.9807 23.9191 65.0707 23.8291 65.1207 23.7891C65.1968 23.745 65.2828 23.7209 65.3707 23.7191Z" fill="black"/>
</svg>
