<?xml version="1.0" encoding="utf-8"?>
<!-- Generator: Adobe Illustrator 25.0.1, SVG Export Plug-In . SVG Version: 6.00 Build 0)  -->
<svg version="1.1" id="Layer_1" xmlns="http://www.w3.org/2000/svg" xmlns:xlink="http://www.w3.org/1999/xlink" x="0px" y="0px"
	 viewBox="0 0 124 149" style="enable-background:new 0 0 124 149;" xml:space="preserve">
<style type="text/css">
	.st0{fill:#FF0020;}
	.st1{fill:#FF0000;}
	.st2{fill:#EB7000;}
	.st3{fill:#FFFFFF;}
	.st4{stroke:#000000;stroke-miterlimit:10;}
</style>
<path class="st0" d="M70.7,112.1c-1.8,7.2-4,14.4-4.1,21.9c0,0.3,0.1,0.5,0.3,0.7c0.2,0.2,0.4,0.3,0.7,0.3c0.3,0,0.5-0.1,0.7-0.3
	c0.2-0.2,0.3-0.4,0.3-0.7c0.2-7.3,2.3-14.4,4-21.4C72.9,111.4,71,110.9,70.7,112.1L70.7,112.1z"/>
<path class="st0" d="M66.6,134.3c-1.2,3.1-2.4,6.1-3.6,9.2c0,0.1,0,0.3,0,0.4c0,0.1,0.1,0.3,0.1,0.4s0.2,0.2,0.3,0.3
	c0.1,0.1,0.2,0.1,0.3,0.2s0.3,0,0.4,0c0.1,0,0.3-0.1,0.4-0.1c0.1-0.1,0.2-0.2,0.3-0.3c0.1-0.1,0.1-0.2,0.2-0.3
	c1.2-3.1,2.4-6.1,3.6-9.2c0-0.1,0-0.3,0-0.4c0-0.1-0.1-0.3-0.1-0.4s-0.2-0.2-0.3-0.3c-0.1-0.1-0.2-0.1-0.3-0.2c-0.1,0-0.3,0-0.4,0
	c-0.1,0-0.3,0.1-0.4,0.1c-0.1,0.1-0.2,0.2-0.3,0.3C66.7,134.1,66.6,134.2,66.6,134.3z"/>
<path class="st0" d="M66.5,135.8c0.3,3.6,1.3,7.2,3,10.4c0.6,1.1,2.3,0.1,1.7-1c-1.5-2.9-2.4-6.1-2.7-9.4c0-0.3-0.1-0.5-0.3-0.7
	c-0.2-0.2-0.4-0.3-0.7-0.3c-0.3,0-0.5,0.1-0.7,0.3C66.6,135.3,66.5,135.5,66.5,135.8L66.5,135.8z"/>
<path class="st0" d="M67.8,135.9c1.9,2.3,3.9,4.5,6,6.5c0.2,0.2,0.4,0.2,0.7,0.2c0.3,0,0.5-0.1,0.7-0.3c0.2-0.2,0.3-0.4,0.3-0.7
	c0-0.3-0.1-0.5-0.2-0.7c-2.1-2-4.1-4.2-6-6.5c-0.2-0.2-0.4-0.3-0.7-0.3c-0.3,0-0.5,0.1-0.7,0.3c-0.2,0.2-0.3,0.4-0.3,0.7
	C67.5,135.5,67.6,135.7,67.8,135.9L67.8,135.9z"/>
<path class="st0" d="M42.1,114.2c-1.8,7.2-4,14.5-4.1,21.9c0,0.3,0.1,0.5,0.3,0.7c0.2,0.2,0.4,0.3,0.7,0.3c0.3,0,0.5-0.1,0.7-0.3
	c0.2-0.2,0.3-0.4,0.3-0.7c0.2-7.3,2.3-14.4,4-21.4C44.4,113.4,42.4,112.9,42.1,114.2z"/>
<path class="st0" d="M38,136.4c-1.2,3.1-2.4,6.1-3.6,9.2c0,0.1,0,0.3,0,0.4c0,0.1,0.1,0.3,0.1,0.4c0.1,0.1,0.2,0.2,0.3,0.3
	c0.1,0.1,0.2,0.1,0.3,0.2c0.1,0,0.3,0,0.4,0c0.1,0,0.3-0.1,0.4-0.1c0.1-0.1,0.2-0.2,0.3-0.3c0.1-0.1,0.1-0.2,0.2-0.3
	c1.2-3.1,2.4-6.1,3.6-9.2c0-0.1,0-0.3,0-0.4c0-0.1-0.1-0.3-0.1-0.4c-0.1-0.1-0.2-0.2-0.3-0.3c-0.1-0.1-0.2-0.1-0.3-0.2
	c-0.1,0-0.3,0-0.4,0c-0.1,0-0.3,0.1-0.4,0.1c-0.1,0.1-0.2,0.2-0.3,0.3C38.1,136.1,38,136.3,38,136.4z"/>
<path class="st0" d="M37.9,137.8c0.3,3.6,1.3,7.2,3,10.4c0.6,1.1,2.3,0.1,1.7-1c-1.5-2.9-2.4-6.1-2.7-9.4c0-0.3-0.1-0.5-0.3-0.7
	c-0.2-0.2-0.4-0.3-0.7-0.3c-0.3,0-0.5,0.1-0.7,0.3C38,137.3,37.9,137.5,37.9,137.8L37.9,137.8z"/>
<path class="st0" d="M39.2,137.9c1.9,2.3,3.9,4.5,6,6.5c0.2,0.2,0.4,0.3,0.7,0.3c0.3,0,0.5-0.1,0.7-0.3c0.1-0.1,0.2-0.2,0.2-0.3
	c0.1-0.1,0.1-0.3,0.1-0.4c0-0.1,0-0.3-0.1-0.4c-0.1-0.1-0.1-0.2-0.2-0.3c-2.1-2-4.1-4.2-6-6.5c-0.2-0.2-0.4-0.2-0.7-0.2
	c-0.3,0-0.5,0.1-0.7,0.3c-0.2,0.2-0.3,0.4-0.3,0.7C38.9,137.5,39,137.8,39.2,137.9z"/>
<path class="st1" d="M114.1,58.7c4-7,3.2-14.2-1.5-20.7c-3.7-5.5-8.7-5-14.9-1.5c-0.7,1.1-1.4,2.3-2.1,3.5c-1,3.1-1.8,6.3-2.2,9.5
	c-0.1,1.1-0.4,2.2-1.1,3.2c-0.7,0.9-1.6,1.7-2.6,2.1c-4.2,1.8-7.2-2-8-5.8c-0.9-3.6-0.5-7.2-0.3-10.8c-0.3-2.6-0.4-5.3-0.4-7.9
	c-1-5.2-2.8-10.4-7.3-13.5C64.5,10.4,53.3,8.8,46,0.5C39.3,1.7,27.9,14.3,18.2,31c5.1,0.5,10.3,0.6,15.5,0.2c5.8-0.5,12-2,16.5-6
	c-4.2,5.2-10.5,8.2-15,13.2c-7.5,1.1-15,2.1-22.5,3c-2.2,4.6-4.3,9.3-6,14.1c7.8,0.5,15.6-0.5,23-3c7.4-2.5,14.2-6.4,20-11.6
	c-6.5,13.2-13,28.7-27,36.2c-6.8,3.7-14.2,6.1-21.9,7.1c-0.1,8.9,2,17,7,23.3c8.5,10.6,28.3,14.3,47.8,18.1c15,2.8,24,2.2,32,0
	c2.3-0.6,4.5-1.3,6.7-2.2c0.9-12.2,1.1-24,4.4-35.7c1.6-8.4,5.6-14.9,9.3-21.5c0.2-0.5,0.5-1,0.8-1.5c0.1-0.2,0.2-0.5,0.4-0.7
	C111.3,61.5,112.3,60.7,114.1,58.7z"/>
<path class="st2" d="M117.9,50.4l-4.4-0.2l2.1,5.5l0.5,1.3C116.8,54.9,117.4,52.7,117.9,50.4z"/>
<path class="st2" d="M119.5,50.7l-3.5-4.7l-2.3,4.1l-0.1,0.2c1.8,1.4,3.5,3,5.1,4.6l4.5,0.5L119.5,50.7z"/>
<path class="st3" d="M104.5,45c-0.3,1.8,2,4.1,4.1,3.6c0.6-0.2,1.2-0.5,1.6-1c0.4-0.5,0.7-1.1,0.8-1.7c0.1-0.4,0-0.9-0.2-1.3
	c-0.1-0.3-0.3-0.6-0.6-0.9c-0.3-0.4-0.7-0.6-1.1-0.8C107.3,42.1,104.8,43.4,104.5,45z"/>
<path class="st4" d="M108.6,42.8c-0.4,0.4-0.7,0.9-0.9,1.4c-0.2,0.5-0.2,1.1-0.2,1.6c0.1,0.5,0.3,1.1,0.6,1.5s0.7,0.8,1.2,1.1
	c1.1-0.7,2.1-1.9,1.7-3.2c0-0.1,0-0.1,0-0.2c0-0.1-0.1-0.2-0.1-0.3c-0.1-0.3-0.3-0.6-0.5-0.9c-0.3-0.3-0.6-0.6-1-0.8
	c-0.1-0.1-0.3-0.1-0.4-0.2C108.9,42.9,108.7,42.9,108.6,42.8z"/>
</svg>
