<svg width="80" height="68" viewBox="0 0 80 68" fill="none" xmlns="http://www.w3.org/2000/svg">
<path d="M7.28906 41.8091L6.78906 42.0191C6.99906 41.9491 7.12906 41.8891 7.28906 41.8091Z" fill="#6DFC6D"/>
<path d="M9.51971 39.859C9.5252 39.8024 9.5252 39.7455 9.51971 39.689C9.45377 39.7505 9.38358 39.8073 9.30969 39.859C9.31783 40.0636 9.27305 40.2668 9.17969 40.449C9.17969 40.449 9.17969 40.499 9.17969 40.529C9.32586 40.3239 9.4405 40.098 9.51971 39.859Z" fill="#6DFC6D"/>
<path d="M76.9864 57.5028V62.1828C34.0864 64.2728 23.1065 62.1828 22.6565 59.3728C22.4865 58.3128 23.5565 55.5428 24.5265 53.7528C25.7365 51.5128 26.5265 51.1528 28.2765 48.1328C29.4465 46.0628 30.0365 44.9828 30.1465 43.4528C30.2965 41.4028 29.4165 39.9428 28.2765 37.8328L28.2065 37.6928H28.1465C27.7565 37.6928 27.4165 37.6228 27.1465 37.5928L26.7565 37.5228C26.5065 37.5228 26.1965 37.4328 25.8965 37.3628C22.9934 36.5361 20.3188 35.0541 18.0788 33.0308C15.8389 31.0075 14.0932 28.497 12.9764 25.6928C12.3464 25.1828 11.5665 24.5428 10.4465 23.7828C8.93815 22.7626 7.37589 21.8246 5.76646 20.9728C2.44646 19.1428 1.84647 19.1828 1.08647 18.1628C-0.313533 16.2928 -0.0235351 13.9028 0.146465 12.5428C0.216465 11.9128 0.836465 6.92278 3.89646 5.98278C4.81387 5.71417 5.78905 5.71417 6.70646 5.98278C7.35586 6.24133 7.98154 6.55585 8.57646 6.92279C9.47475 7.34091 10.4174 7.65621 11.3865 7.86276C11.3865 7.86276 12.6765 8.18276 14.4665 8.80276C16.3695 6.11525 18.8371 3.87631 21.6965 2.24276C25.7319 0.16325 30.3505 -0.495533 34.8064 0.372768C37.8608 0.973252 40.7415 2.25129 43.2364 4.11276C41.9083 5.61199 40.6567 7.17732 39.4864 8.80276C39.6264 8.80276 42.2764 4.28276 46.0464 4.11276C48.9864 3.98276 51.3665 6.59279 51.6565 6.92279C52.3485 7.62426 52.8793 8.46813 53.2119 9.39566C53.5445 10.3232 53.671 11.3121 53.5824 12.2935C53.4939 13.2748 53.1926 14.2251 52.6993 15.0782C52.2061 15.9312 51.5328 16.6665 50.7264 17.2328C50.1725 17.6391 49.5584 17.9562 48.9065 18.1728H49.7865C49.9677 19.4162 49.9677 20.6794 49.7865 21.9228C49.6171 22.9744 49.3217 24.0018 48.9065 24.9828L49.7865 23.8028C49.5681 25.424 49.899 27.0716 50.7264 28.4828C51.9864 30.4828 53.9765 30.9228 57.2765 32.2328C60.8265 33.6328 63.9565 34.8528 66.6465 36.9128C69.1765 38.8428 70.5165 41.0128 73.2065 45.3428C76.2865 50.3428 76.8065 52.9928 76.9565 54.7128C77.0386 55.6406 77.0486 56.5734 76.9864 57.5028Z" fill="#FF0020"/>
<path d="M2.78516 8.41267L3.58514 8.35267C3.85371 8.34304 4.12114 8.31295 4.38513 8.26268C5.01673 8.1279 5.58006 7.77358 5.9751 7.26268C5.98062 7.23967 5.98062 7.21568 5.9751 7.19267C5.9751 7.14267 5.97512 7.12267 5.87512 7.10267C5.57476 7.06135 5.26881 7.09573 4.98511 7.20268C4.48568 7.35017 3.99775 7.53398 3.52515 7.75267" fill="black"/>
<path d="M2.78653 9.40284C3.47915 9.40442 4.16987 9.33065 4.84653 9.18283C5.48611 8.99951 6.06799 8.65521 6.53653 8.18283C6.72541 8.00391 6.87226 7.78534 6.96653 7.54285C7.03226 7.31397 7.01976 7.06968 6.931 6.8487C6.84225 6.62772 6.68226 6.44268 6.47647 6.32285C6.02121 6.10296 5.49959 6.06364 5.01651 6.21283C4.32943 6.39181 3.66002 6.6328 3.01651 6.93283C2.78846 7.06812 2.62347 7.28847 2.55783 7.54538C2.4922 7.8023 2.53126 8.07473 2.66648 8.30283C2.79622 8.52672 3.00773 8.69163 3.2565 8.76285C3.52025 8.82051 3.79586 8.78517 4.03653 8.66285L4.3165 8.54285L4.07651 8.64286C4.60636 8.39738 5.16362 8.21608 5.73648 8.10285H5.47647C5.59223 8.08227 5.71075 8.08227 5.82651 8.10285H5.5665H5.65653L5.41648 8.00284L5.21653 7.85285L4.95652 7.41285V6.94284L5.05649 6.70285C5.11649 6.64285 5.16653 6.57285 5.21653 6.51285C5.07846 6.6777 4.92435 6.82842 4.7565 6.96283L4.95652 6.81284C4.75314 6.96641 4.5314 7.09406 4.29648 7.19284L4.53653 7.09284C4.30556 7.18643 4.06358 7.25028 3.8165 7.28284H4.07651C3.62651 7.34284 3.17647 7.35285 2.72647 7.38285C2.4623 7.3894 2.20973 7.49258 2.01651 7.67285C1.88223 7.81368 1.79196 7.9906 1.75675 8.18198C1.72154 8.37336 1.7429 8.57085 1.81827 8.75025C1.89364 8.92965 2.01974 9.08318 2.18106 9.19199C2.34239 9.3008 2.5319 9.36016 2.72647 9.36283L2.78653 9.40284Z" fill="#231F20"/>
<path d="M32.0561 13.5029C33.3461 10.6929 30.4561 6.13287 26.9161 6.01287C25.8549 5.99932 24.8159 6.31652 23.9431 6.92043C23.0704 7.52433 22.4074 8.38497 22.0461 9.38286C21.7908 10.0692 21.7184 10.8101 21.8362 11.5329C21.9304 12.1252 22.1088 12.701 22.3661 13.2428C22.7085 13.9383 23.2043 14.5469 23.8161 15.0228C26.4461 17.0428 30.9161 15.9629 32.0561 13.5029Z" fill="white"/>
<path d="M24.5753 15.3029C26.0153 14.9029 27.2553 13.1329 27.5253 10.8929C27.7953 8.65288 27.0453 6.70287 25.7753 5.94287C23.7053 6.55287 21.6053 8.11287 21.7753 10.4729C21.7753 10.4729 21.7753 10.7329 21.7753 10.7729C21.765 10.9727 21.765 11.173 21.7753 11.3729C21.8116 11.9249 21.9723 12.4617 22.2453 12.9429C22.5673 13.5727 22.9971 14.1413 23.5153 14.6229C23.6753 14.7729 23.9253 14.9129 24.0653 15.0529C24.2286 15.1492 24.3991 15.2327 24.5753 15.3029Z" fill="black" stroke="black" stroke-miterlimit="10"/>
<path d="M11.7167 65.203C11.7127 63.7795 11.7141 62.3579 11.9119 60.9432C12.0801 59.7395 12.3096 58.537 12.5892 57.354C12.6838 56.9539 12.7614 56.0647 13.0731 55.7529C13.2454 55.5807 13.6704 55.5305 13.8824 55.4362C15.0509 54.9169 16.1718 54.3461 17.3837 53.9231C18.3168 53.5975 20.2706 53.0167 21.2808 53.4657C21.3641 53.5027 21.6713 55.5152 21.703 55.7529C21.808 56.54 22.3373 57.4867 22.6795 58.1985C22.9892 58.8427 23.1324 59.177 23.2777 58.2689C23.6198 56.131 25.1244 54.1388 27 53C27.6009 52.6352 26.5 54 28.2921 55.4362C28.6015 55.8033 30.652 58.3947 31.3535 58.005C31.5691 57.8852 31.5543 57.353 31.5998 57.1517C31.8445 56.0679 32.2484 55.0608 32.717 54.0551C33.2999 52.8041 35 51.5479 35.4705 49.6829C35.5 49.5 35.5 50 35.7168 50.0524C35.9122 50.6384 36.3287 51.106 36.7461 51.5479C37.479 52.324 38.3501 53.3568 39.394 53.7296C39.9463 53.9268 40.3271 53.3906 40.5 53C41.0102 51.8473 41.8417 50.7614 42.5874 49.7445C43.5 48.5 42.5 48.5 43.6518 50.5099C44.4555 51.9122 45.678 53.0692 46.722 54.3014C47.2608 54.9374 47.8704 55.7495 48.5958 56.1928C48.9222 56.3923 49.0029 56.1286 49.0884 55.8409C49.484 54.5102 50.0808 53.2603 50.7071 52.023C50.8199 51.8 52.7589 48.2397 53.1175 48.8032C53.3745 49.2071 53.4661 49.7623 53.7157 50.1932C54.4352 51.4349 55.2959 52.5988 56.302 53.624C56.5086 53.8346 58.0578 55.5141 58.5277 54.8996C60.0182 52.9505 61.381 50.9596 63.067 49.1463C63.1314 49.0771 64.2717 47.8024 64.413 47.9763C64.6601 48.2804 64.4482 49.5105 64.4482 49.8765V53.9143C64.4482 54.4968 64.8354 54.0027 64.888 54.1871C65.0403 54.72 64.5708 55.8648 65.2663 56.052C66.7125 56.4414 67.1916 55.301 68.2485 54.3278C70.4458 52.3046 72.7397 50.2789 74.7408 48.0555C75.0655 47.6946 75.3881 47.289 75.5612 46.8355C75.6297 46.0144 75.6909 45.5569 75.6909 46.1641C75.6909 46.3987 75.6425 46.6224 75.5612 46.8355C75.513 47.4127 75.4612 48.1697 75.4243 48.8627C76.2982 49.1438 78.295 51.7571 78.9194 52.0933C80.0068 52.6789 79.4912 55.4663 79.4912 56.5271C79.4912 56.726 79.601 58.4976 79.3857 58.4976C78.9209 58.4976 78.3369 58.1733 77.9429 57.9698C76.8141 57.3868 77.116 58.0778 77.116 59.1662V63.3184C77.116 64.1612 77.1921 65.0593 76.8785 65.8608C76.6347 66.4839 75.9077 66.2864 75.339 66.2743C74.8345 66.2635 74.4036 66.1228 73.9314 65.9576C73.0639 65.6539 72.1635 65.6456 71.2571 65.5617C69.4284 65.3924 67.5165 65.3429 65.6798 65.3242C63.9882 65.3069 62.7154 65.3222 61.1229 65.8696C57.7517 67.0284 54.1876 66.4899 50.6719 66.5998C46.3423 66.7351 42.0153 67.008 37.6874 67.2244C34.5312 67.3822 31.4027 67.8578 28.2481 67.8578C25.1796 67.8578 22.386 67.4108 19.4422 66.7845C17.8137 66.438 16.1168 66.1531 14.4454 66.1159C13.8881 66.1035 13.4392 65.7585 12.8971 65.5529C12.6218 65.4485 12.1068 65.3627 11.7167 65.203Z" fill="#6DFC6D"/>
</svg>
