<svg width="66" height="38" viewBox="0 0 66 38" fill="none" xmlns="http://www.w3.org/2000/svg">
<path d="M41.155 13.1784C41.8736 11.0607 41.8736 8.76573 41.155 6.64806C39.1547 1.25895 32.741 0.307943 31.9949 0.117739C29.4118 -0.232622 26.783 0.203213 24.452 1.36828C22.121 2.53335 20.1963 4.37345 18.9294 6.64806C18.7389 7.01262 18.3897 9.07316 17.6118 13.1784V14.494C17.2525 13.9823 16.8067 13.5371 16.2942 13.1784C13.1191 11.0228 8.35644 12.8931 5.83226 14.494C3.39188 16.0074 1.54763 18.3133 0.609291 21.0243C-0.203097 23.5713 -0.203097 26.3074 0.609291 28.8544C1.68168 32.5581 3.98936 35.7849 7.14994 38H66C64.5061 36.8959 63.1846 35.5765 62.0787 34.085C60.8496 32.5452 59.9622 30.7623 59.4751 28.8544C58.7766 25.827 59.9673 25.1295 59.4751 22.324C58.9434 19.7679 57.5615 17.4665 55.554 15.7937C53.0139 13.749 50.1881 13.5113 46.3938 13.1784C44.6506 13.0331 42.8982 13.0331 41.155 13.1784Z" fill="white"/>
</svg>
