<svg width="40" height="51" viewBox="0 0 40 51" fill="none" xmlns="http://www.w3.org/2000/svg">
<path d="M21.3807 37.0391L21.2207 37.0991L21.3807 37.0391Z" fill="#6DFC6D"/>
<path d="M21.5589 36.9493C21.5036 36.9855 21.4428 37.0125 21.3789 37.0293C21.3957 37.0234 21.4104 37.0126 21.421 36.9983C21.4317 36.9841 21.4379 36.967 21.4389 36.9493H21.5389C21.5389 36.9493 21.5589 36.9393 21.5589 36.9493Z" fill="#6DFC6D"/>
<path d="M13.4699 14.8889C10.2299 10.4189 5.70986 8.46889 3.14986 9.73889C-0.100141 11.3589 -0.130144 18.1189 2.29986 22.1989C4.91986 26.5789 10.2999 27.6589 15.7999 28.7689C19.0155 29.5825 22.3623 29.7389 25.6399 29.2289C28.5599 28.7189 34.6399 27.6589 37.7399 22.3789C40.7399 17.3789 39.0699 11.8489 38.7399 10.8589C37.1499 5.69889 32.2899 -0.271112 28.5099 0.858888C25.7499 1.66889 23.9899 6.13891 24.0199 11.4489C23.8645 10.3804 23.4046 9.3793 22.6953 8.56531C21.9859 7.75131 21.0571 7.15889 20.0199 6.85889C17.1999 6.20889 14.6799 8.47889 13.7399 10.6089C13.1789 11.9664 13.084 13.4717 13.4699 14.8889Z" fill="#00FFA9"/>
<path d="M22.4203 24.2593H19.8203V50.2092H22.4203V24.2593Z" fill="#754C24"/>
<path d="M20.8997 27.7292C23.6445 27.7292 25.8697 25.889 25.8697 23.6191C25.8697 21.3493 23.6445 19.5093 20.8997 19.5093C18.1548 19.5093 15.9297 21.3493 15.9297 23.6191C15.9297 25.889 18.1548 27.7292 20.8997 27.7292Z" fill="#00FFA9"/>
</svg>
