<svg width="26" height="35" viewBox="0 0 26 35" fill="none" xmlns="http://www.w3.org/2000/svg">
<path d="M10.9008 34.379C10.7608 33.379 10.6308 32.379 10.5008 31.379C10.3508 30.179 10.2008 28.979 10.0608 27.789C9.67274 28.0331 9.27219 28.2567 8.86081 28.459C7.48081 29.119 6.63084 29.559 5.71084 29.459C4.64424 29.2487 3.70316 28.6273 3.09085 27.729C2.45085 26.939 2.09082 25.789 1.50082 23.509C0.770822 20.869 0.680839 19.869 0.830839 18.849C0.9161 18.1876 1.14474 17.5528 1.50082 16.989C1.78397 16.4495 2.2326 16.0149 2.78085 15.749C3.05102 15.6247 3.34345 15.5562 3.64071 15.5476C3.93798 15.539 4.23394 15.5905 4.51083 15.699C4.99988 15.9812 5.37752 16.4223 5.58084 16.949C6.01912 17.8357 6.2742 18.8016 6.33084 19.789C6.38203 20.5715 6.38203 21.3565 6.33084 22.139C6.27084 23.339 6.1208 23.799 6.4108 24.439C6.59685 24.9093 6.95417 25.2916 7.4108 25.509C7.67923 25.6179 7.97053 25.6585 8.25851 25.6271C8.54649 25.5957 8.82218 25.4933 9.06082 25.329C9.26975 25.182 9.43548 24.9818 9.5408 24.749C9.64331 24.4991 9.67449 24.2256 9.63083 23.959C9.58912 23.36 9.5022 22.7649 9.37082 22.179C9.18082 21.529 9.53082 22.599 8.75082 19.389C8.25082 17.329 8.22084 17.389 8.08084 16.679C7.89107 15.7277 7.75748 14.7661 7.68081 13.799C7.13081 7.98903 7.18085 6.60903 7.28085 5.54903C7.46085 3.54903 7.7608 2.78902 8.3508 2.12902C9.00217 1.43771 9.85682 0.971866 10.7908 0.799034C11.8689 0.570598 12.9925 0.711482 13.9808 1.19903C15.0463 1.80817 15.8745 2.75969 16.3308 3.89901C18.3308 8.09901 17.5908 16.229 17.4908 17.299L18.2809 17.479C19.0509 17.639 19.1709 17.639 19.2809 17.609C19.4697 17.5557 19.644 17.4605 19.7912 17.3307C19.9383 17.2009 20.0544 17.0397 20.1308 16.859C20.2838 16.3916 20.2516 15.8834 20.0408 15.439C19.6486 14.2028 19.4397 12.9158 19.4208 11.619C19.4208 10.699 19.3408 8.97902 20.4208 8.24902C20.7815 8.06119 21.1794 7.95571 21.5857 7.94015C21.9921 7.92458 22.3968 7.99933 22.7708 8.15902C23.581 8.58128 24.1996 9.29651 24.5008 10.159C24.8708 10.979 25.1609 12.029 25.0309 15.219C24.8309 19.959 24.0308 20.749 23.7408 21.029C23.1622 21.5151 22.4769 21.8578 21.7408 22.029C20.9267 22.259 20.0649 22.259 19.2508 22.029C18.5676 21.8087 17.947 21.4281 17.4408 20.919C17.3808 22.199 17.3108 23.239 17.2608 23.919C17.0508 26.559 16.7708 28.639 16.2608 32.429C16.1108 33.489 15.9808 34.359 15.9008 34.919L10.9008 34.379Z" fill="#6DFC6D"/>
<path d="M4.71094 7.90924C5.28052 7.73648 5.8621 7.60614 6.45093 7.51925C7.97318 7.37331 9.50453 7.34655 11.0309 7.43924C11.5571 7.47157 12.0847 7.47157 12.6109 7.43924C13.3189 7.37376 14.0188 7.2398 14.7009 7.03924C16.2653 6.68659 17.8782 6.60206 19.4709 6.78924C19.5273 6.90663 19.5677 7.03107 19.5909 7.15924C19.6464 7.41628 19.6464 7.68219 19.5909 7.93924C19.5136 8.45746 19.4101 8.97145 19.2809 9.47924C19.0887 10.0261 18.7895 10.5291 18.4009 10.9592C18.1119 11.2607 17.7738 11.511 17.4009 11.6992C17.059 11.904 16.6772 12.0331 16.2812 12.0779C15.8853 12.1227 15.4843 12.0821 15.1053 11.9589C14.7263 11.8357 14.378 11.6328 14.084 11.3638C13.7901 11.0948 13.5572 10.7658 13.4009 10.3992C13.062 9.8046 12.8444 9.14859 12.7609 8.46923C12.6719 8.39384 12.5653 8.34224 12.4509 8.31924C12.3126 8.29525 12.1707 8.30065 12.0346 8.33511C11.8985 8.36957 11.7711 8.43232 11.6609 8.51925C11.6803 8.78556 11.6803 9.05293 11.6609 9.31924C11.639 9.97326 11.4571 10.6119 11.1309 11.1792C10.8497 11.6222 10.461 11.9869 10.0009 12.2392C9.60207 12.4471 9.16061 12.5601 8.71094 12.5692C8.08785 12.6158 7.4649 12.4766 6.9209 12.1692C6.47868 11.9045 6.09982 11.5461 5.81091 11.1192C5.46006 10.6557 5.19274 10.1346 5.02094 9.57925C4.84398 9.0388 4.73973 8.47719 4.71094 7.90924Z" fill="#01140D"/>
</svg>
