<svg width="421" height="44" viewBox="0 0 421 44" fill="none" xmlns="http://www.w3.org/2000/svg">
<path d="M20.724 22.504C22.0147 22.9733 23.012 23.6627 23.716 24.572C24.4493 25.452 24.816 26.4933 24.816 27.696C24.816 29.368 24.2293 30.8053 23.056 32.008C21.8827 33.1813 20.2987 34.076 18.304 34.692C16.3093 35.2787 14.0947 35.572 11.66 35.572C7.524 35.572 3.76933 34.956 0.396 33.724L2.904 27.168C5.39733 28.0773 8.228 28.532 11.396 28.532C12.452 28.532 13.288 28.4 13.904 28.136C14.52 27.872 14.828 27.4613 14.828 26.904C14.828 26.4347 14.6813 26.112 14.388 25.936C14.124 25.7307 13.6547 25.628 12.98 25.628H7.48V20.084H12.056C12.7893 20.084 13.3173 19.9813 13.64 19.776C13.992 19.5707 14.168 19.2333 14.168 18.764C14.168 18.2947 13.9333 17.9427 13.464 17.708C12.9947 17.4733 12.188 17.356 11.044 17.356C8.844 17.356 6.27733 17.8547 3.344 18.852L1.1 12.56C4.82533 11.1227 8.38933 10.404 11.792 10.404C15.4 10.404 18.3627 11.0053 20.68 12.208C22.9973 13.3813 24.156 15.0973 24.156 17.356C24.156 18.412 23.848 19.3947 23.232 20.304C22.616 21.2133 21.78 21.9467 20.724 22.504ZM349.552 10.492C351.664 10.492 353.6 11.0053 355.36 12.032C357.149 13.0293 358.557 14.4813 359.584 16.388C360.64 18.2947 361.168 20.4947 361.168 22.988C361.168 25.4813 360.64 27.6813 359.584 29.588C358.557 31.4653 357.149 32.9173 355.36 33.944C353.6 34.9413 351.664 35.44 349.552 35.44C346.883 35.44 344.844 34.7507 343.436 33.372V43.536H333.492V10.932H342.952V12.912C344.389 11.2987 346.589 10.492 349.552 10.492ZM347.176 27.696C348.32 27.696 349.259 27.2853 349.992 26.464C350.725 25.6427 351.092 24.484 351.092 22.988C351.092 21.492 350.725 20.3333 349.992 19.512C349.259 18.6613 348.32 18.236 347.176 18.236C346.032 18.236 345.093 18.6613 344.36 19.512C343.627 20.3333 343.26 21.492 343.26 22.988C343.26 24.484 343.627 25.6427 344.36 26.464C345.093 27.2853 346.032 27.696 347.176 27.696Z" fill="#6000FF"/>
<path d="M40.3923 35.44C37.723 35.44 35.3177 34.912 33.1763 33.856C31.0643 32.7707 29.407 31.2893 28.2043 29.412C27.0017 27.5053 26.4003 25.3493 26.4003 22.944C26.4003 20.5387 27.0017 18.3973 28.2043 16.52C29.407 14.6133 31.0643 13.132 33.1763 12.076C35.3177 11.02 37.723 10.492 40.3923 10.492C43.091 10.492 45.4963 11.02 47.6083 12.076C49.7497 13.132 51.407 14.6133 52.5803 16.52C53.783 18.3973 54.3843 20.5387 54.3843 22.944C54.3843 25.3493 53.783 27.5053 52.5803 29.412C51.407 31.2893 49.7497 32.7707 47.6083 33.856C45.4963 34.912 43.091 35.44 40.3923 35.44ZM40.3923 27.696C41.5363 27.696 42.475 27.2853 43.2083 26.464C43.9417 25.6133 44.3083 24.44 44.3083 22.944C44.3083 21.448 43.9417 20.2893 43.2083 19.468C42.475 18.6467 41.5363 18.236 40.3923 18.236C39.2483 18.236 38.3097 18.6467 37.5763 19.468C36.843 20.2893 36.4763 21.448 36.4763 22.944C36.4763 24.44 36.843 25.6133 37.5763 26.464C38.3097 27.2853 39.2483 27.696 40.3923 27.696ZM127.697 10.492C131.921 10.492 135.148 11.4453 137.377 13.352C139.607 15.2293 140.721 18.1333 140.721 22.064V35H131.481V31.832C130.337 34.2373 128.064 35.44 124.661 35.44C122.755 35.44 121.127 35.1173 119.777 34.472C118.457 33.7973 117.445 32.9027 116.741 31.788C116.067 30.644 115.729 29.368 115.729 27.96C115.729 25.584 116.639 23.78 118.457 22.548C120.276 21.316 123.033 20.7 126.729 20.7H130.733C130.411 18.8227 128.9 17.884 126.201 17.884C125.116 17.884 124.016 18.06 122.901 18.412C121.787 18.7347 120.833 19.1893 120.041 19.776L116.873 13.22C118.252 12.3693 119.909 11.7093 121.845 11.24C123.811 10.7413 125.761 10.492 127.697 10.492ZM127.653 29.456C128.357 29.456 128.988 29.2653 129.545 28.884C130.103 28.5027 130.513 27.9307 130.777 27.168V25.496H128.313C126.289 25.496 125.277 26.1707 125.277 27.52C125.277 28.0773 125.483 28.5467 125.893 28.928C126.333 29.28 126.92 29.456 127.653 29.456ZM262.622 13.616C266.172 13.616 268.929 14.5693 270.894 16.476C272.86 18.3827 273.842 21.008 273.842 24.352C273.842 26.6107 273.226 28.6053 271.994 30.336C270.792 32.0373 269.134 33.3573 267.022 34.296C264.91 35.2347 262.549 35.704 259.938 35.704C255.656 35.704 252.194 34.428 249.554 31.876C246.944 29.324 245.638 25.3933 245.638 20.084C245.638 10.0813 250.097 4.27333 259.014 2.66L270.982 0.503998L272.302 8.644L262.182 10.448C259.806 10.8587 258.09 11.4893 257.034 12.34C256.008 13.1907 255.377 14.4373 255.142 16.08C257.196 14.4373 259.689 13.616 262.622 13.616ZM259.938 28.356C261.141 28.356 262.065 27.96 262.71 27.168C263.385 26.376 263.722 25.4227 263.722 24.308C263.722 23.076 263.37 22.1227 262.666 21.448C261.992 20.7733 261.082 20.436 259.938 20.436C258.765 20.436 257.826 20.788 257.122 21.492C256.418 22.1667 256.066 23.12 256.066 24.352C256.066 25.5253 256.418 26.4933 257.122 27.256C257.856 27.9893 258.794 28.356 259.938 28.356Z" fill="#0097DD"/>
<path d="M69.8689 35.44C67.1996 35.44 64.7942 34.912 62.6529 33.856C60.5409 32.7707 58.8836 31.2893 57.6809 29.412C56.4782 27.5053 55.8769 25.3493 55.8769 22.944C55.8769 20.5387 56.4782 18.3973 57.6809 16.52C58.8836 14.6133 60.5409 13.132 62.6529 12.076C64.7942 11.02 67.1996 10.492 69.8689 10.492C72.5676 10.492 74.9729 11.02 77.0849 12.076C79.2262 13.132 80.8836 14.6133 82.0569 16.52C83.2596 18.3973 83.8609 20.5387 83.8609 22.944C83.8609 25.3493 83.2596 27.5053 82.0569 29.412C80.8836 31.2893 79.2262 32.7707 77.0849 33.856C74.9729 34.912 72.5676 35.44 69.8689 35.44ZM69.8689 27.696C71.0129 27.696 71.9516 27.2853 72.6849 26.464C73.4182 25.6133 73.7849 24.44 73.7849 22.944C73.7849 21.448 73.4182 20.2893 72.6849 19.468C71.9516 18.6467 71.0129 18.236 69.8689 18.236C68.7249 18.236 67.7862 18.6467 67.0529 19.468C66.3196 20.2893 65.9529 21.448 65.9529 22.944C65.9529 24.44 66.3196 25.6133 67.0529 26.464C67.7862 27.2853 68.7249 27.696 69.8689 27.696ZM229.662 10.492C233.886 10.492 237.113 11.4453 239.342 13.352C241.571 15.2293 242.686 18.1333 242.686 22.064V35H233.446V31.832C232.302 34.2373 230.029 35.44 226.626 35.44C224.719 35.44 223.091 35.1173 221.742 34.472C220.422 33.7973 219.41 32.9027 218.706 31.788C218.031 30.644 217.694 29.368 217.694 27.96C217.694 25.584 218.603 23.78 220.422 22.548C222.241 21.316 224.998 20.7 228.694 20.7H232.698C232.375 18.8227 230.865 17.884 228.166 17.884C227.081 17.884 225.981 18.06 224.866 18.412C223.751 18.7347 222.798 19.1893 222.006 19.776L218.838 13.22C220.217 12.3693 221.874 11.7093 223.81 11.24C225.775 10.7413 227.726 10.492 229.662 10.492ZM229.618 29.456C230.322 29.456 230.953 29.2653 231.51 28.884C232.067 28.5027 232.478 27.9307 232.742 27.168V25.496H230.278C228.254 25.496 227.242 26.1707 227.242 27.52C227.242 28.0773 227.447 28.5467 227.858 28.928C228.298 29.28 228.885 29.456 229.618 29.456Z" fill="#FF81E7"/>
<path d="M112.765 10.932V35H102.865V18.676H96.8375V35H86.9375V10.932H112.765ZM407.467 10.492C411.691 10.492 414.917 11.4453 417.147 13.352C419.376 15.2293 420.491 18.1333 420.491 22.064V35H411.251V31.832C410.107 34.2373 407.833 35.44 404.431 35.44C402.524 35.44 400.896 35.1173 399.547 34.472C398.227 33.7973 397.215 32.9027 396.511 31.788C395.836 30.644 395.499 29.368 395.499 27.96C395.499 25.584 396.408 23.78 398.227 22.548C400.045 21.316 402.803 20.7 406.499 20.7H410.503C410.18 18.8227 408.669 17.884 405.971 17.884C404.885 17.884 403.785 18.06 402.671 18.412C401.556 18.7347 400.603 19.1893 399.811 19.776L396.643 13.22C398.021 12.3693 399.679 11.7093 401.615 11.24C403.58 10.7413 405.531 10.492 407.467 10.492ZM407.423 29.456C408.127 29.456 408.757 29.2653 409.315 28.884C409.872 28.5027 410.283 27.9307 410.547 27.168V25.496H408.083C406.059 25.496 405.047 26.1707 405.047 27.52C405.047 28.0773 405.252 28.5467 405.663 28.928C406.103 29.28 406.689 29.456 407.423 29.456Z" fill="#00FFA9"/>
<path d="M160.833 10.492C162.945 10.492 164.881 11.0053 166.641 12.032C168.431 13.0293 169.839 14.4813 170.865 16.388C171.921 18.2947 172.449 20.4947 172.449 22.988C172.449 25.4813 171.921 27.6813 170.865 29.588C169.839 31.4653 168.431 32.9173 166.641 33.944C164.881 34.9413 162.945 35.44 160.833 35.44C158.164 35.44 156.125 34.7507 154.717 33.372V43.536H144.773V10.932H154.233V12.912C155.671 11.2987 157.871 10.492 160.833 10.492ZM158.457 27.696C159.601 27.696 160.54 27.2853 161.273 26.464C162.007 25.6427 162.373 24.484 162.373 22.988C162.373 21.492 162.007 20.3333 161.273 19.512C160.54 18.6613 159.601 18.236 158.457 18.236C157.313 18.236 156.375 18.6613 155.641 19.512C154.908 20.3333 154.541 21.492 154.541 22.988C154.541 24.484 154.908 25.6427 155.641 26.464C156.375 27.2853 157.313 27.696 158.457 27.696ZM394.307 27.212V39.752H385.111V35H371.823V39.752H362.627V27.212H363.331C364.739 27.212 365.721 26.552 366.279 25.232C366.836 23.8827 367.159 21.9467 367.247 19.424L367.555 10.932H391.095V27.212H394.307ZM376.179 20.172C376.12 22.02 375.988 23.4867 375.783 24.572C375.607 25.628 375.24 26.508 374.683 27.212H381.195V18.676H376.223L376.179 20.172Z" fill="#EB7000"/>
<path d="M187.504 26.992H185.612V35H175.668V10.932H185.612V19.38H187.768L193.048 10.932H203.52L195.776 22.46L204.004 35H192.3L187.504 26.992ZM331.294 10.932L321.394 35.484C320.132 38.6227 318.563 40.8227 316.686 42.084C314.808 43.3453 312.506 43.976 309.778 43.976C308.428 43.976 307.064 43.7707 305.686 43.36C304.336 42.9787 303.266 42.4653 302.474 41.82L305.774 35C306.272 35.3813 306.83 35.6893 307.446 35.924C308.091 36.1587 308.707 36.276 309.294 36.276C310.379 36.276 311.2 35.9533 311.758 35.308L301.638 10.932H311.846L316.818 23.824L321.878 10.932H331.294Z" fill="#FFB600"/>
<path d="M289.53 35.44C286.802 35.44 284.353 34.912 282.182 33.856C280.041 32.8 278.354 31.3187 277.122 29.412C275.92 27.5053 275.318 25.3493 275.318 22.944C275.318 20.5387 275.92 18.3973 277.122 16.52C278.354 14.6133 280.041 13.132 282.182 12.076C284.353 11.02 286.802 10.492 289.53 10.492C292.464 10.492 294.972 11.1227 297.054 12.384C299.137 13.6453 300.574 15.3907 301.366 17.62L293.666 21.404C292.728 19.292 291.334 18.236 289.486 18.236C288.313 18.236 287.33 18.6467 286.538 19.468C285.776 20.2893 285.394 21.448 285.394 22.944C285.394 24.4693 285.776 25.6427 286.538 26.464C287.33 27.2853 288.313 27.696 289.486 27.696C291.334 27.696 292.728 26.64 293.666 24.528L301.366 28.312C300.574 30.5413 299.137 32.2867 297.054 33.548C294.972 34.8093 292.464 35.44 289.53 35.44Z" fill="#6DFC6D"/>
</svg>
