<svg width="119" height="50" viewBox="0 0 119 50" fill="none" xmlns="http://www.w3.org/2000/svg">
<path d="M0.311035 32.0938C-2.24896 22.4438 11.501 8.09382 22.791 2.97382C42.481 -5.94618 69.941 5.43382 89.531 33.9738C89.681 32.8938 90.771 25.8638 96.531 22.0938C102.881 17.9538 110.811 20.3738 114.891 24.7938C116.891 26.9838 119.291 31.0638 118.781 33.9738C115.801 50.9738 7.08104 57.6038 0.311035 32.0938Z" fill="#EB7000"/>
<path d="M104.299 30.1892C103.959 27.6692 107.299 24.7792 110.129 25.5392C110.962 25.783 111.698 26.2797 112.236 26.9606C112.773 27.6415 113.085 28.4728 113.129 29.3392C113.162 29.9449 113.046 30.5494 112.789 31.0992C112.567 31.5394 112.284 31.9466 111.949 32.3092C111.512 32.7706 110.98 33.1322 110.389 33.3692C107.849 34.3792 104.599 32.4392 104.299 30.1892Z" fill="white"/>
<path d="M109.73 33.429C108.73 32.769 108.15 31.0891 108.48 29.2591C108.81 27.4291 109.86 26.0791 111.04 25.7891C112.52 26.7891 113.8 28.4891 113.12 30.3191C113.12 30.3191 113.06 30.5191 113.05 30.5491C113.002 30.7069 112.942 30.8607 112.87 31.0091C112.711 31.4335 112.458 31.8164 112.13 32.1291C111.727 32.5398 111.257 32.8781 110.74 33.1291C110.58 33.1991 110.34 33.2591 110.2 33.3291C110.049 33.3862 109.89 33.4199 109.73 33.429Z" fill="black" stroke="black" stroke-miterlimit="10"/>
</svg>
