<svg xmlns="http://www.w3.org/2000/svg" viewBox="0 0 71.67 93.1"><defs><style>.cls-1{fill:#00ffa9;}.cls-2{fill:#fff;}.cls-3{stroke:#000;stroke-miterlimit:10;}</style></defs><g id="Layer_2" data-name="Layer 2"><g id="Layer_1-2" data-name="Layer 1"><path class="cls-1" d="M70.31,66.09c-1.45-1.74-3.72-2.1-10.56-2.21-5-.08-11.87,0-20.14.6l.09-15.2A56.48,56.48,0,0,0,58.46,31.69a43.5,43.5,0,0,0,7.17-16.78A41.51,41.51,0,0,0,65.63,0C53,3.53,28.5,12.42,7.63,35.09,5.49,37.42,2.83,40.33,0,43.77c23,10,42.82,28,55.9,49.33,5.57-3.61,9.5-6.67,12.35-11.81C68.92,80.15,74.06,70.58,70.31,66.09Z"/><path class="cls-2" d="M42.94,16c1,2.93,6.21,4.29,8.86,2a5.11,5.11,0,0,0,1.27-5.79,4.4,4.4,0,0,0-1.32-1.73,7.31,7.31,0,0,0-1.56-1,5.49,5.49,0,0,0-2.27-.31C44.59,9.53,42.06,13.38,42.94,16Z"/><path class="cls-3" d="M47.14,9.53c-.78,1.27-.47,3.4.86,5.22s3.23,2.74,4.66,2.43c1.1-1.87,1.57-4.44-.15-6.07l-.2-.22c-.16-.21-.27-.23-.45-.41a3.85,3.85,0,0,0-1.41-.82,6.05,6.05,0,0,0-2.07-.36c-.21,0-.5.07-.7.07A1.47,1.47,0,0,0,47.14,9.53Z"/></g></g></svg>