<svg width="124" height="149" viewBox="0 0 124 149" fill="none" xmlns="http://www.w3.org/2000/svg">
<path d="M70.7096 112.139C68.9496 119.319 66.7596 126.589 66.5996 134.039C66.5996 134.304 66.705 134.559 66.8925 134.746C67.08 134.934 67.3344 135.039 67.5996 135.039C67.8648 135.039 68.1192 134.934 68.3067 134.746C68.4942 134.559 68.5996 134.304 68.5996 134.039C68.7596 126.779 70.9196 119.679 72.5996 112.669C72.8996 111.419 70.9796 110.879 70.6696 112.139H70.7096Z" fill="#FF0020"/>
<path d="M66.609 134.319C65.409 137.379 64.189 140.429 62.989 143.499C62.9541 143.626 62.9445 143.758 62.9608 143.889C62.9771 144.019 63.019 144.145 63.084 144.259C63.149 144.373 63.2359 144.474 63.3398 144.554C63.4436 144.635 63.5622 144.694 63.689 144.729C63.8158 144.764 63.9481 144.774 64.0786 144.757C64.209 144.741 64.3349 144.699 64.4492 144.634C64.5634 144.569 64.6637 144.482 64.7443 144.378C64.8249 144.274 64.8843 144.156 64.919 144.029C66.1257 140.969 67.3324 137.909 68.539 134.849C68.5739 134.722 68.5835 134.59 68.5672 134.46C68.5509 134.329 68.509 134.203 68.444 134.089C68.379 133.975 68.2921 133.874 68.1883 133.794C68.0845 133.713 67.9658 133.654 67.839 133.619C67.7123 133.584 67.5799 133.575 67.4495 133.591C67.3191 133.607 67.1931 133.649 67.0789 133.714C66.9646 133.779 66.8643 133.866 66.7837 133.97C66.7031 134.074 66.6437 134.192 66.609 134.319Z" fill="#FF0020"/>
<path d="M66.5 135.769C66.8163 139.404 67.8351 142.942 69.5 146.189C70.08 147.329 71.81 146.319 71.22 145.189C69.7153 142.258 68.7949 139.062 68.51 135.779C68.51 135.514 68.4046 135.259 68.2171 135.072C68.0296 134.884 67.7752 134.779 67.51 134.779C67.2448 134.779 66.9904 134.884 66.8029 135.072C66.6154 135.259 66.51 135.514 66.51 135.779L66.5 135.769Z" fill="#FF0020"/>
<path d="M67.7505 135.919C69.6196 138.228 71.6408 140.409 73.8005 142.449C73.9918 142.613 74.2379 142.698 74.4896 142.689C74.7413 142.679 74.98 142.575 75.1581 142.397C75.3362 142.218 75.4405 141.98 75.4503 141.728C75.46 141.476 75.3744 141.23 75.2105 141.039C73.068 138.998 71.0636 136.816 69.2105 134.509C69.0232 134.323 68.7697 134.218 68.5056 134.218C68.2414 134.218 67.9879 134.323 67.8005 134.509C67.6143 134.696 67.5098 134.95 67.5098 135.214C67.5098 135.478 67.6143 135.732 67.8005 135.919H67.7505Z" fill="#FF0020"/>
<path d="M42.1298 114.169C40.3698 121.349 38.1798 128.629 38.0098 136.079C38.0098 136.344 38.1151 136.599 38.3026 136.786C38.4902 136.974 38.7445 137.079 39.0098 137.079C39.275 137.079 39.5293 136.974 39.7169 136.786C39.9044 136.599 40.0098 136.344 40.0098 136.079C40.1798 128.809 42.3398 121.709 44.0598 114.699C44.3598 113.449 42.4398 112.919 42.1298 114.169Z" fill="#FF0020"/>
<path d="M37.9996 136.379C36.793 139.439 35.5863 142.499 34.3796 145.559C34.3447 145.686 34.3352 145.818 34.3515 145.949C34.3678 146.079 34.4096 146.205 34.4746 146.319C34.5397 146.433 34.6265 146.534 34.7303 146.614C34.8342 146.695 34.9528 146.754 35.0796 146.789C35.2063 146.824 35.3387 146.834 35.4691 146.817C35.5996 146.801 35.7255 146.759 35.8398 146.694C35.954 146.629 36.0543 146.542 36.1349 146.438C36.2155 146.335 36.2749 146.216 36.3096 146.089C37.5096 143.029 38.7163 139.969 39.9296 136.909C39.9645 136.782 39.9741 136.65 39.9578 136.52C39.9415 136.389 39.8996 136.263 39.8346 136.149C39.7696 136.035 39.6827 135.934 39.5789 135.854C39.4751 135.773 39.3564 135.714 39.2296 135.679C39.1029 135.644 38.9705 135.635 38.8401 135.651C38.7097 135.667 38.5838 135.709 38.4695 135.774C38.3553 135.839 38.255 135.926 38.1743 136.03C38.0937 136.134 38.0343 136.252 37.9996 136.379Z" fill="#FF0020"/>
<path d="M37.9199 137.789C38.2332 141.424 39.2522 144.964 40.9199 148.209C41.5099 149.359 43.2399 148.349 42.6499 147.209C41.144 144.274 40.2236 141.075 39.9399 137.789C39.9399 137.524 39.8345 137.269 39.647 137.082C39.4595 136.894 39.2051 136.789 38.9399 136.789C38.6747 136.789 38.4203 136.894 38.2328 137.082C38.0453 137.269 37.9399 137.524 37.9399 137.789H37.9199Z" fill="#FF0020"/>
<path d="M39.1701 137.949C41.0282 140.255 43.0323 142.44 45.1701 144.489C45.3575 144.675 45.6109 144.78 45.8751 144.78C46.1393 144.78 46.3928 144.675 46.5801 144.489C46.6739 144.396 46.7483 144.286 46.799 144.164C46.8498 144.042 46.8759 143.911 46.8759 143.779C46.8759 143.647 46.8498 143.516 46.799 143.395C46.7483 143.273 46.6739 143.162 46.5801 143.069C44.4374 141.028 42.4329 138.847 40.5801 136.539C40.3888 136.375 40.1428 136.29 39.8911 136.299C39.6394 136.309 39.4007 136.414 39.2226 136.592C39.0445 136.77 38.9402 137.008 38.9304 137.26C38.9207 137.512 39.0063 137.758 39.1701 137.949Z" fill="#FF0020"/>
<path d="M114.051 58.7291C118.051 51.7291 117.301 44.4891 112.551 37.9991C108.841 32.5491 103.811 32.9991 97.6107 36.4491C96.8673 37.5967 96.1831 38.7815 95.5607 39.9991C94.5472 43.0941 93.7946 46.2685 93.3107 49.489C93.2506 50.6304 92.8657 51.7309 92.2014 52.661C91.5371 53.591 90.6209 54.312 89.5607 54.739C85.3107 56.489 82.3207 52.739 81.5607 48.989C80.6407 45.339 81.0207 41.789 81.2407 38.209C80.9652 35.5683 80.8417 32.914 80.8707 30.2591C79.8707 25.0791 78.0307 19.8191 73.5707 16.7691C64.5007 10.3991 53.2807 8.82905 46.0207 0.529053C39.3407 1.65905 27.8807 14.279 18.1507 30.959C23.2867 31.4411 28.4527 31.518 33.6007 31.1891C39.3507 30.6891 45.6007 29.1891 50.0907 25.1891C45.8407 30.4291 39.5907 33.429 35.0907 38.429C27.6307 39.539 20.0907 40.5491 12.5607 41.3791C10.3124 45.9831 8.30958 50.7031 6.56072 55.5191C14.3359 56.0406 22.1376 55.0201 29.517 52.5162C36.8965 50.0123 43.7083 46.0745 49.5607 40.929C43.0607 54.169 36.5607 69.659 22.5607 77.149C15.7642 80.8285 8.35244 83.2347 0.690724 84.2491C0.630724 93.1791 2.69072 101.249 7.69072 107.529C16.1807 118.099 35.9807 121.869 55.5307 125.589C70.5307 128.439 79.5308 127.809 87.5308 125.589C89.8048 124.983 92.0446 124.255 94.2407 123.409C95.1007 111.199 95.3507 99.409 98.6707 87.709C100.231 79.259 104.301 72.759 107.991 66.179C108.222 65.6625 108.493 65.1644 108.801 64.6891C108.9 64.4406 109.024 64.2028 109.171 63.9791C111.301 61.4791 112.291 60.7291 114.051 58.7291Z" fill="#6000FF"/>
<path d="M117.869 50.449L113.449 50.249L115.549 55.769L116.059 57.099C116.805 54.9237 117.41 52.7024 117.869 50.449Z" fill="#EB7000"/>
<path d="M119.469 50.6791L115.929 45.9391L113.589 50.0191L113.449 50.2591C115.246 51.6994 116.949 53.2526 118.549 54.9091L123.009 55.4091L119.469 50.6791Z" fill="#EB7000"/>
<path d="M104.519 45.0291C104.179 46.8591 106.519 49.099 108.629 48.649C109.252 48.4983 109.813 48.159 110.235 47.6775C110.658 47.196 110.921 46.5959 110.989 45.959C111.041 45.5198 110.976 45.0747 110.799 44.6691C110.65 44.3389 110.459 44.0296 110.229 43.7491C109.927 43.3924 109.547 43.1087 109.119 42.9191C107.269 42.0991 104.819 43.3791 104.519 45.0291Z" fill="white"/>
<path d="M108.619 42.839C108.221 43.221 107.917 43.6905 107.731 44.2102C107.545 44.7299 107.483 45.2858 107.549 45.8337C107.615 46.3817 107.807 46.9069 108.111 47.3677C108.415 47.8285 108.822 48.2124 109.299 48.489C110.419 47.819 111.419 46.599 110.989 45.239C110.985 45.1791 110.985 45.1189 110.989 45.059C110.989 44.909 110.909 44.869 110.869 44.719C110.765 44.4013 110.59 44.1109 110.359 43.869C110.077 43.5437 109.738 43.2727 109.359 43.069C109.249 43.009 109.069 42.959 108.969 42.899C108.854 42.8712 108.737 42.8512 108.619 42.839Z" fill="black" stroke="black" stroke-miterlimit="10"/>
</svg>
