<svg width="115" height="122" viewBox="0 0 115 122" fill="none" xmlns="http://www.w3.org/2000/svg">
<path d="M113.77 15.8192C112.86 14.4692 104.95 5.64914 85.8804 3.95914C75.9504 3.08914 73.8004 3.35914 66.2704 5.58914C61.5969 7.13483 57.2815 9.60369 53.5804 12.8491C53.3104 13.0691 52.2804 13.9492 51.6904 13.6392C51.1004 13.3292 51.2304 12.5691 51.2804 11.9691C51.5211 9.2587 51.5445 6.53333 51.3503 3.81915C51.0003 0.529151 50.3503 0.239136 50.1703 0.179136C49.4503 -0.0408637 48.5004 0.849151 48.0104 1.56915C47.5659 2.28933 47.3401 3.12308 47.3604 3.96914C47.3604 8.96914 48.3604 11.0192 47.1804 13.2292C46.8317 13.9358 46.282 14.5238 45.6003 14.9192C44.8353 15.3717 43.9227 15.5046 43.0604 15.2892C42.8104 15.2192 41.8704 14.8891 40.8704 13.0891C40.0027 11.3526 39.5443 9.44036 39.5304 7.49914C39.3704 4.61914 39.8304 3.83915 39.0904 2.22915C38.9404 1.90915 38.0903 0.0591498 36.9203 0.0991498C36.6818 0.130278 36.4526 0.211396 36.2475 0.337187C36.0424 0.462978 35.8662 0.630622 35.7303 0.829161C34.5703 2.23916 35.1903 4.24915 35.7303 8.12915C35.8903 9.25915 36.0804 10.8991 36.2104 12.9091C35.5504 12.6191 34.5803 12.2391 33.4103 11.9091C28.9547 10.5362 24.2671 10.0804 19.6304 10.5692C15.3991 10.943 11.2869 12.1675 7.54034 14.1692C5.82034 15.1692 3.09034 16.6592 3.35034 17.7992C3.69034 19.3292 9.00038 19.3291 13.8304 19.3491C19.38 19.2549 24.9208 18.871 30.4304 18.1992L37.1603 17.5192C37.3703 17.8592 37.5704 18.1992 37.7704 18.5192C36.0504 21.6692 35.9704 24.0191 36.4304 25.7491C36.9704 27.7491 37.0804 27.1491 38.3404 29.9991C38.4404 30.2191 39.4404 31.2691 39.5204 31.4891C39.4404 31.8491 39.3403 32.2191 39.2203 32.6091C33.5203 61.8791 10.3104 84.2391 1.46039 112.609C1.18039 113.529 0.900391 114.459 0.650391 115.379C1.62875 117.667 2.81011 119.862 4.18036 121.939H71.6703C73.5886 110.445 74.0122 98.7517 72.9304 87.1492C71.2604 69.3392 66.5004 56.7092 62.4404 46.1492C57.8304 34.1492 53.4404 26.3992 52.1204 26.8192C51.6 24.0697 51.5662 21.2503 52.0204 18.4891C52.0588 18.1893 52.1156 17.8921 52.1904 17.5991C53.1904 14.8391 104.4 21.5992 111.19 19.6992C111.94 19.4792 113.99 18.9291 114.29 17.5891C114.356 16.9537 114.17 16.3179 113.77 15.8192Z" fill="#EB7000"/>
<path d="M50.0003 20.2891C49.9034 20.0354 49.7535 19.8052 49.5606 19.6141C49.3677 19.4229 49.1362 19.275 48.8816 19.1804C48.627 19.0858 48.3552 19.0465 48.0843 19.0652C47.8133 19.084 47.5495 19.1603 47.3103 19.2891C47.0325 19.4761 46.8203 19.7455 46.7036 20.0595C46.587 20.3734 46.5719 20.7161 46.6603 21.0391C46.7245 21.2611 46.8372 21.466 46.9903 21.6391C47.1239 21.7726 47.2754 21.887 47.4403 21.9791C47.6564 22.0958 47.8953 22.1641 48.1403 22.1791C48.3883 22.1833 48.6346 22.137 48.8641 22.0432C49.0936 21.9493 49.3017 21.8097 49.4756 21.633C49.6496 21.4562 49.7858 21.2459 49.876 21.0149C49.9662 20.7839 50.0085 20.537 50.0003 20.2891Z" fill="white"/>
<path d="M48.4294 22.1191C48.5854 21.8685 48.668 21.5793 48.668 21.2841C48.668 20.9889 48.5854 20.6997 48.4294 20.4491C48.3164 20.1756 48.131 19.9379 47.8931 19.7617C47.6553 19.5856 47.374 19.4775 47.0794 19.4491C46.8316 19.695 46.674 20.0174 46.6322 20.3641C46.5905 20.7107 46.667 21.0614 46.8494 21.3591L46.9094 21.4391C46.9463 21.4915 46.9864 21.5416 47.0294 21.5891C47.1371 21.7218 47.274 21.8279 47.4294 21.8991C47.6288 22.0061 47.8454 22.0772 48.0694 22.1091H48.2894C48.3355 22.1181 48.3825 22.1214 48.4294 22.1191Z" fill="black"/>
<path d="M44.129 20.5391C44.0307 20.2864 43.8801 20.0574 43.6869 19.8671C43.4938 19.6768 43.2626 19.5296 43.0085 19.4351C42.7544 19.3407 42.4831 19.3011 42.2126 19.319C41.9421 19.3369 41.6784 19.4119 41.439 19.5391C41.1625 19.7297 40.9517 20.0011 40.8353 20.3162C40.719 20.6312 40.7028 20.9745 40.7889 21.2991C40.8509 21.519 40.964 21.7212 41.119 21.8891C41.2523 22.0257 41.4038 22.1434 41.569 22.2391C41.785 22.3558 42.0239 22.4241 42.269 22.4391C42.5178 22.4433 42.7649 22.3968 42.9951 22.3023C43.2253 22.2078 43.4339 22.0674 43.608 21.8895C43.7821 21.7117 43.9181 21.5002 44.0077 21.268C44.0973 21.0358 44.1385 20.7878 44.129 20.5391Z" fill="white"/>
<path d="M42.5202 22.3791C42.6751 22.1281 42.7571 21.839 42.7571 21.5441C42.7571 21.2492 42.6751 20.9601 42.5202 20.7091C42.4081 20.4349 42.2229 20.1968 41.9849 20.0204C41.7469 19.8441 41.4651 19.7364 41.1702 19.7091C40.9254 19.9572 40.7708 20.28 40.731 20.6262C40.6911 20.9724 40.7683 21.3219 40.9502 21.6191L41.0002 21.6991C41.0347 21.7502 41.075 21.7972 41.1202 21.8391C41.229 21.9773 41.3697 22.0871 41.5302 22.1591C41.727 22.2637 41.9399 22.3347 42.1601 22.3691H42.3802L42.5202 22.3791Z" fill="black"/>
</svg>
