<svg xmlns="http://www.w3.org/2000/svg" viewBox="0 0 110.97 71.06"><defs><style>.cls-1{fill:#eb7000;}.cls-2{fill:#fff;}</style></defs><g id="Layer_2" data-name="Layer 2"><g id="Layer_1-2" data-name="Layer 1"><path class="cls-1" d="M110.44,15.72c-.91-1.35-8.82-10.17-27.89-11.86C72.62,3,70.47,3.26,62.94,5.49a36.84,36.84,0,0,0-12.69,7.26c-.27.22-1.3,1.1-1.89.79s-.46-1.07-.41-1.67A51.58,51.58,0,0,0,48,3.72C47.67.43,47,.14,46.84.08c-.72-.22-1.67.67-2.16,1.39A4.32,4.32,0,0,0,44,3.87c0,5,1,7.05-.18,9.26a4,4,0,0,1-1.58,1.69,3.38,3.38,0,0,1-2.54.37c-.25-.07-1.19-.4-2.19-2.2A12.64,12.64,0,0,1,36.2,7.4c-.16-2.88.3-3.66-.44-5.27-.15-.32-1-2.17-2.17-2.13a1.68,1.68,0,0,0-.68.24,1.59,1.59,0,0,0-.51.49c-1.16,1.41-.54,3.42,0,7.3.16,1.13.35,2.77.48,4.78a21.7,21.7,0,0,0-2.8-1A34.56,34.56,0,0,0,16.3,10.47a31.48,31.48,0,0,0-12.09,3.6C2.49,15.07-.24,16.56,0,17.7c.34,1.53,5.65,1.53,10.48,1.55A158.86,158.86,0,0,0,27.1,18.1l6.73-.68.61,1c-1.72,3.15-1.8,5.5-1.34,7.23.54,2,.65,1.4,1.91,4.25.1.22,1.1,1.27,1.18,1.49-.08.36-.18.73-.3,1.12-2.72,14-9.42,26.34-16.64,38.55,16-.07,31.79-.89,47.67-.7a173.45,173.45,0,0,0-7.81-24.31c-4.61-12-9-19.75-10.32-19.33a23.79,23.79,0,0,1-.1-8.33,6.66,6.66,0,0,1,.17-.89c1-2.76,52.21,4,59,2.1.75-.22,2.8-.77,3.1-2.11A2.46,2.46,0,0,0,110.44,15.72Z"/><path class="cls-2" d="M46.67,20.19A1.89,1.89,0,0,0,44.75,19a1.9,1.9,0,0,0-.77.22,1.65,1.65,0,0,0-.61.77,1.56,1.56,0,0,0,0,1,1.42,1.42,0,0,0,.33.6,1.9,1.9,0,0,0,.45.34,1.53,1.53,0,0,0,.7.2,1.78,1.78,0,0,0,.72-.14,1.69,1.69,0,0,0,.61-.41,1.66,1.66,0,0,0,.4-.61A1.82,1.82,0,0,0,46.67,20.19Z"/><path d="M45.1,22a1.63,1.63,0,0,0,0-1.67,1.73,1.73,0,0,0-.54-.69,1.71,1.71,0,0,0-.81-.31,1.55,1.55,0,0,0-.45.92,1.51,1.51,0,0,0,.22,1l.06.08a.79.79,0,0,0,.12.15,1,1,0,0,0,.4.31,1.79,1.79,0,0,0,.64.21h.36Z"/><path class="cls-2" d="M40.8,20.44a1.89,1.89,0,0,0-.45-.67,1.92,1.92,0,0,0-1.47-.55,1.9,1.9,0,0,0-.77.22,1.61,1.61,0,0,0-.65,1.76,1.38,1.38,0,0,0,.33.59,1.94,1.94,0,0,0,.45.35,1.53,1.53,0,0,0,.7.2,1.81,1.81,0,0,0,.72-.14,1.69,1.69,0,0,0,.61-.41,1.65,1.65,0,0,0,.4-.62A1.82,1.82,0,0,0,40.8,20.44Z"/><path d="M39.19,22.28a1.63,1.63,0,0,0,0-1.67,1.65,1.65,0,0,0-.54-.69,1.71,1.71,0,0,0-.81-.31,1.53,1.53,0,0,0-.44.92,1.58,1.58,0,0,0,.22,1l.05.08a.53.53,0,0,0,.12.14,1.07,1.07,0,0,0,.41.32,1.74,1.74,0,0,0,.63.21h.36Z"/></g></g></svg>