<svg width="280" height="248" viewBox="0 0 280 248" fill="none" xmlns="http://www.w3.org/2000/svg">
<path d="M239.751 0.37916H80.5605C62.6405 2.76916 40.7305 -3.57084 23.8005 3.68916C21.6466 4.60157 19.5979 5.74493 17.6906 7.09916C10.7317 12.2757 5.47439 19.4096 2.59055 27.5892C2.14945 28.9017 1.77894 30.237 1.48056 31.5892C0.868258 34.3945 0.5598 37.2577 0.560548 40.1292V207.649C0.561166 216.173 3.29863 224.472 8.3699 231.324C13.4412 238.176 20.5783 243.218 28.7306 245.709C23.8857 243.9 19.4148 241.215 15.5406 237.789C19.4173 241.212 23.8876 243.896 28.7306 245.709C32.5026 246.863 36.426 247.446 40.3705 247.439H239.751C244.978 247.44 250.155 246.412 254.984 244.412C259.814 242.413 264.203 239.481 267.9 235.786C271.597 232.09 274.529 227.702 276.53 222.872C278.531 218.043 279.561 212.867 279.561 207.639V40.2292C279.564 34.9982 278.538 29.8178 276.539 24.9838C274.54 20.1498 271.609 15.757 267.912 12.0563C264.215 8.35564 259.825 5.41963 254.993 3.41603C250.161 1.41242 244.981 0.380473 239.751 0.37916Z" fill="#FDFF00"/>
</svg>
